G04 ================== begin FILE IDENTIFICATION RECORD ==================*
G04 Layout Name:  D:/temp_desktop/Graduate/Design/Hardware/scheme/base/PCB/base.brd*
G04 Film Name:    BOTTOM*
G04 File Format:  Gerber RS274X*
G04 File Origin:  Cadence Allegro 17.4-S016*
G04 Origin Date:  Thu Apr 15 10:40:23 2021*
G04 *
G04 Layer:  BOARD GEOMETRY/DESIGN_OUTLINE*
G04 Layer:  ETCH/BOTTOM*
G04 Layer:  PIN/BOTTOM*
G04 Layer:  VIA CLASS/BOTTOM*
G04 *
G04 Offset:    (0.0 0.0)*
G04 Mirror:    No*
G04 Mode:      Positive*
G04 Rotation:  0*
G04 FullContactRelief:  Yes*
G04 UndefLineWidth:     6.0*
G04 ================== end FILE IDENTIFICATION RECORD ====================*
%FSLAX55Y55*MOIN*%
%IR0*IPPOS*OFA0.00000B0.00000*MIA0B0*SFA1.00000B1.00000*%
%ADD16C,.02*%
%ADD11R,.0551X.0404*%
%ADD15C,.0394*%
%ADD10C,.0538*%
%ADD13C,.0748*%
%ADD12R,.0538X.0538*%
%ADD14R,.0748X.0748*%
%ADD17C,.03*%
%ADD18C,.006*%
%ADD19C,.015*%
%ADD20C,.0742*%
%ADD21C,.0952*%
G75*
%LPD*%
G75*
G36*
G01X-112210Y57020D02*
X112210D01*
G02X116070Y53160I0J-3860D01*
G01Y-53160D01*
G02X112210Y-57020I-3860J0D01*
G01X-112210D01*
G02X-116070Y-53160I0J3860D01*
G01Y53160D01*
G02X-112210Y57020I3860J0D01*
G37*
%LPC*%
G75*
G36*
G01X87750Y8760D02*
Y16240D01*
G02X88760Y17250I1010J0D01*
G01X96240D01*
G02X97250Y16240I0J-1010D01*
G01Y8760D01*
G02X96240Y7750I-1010J0D01*
G01X88760D01*
G02X87750Y8760I0J1010D01*
G37*
G36*
G01X-51760Y-24220D02*
Y-23230D01*
X-51780Y-23190D01*
G02X-52020Y-22000I2782J1180D01*
G02X-45980I3020J0D01*
G02X-46220Y-23190I-3022J-10D01*
G01X-46240Y-23230D01*
Y-24220D01*
G02X-44220Y-26240I0J-2020D01*
G01Y-37760D01*
G02X-46240Y-39780I-2020J0D01*
G01X-51760D01*
G02X-53780Y-37760I0J2020D01*
G01Y-26240D01*
G02X-51760Y-24220I2020J0D01*
G37*
G36*
G01X-41760D02*
Y-23230D01*
X-41780Y-23190D01*
G02X-42020Y-22000I2782J1180D01*
G02X-35980I3020J0D01*
G02X-36220Y-23190I-3022J-10D01*
G01X-36240Y-23230D01*
Y-24220D01*
G02X-34220Y-26240I0J-2020D01*
G01Y-37760D01*
G02X-36240Y-39780I-2020J0D01*
G01X-41760D01*
G02X-43780Y-37760I0J2020D01*
G01Y-26240D01*
G02X-41760Y-24220I2020J0D01*
G37*
G36*
G01X-31760D02*
Y-23230D01*
X-31780Y-23190D01*
G02X-32020Y-22000I2782J1180D01*
G02X-25980I3020J0D01*
G02X-26220Y-23190I-3022J-10D01*
G01X-26240Y-23230D01*
Y-24220D01*
G02X-24220Y-26240I0J-2020D01*
G01Y-37760D01*
G02X-26240Y-39780I-2020J0D01*
G01X-31760D01*
G02X-33780Y-37760I0J2020D01*
G01Y-26240D01*
G02X-31760Y-24220I2020J0D01*
G37*
G36*
G01X-21760D02*
Y-23230D01*
X-21780Y-23190D01*
G02X-22020Y-22000I2782J1180D01*
G02X-15980I3020J0D01*
G02X-16220Y-23190I-3022J-10D01*
G01X-16240Y-23230D01*
Y-24220D01*
G02X-14220Y-26240I0J-2020D01*
G01Y-37760D01*
G02X-16240Y-39780I-2020J0D01*
G01X-21760D01*
G02X-23780Y-37760I0J2020D01*
G01Y-26240D01*
G02X-21760Y-24220I2020J0D01*
G37*
G36*
G01X-11760D02*
Y-23230D01*
X-11780Y-23190D01*
G02X-12020Y-22000I2782J1180D01*
G02X-5980I3020J0D01*
G02X-6220Y-23190I-3022J-10D01*
G01X-6240Y-23230D01*
Y-24220D01*
G02X-4220Y-26240I0J-2020D01*
G01Y-37760D01*
G02X-6240Y-39780I-2020J0D01*
G01X-11760D01*
G02X-13780Y-37760I0J2020D01*
G01Y-26240D01*
G02X-11760Y-24220I2020J0D01*
G37*
G36*
G01X-1760D02*
Y-23230D01*
X-1780Y-23190D01*
G02X-2020Y-22000I2782J1180D01*
G02X4020I3020J0D01*
G02X3780Y-23190I-3022J-10D01*
G01X3760Y-23230D01*
Y-24220D01*
G02X5780Y-26240I0J-2020D01*
G01Y-37760D01*
G02X3760Y-39780I-2020J0D01*
G01X-1760D01*
G02X-3780Y-37760I0J2020D01*
G01Y-26240D01*
G02X-1760Y-24220I2020J0D01*
G37*
G36*
G01X8240D02*
Y-23230D01*
X8220Y-23190D01*
G02X7980Y-22000I2782J1180D01*
G02X14020I3020J0D01*
G02X13780Y-23190I-3022J-10D01*
G01X13760Y-23230D01*
Y-24220D01*
G02X15780Y-26240I0J-2020D01*
G01Y-37760D01*
G02X13760Y-39780I-2020J0D01*
G01X8240D01*
G02X6220Y-37760I0J2020D01*
G01Y-26240D01*
G02X8240Y-24220I2020J0D01*
G37*
G36*
G01X18240D02*
Y-23230D01*
X18220Y-23190D01*
G02X17980Y-22000I2782J1180D01*
G02X24020I3020J0D01*
G02X23780Y-23190I-3022J-10D01*
G01X23760Y-23230D01*
Y-24220D01*
G02X25780Y-26240I0J-2020D01*
G01Y-37760D01*
G02X23760Y-39780I-2020J0D01*
G01X18240D01*
G02X16220Y-37760I0J2020D01*
G01Y-26240D01*
G02X18240Y-24220I2020J0D01*
G37*
G36*
G01X28240D02*
Y-23230D01*
X28220Y-23190D01*
G02X27980Y-22000I2782J1180D01*
G02X34020I3020J0D01*
G02X33780Y-23190I-3022J-10D01*
G01X33760Y-23230D01*
Y-24220D01*
G02X35780Y-26240I0J-2020D01*
G01Y-37760D01*
G02X33760Y-39780I-2020J0D01*
G01X28240D01*
G02X26220Y-37760I0J2020D01*
G01Y-26240D01*
G02X28240Y-24220I2020J0D01*
G37*
G36*
G01X40740D02*
Y-23230D01*
X40720Y-23190D01*
G02X40480Y-22000I2782J1180D01*
G02X46520I3020J0D01*
G02X46280Y-23190I-3022J-10D01*
G01X46260Y-23230D01*
Y-24220D01*
G02X48280Y-26240I0J-2020D01*
G01Y-37760D01*
G02X46260Y-39780I-2020J0D01*
G01X40740D01*
G02X38720Y-37760I0J2020D01*
G01Y-26240D01*
G02X40740Y-24220I2020J0D01*
G37*
G36*
G01X50740D02*
Y-23230D01*
X50720Y-23190D01*
G02X50480Y-22000I2782J1180D01*
G02X56520I3020J0D01*
G02X56280Y-23190I-3022J-10D01*
G01X56260Y-23230D01*
Y-24220D01*
G02X58280Y-26240I0J-2020D01*
G01Y-37760D01*
G02X56260Y-39780I-2020J0D01*
G01X50740D01*
G02X48720Y-37760I0J2020D01*
G01Y-26240D01*
G02X50740Y-24220I2020J0D01*
G37*
G36*
G01X60740D02*
Y-23230D01*
X60720Y-23190D01*
G02X60480Y-22000I2782J1180D01*
G02X66520I3020J0D01*
G02X66280Y-23190I-3022J-10D01*
G01X66260Y-23230D01*
Y-24220D01*
G02X68280Y-26240I0J-2020D01*
G01Y-37760D01*
G02X66260Y-39780I-2020J0D01*
G01X60740D01*
G02X58720Y-37760I0J2020D01*
G01Y-26240D01*
G02X60740Y-24220I2020J0D01*
G37*
G36*
G01X73240D02*
Y-23230D01*
X73220Y-23190D01*
G02X72980Y-22000I2782J1180D01*
G02X79020I3020J0D01*
G02X78780Y-23190I-3022J-10D01*
G01X78760Y-23230D01*
Y-24220D01*
G02X80780Y-26240I0J-2020D01*
G01Y-37760D01*
G02X78760Y-39780I-2020J0D01*
G01X73240D01*
G02X71220Y-37760I0J2020D01*
G01Y-26240D01*
G02X73240Y-24220I2020J0D01*
G37*
G36*
G01X83240D02*
Y-23230D01*
X83220Y-23190D01*
G02X82980Y-22000I2782J1180D01*
G02X89020I3020J0D01*
G02X88780Y-23190I-3022J-10D01*
G01X88760Y-23230D01*
Y-24220D01*
G02X90780Y-26240I0J-2020D01*
G01Y-37760D01*
G02X88760Y-39780I-2020J0D01*
G01X83240D01*
G02X81220Y-37760I0J2020D01*
G01Y-26240D01*
G02X83240Y-24220I2020J0D01*
G37*
G36*
G01X93240D02*
Y-23230D01*
X93220Y-23190D01*
G02X92980Y-22000I2782J1180D01*
G02X99020I3020J0D01*
G02X98780Y-23190I-3022J-10D01*
G01X98760Y-23230D01*
Y-24220D01*
G02X100780Y-26240I0J-2020D01*
G01Y-37760D01*
G02X98760Y-39780I-2020J0D01*
G01X93240D01*
G02X91220Y-37760I0J2020D01*
G01Y-26240D01*
G02X93240Y-24220I2020J0D01*
G37*
G36*
G01X-106040Y-17690D02*
Y-12310D01*
G02X-105030Y-11300I1010J0D01*
G01X-99650D01*
G02X-98640Y-12310I0J-1010D01*
G01Y-12380D01*
G02X-97550Y-13050I-860J-2621D01*
G01X-93380Y-17220D01*
X-89740D01*
G02X-87720Y-19240I0J-2020D01*
G01Y-30760D01*
G02X-89740Y-32780I-2020J0D01*
G01X-95260D01*
G02X-97280Y-30760I0J2020D01*
G01Y-21130D01*
X-99700Y-18700D01*
X-105030D01*
G02X-106040Y-17690I0J1010D01*
G37*
G36*
G01X-53750Y1780D02*
Y2770D01*
X-53770Y2810D01*
G02X-54010Y4000I2782J1180D01*
G02X-47970I3020J0D01*
G02X-48210Y2810I-3022J-10D01*
G01X-48230Y2770D01*
Y1780D01*
G02X-46220Y-240I-10J-2020D01*
G01Y-11760D01*
G02X-48240Y-13780I-2020J0D01*
G01X-53740D01*
G02X-55760Y-11760I0J2020D01*
G01Y-240D01*
G02X-53750Y1780I2020J0D01*
G37*
G36*
G01X-43750D02*
Y2770D01*
X-43770Y2810D01*
G02X-44010Y4000I2782J1180D01*
G02X-37970I3020J0D01*
G02X-38210Y2810I-3022J-10D01*
G01X-38230Y2770D01*
Y1780D01*
G02X-36220Y-240I-10J-2020D01*
G01Y-11760D01*
G02X-38240Y-13780I-2020J0D01*
G01X-43740D01*
G02X-45760Y-11760I0J2020D01*
G01Y-240D01*
G02X-43750Y1780I2020J0D01*
G37*
G36*
G01X-33750D02*
Y2770D01*
X-33770Y2810D01*
G02X-34010Y4000I2782J1180D01*
G02X-27970I3020J0D01*
G02X-28210Y2810I-3022J-10D01*
G01X-28230Y2770D01*
Y1780D01*
G02X-26220Y-240I-10J-2020D01*
G01Y-11760D01*
G02X-28240Y-13780I-2020J0D01*
G01X-33740D01*
G02X-35760Y-11760I0J2020D01*
G01Y-240D01*
G02X-33750Y1780I2020J0D01*
G37*
G36*
G01X-23750D02*
Y2770D01*
X-23770Y2810D01*
G02X-24010Y4000I2782J1180D01*
G02X-17970I3020J0D01*
G02X-18210Y2810I-3022J-10D01*
G01X-18230Y2770D01*
Y1780D01*
G02X-16220Y-240I-10J-2020D01*
G01Y-11760D01*
G02X-18240Y-13780I-2020J0D01*
G01X-23740D01*
G02X-25760Y-11760I0J2020D01*
G01Y-240D01*
G02X-23750Y1780I2020J0D01*
G37*
G36*
G01X-13750D02*
Y2770D01*
X-13770Y2810D01*
G02X-14010Y4000I2782J1180D01*
G02X-7970I3020J0D01*
G02X-8210Y2810I-3022J-10D01*
G01X-8230Y2770D01*
Y1780D01*
G02X-6220Y-240I-10J-2020D01*
G01Y-11760D01*
G02X-8240Y-13780I-2020J0D01*
G01X-13740D01*
G02X-15760Y-11760I0J2020D01*
G01Y-240D01*
G02X-13750Y1780I2020J0D01*
G37*
G36*
G01X-3750D02*
Y2770D01*
X-3770Y2810D01*
G02X-4010Y4000I2782J1180D01*
G02X2030I3020J0D01*
G02X1790Y2810I-3022J-10D01*
G01X1770Y2770D01*
Y1780D01*
G02X3780Y-240I-10J-2020D01*
G01Y-11760D01*
G02X1760Y-13780I-2020J0D01*
G01X-3740D01*
G02X-5760Y-11760I0J2020D01*
G01Y-240D01*
G02X-3750Y1780I2020J0D01*
G37*
G36*
G01X6250D02*
Y2770D01*
X6230Y2810D01*
G02X5990Y4000I2782J1180D01*
G02X12030I3020J0D01*
G02X11790Y2810I-3022J-10D01*
G01X11770Y2770D01*
Y1780D01*
G02X13780Y-240I-10J-2020D01*
G01Y-11760D01*
G02X11760Y-13780I-2020J0D01*
G01X6260D01*
G02X4240Y-11760I0J2020D01*
G01Y-240D01*
G02X6250Y1780I2020J0D01*
G37*
G36*
G01X16250D02*
Y2770D01*
X16230Y2810D01*
G02X15990Y4000I2782J1180D01*
G02X22030I3020J0D01*
G02X21790Y2810I-3022J-10D01*
G01X21770Y2770D01*
Y1780D01*
G02X23780Y-240I-10J-2020D01*
G01Y-11760D01*
G02X21760Y-13780I-2020J0D01*
G01X16260D01*
G02X14240Y-11760I0J2020D01*
G01Y-240D01*
G02X16250Y1780I2020J0D01*
G37*
G36*
G01X26250D02*
Y2770D01*
X26230Y2810D01*
G02X25990Y4000I2782J1180D01*
G02X32030I3020J0D01*
G02X31790Y2810I-3022J-10D01*
G01X31770Y2770D01*
Y1780D01*
G02X33780Y-240I-10J-2020D01*
G01Y-11760D01*
G02X31760Y-13780I-2020J0D01*
G01X26260D01*
G02X24240Y-11760I0J2020D01*
G01Y-240D01*
G02X26250Y1780I2020J0D01*
G37*
G36*
G01X36250D02*
Y2770D01*
X36230Y2810D01*
G02X35990Y4000I2782J1180D01*
G02X42030I3020J0D01*
G02X41790Y2810I-3022J-10D01*
G01X41770Y2770D01*
Y1780D01*
G02X43780Y-240I-10J-2020D01*
G01Y-11760D01*
G02X41760Y-13780I-2020J0D01*
G01X36260D01*
G02X34240Y-11760I0J2020D01*
G01Y-240D01*
G02X36250Y1780I2020J0D01*
G37*
G36*
G01X46250D02*
Y2770D01*
X46230Y2810D01*
G02X45990Y4000I2782J1180D01*
G02X52030I3020J0D01*
G02X51790Y2810I-3022J-10D01*
G01X51770Y2770D01*
Y1780D01*
G02X53780Y-240I-10J-2020D01*
G01Y-11760D01*
G02X51760Y-13780I-2020J0D01*
G01X46260D01*
G02X44240Y-11760I0J2020D01*
G01Y-240D01*
G02X46250Y1780I2020J0D01*
G37*
G36*
G01X56250D02*
Y2770D01*
X56230Y2810D01*
G02X55990Y4000I2782J1180D01*
G02X62030I3020J0D01*
G02X61790Y2810I-3022J-10D01*
G01X61770Y2770D01*
Y1780D01*
G02X63780Y-240I-10J-2020D01*
G01Y-11760D01*
G02X61760Y-13780I-2020J0D01*
G01X56260D01*
G02X54240Y-11760I0J2020D01*
G01Y-240D01*
G02X56250Y1780I2020J0D01*
G37*
G36*
G01X-100750Y30260D02*
Y37740D01*
G02X-99740Y38750I1010J0D01*
G01X-92260D01*
G02X-91250Y37740I0J-1010D01*
G01Y30260D01*
G02X-92260Y29250I-1010J0D01*
G01X-92490D01*
Y19950D01*
X-57520Y-15020D01*
G02X-56490Y-17500I-2471J-2480D01*
G01Y-45600D01*
G02X-56010Y-47500I-3520J-1900D01*
G02X-63990I-3990J0D01*
G02X-63510Y-45600I4000J0D01*
G01Y-18950D01*
X-98480Y16020D01*
G02X-99510Y18500I2471J2480D01*
G01Y29250D01*
X-99740D01*
G02X-100750Y30260I0J1010D01*
G37*
G36*
G01X68690Y43210D02*
X69130Y42770D01*
X69350Y42990D01*
X69330Y43090D01*
G02X69240Y44000I4669J921D01*
G02X74000Y39240I4760J0D01*
G02X72290Y39560I6J4759D01*
G03X71750Y39160I-142J-373D01*
G01Y38820D01*
G03X72290Y38440I401J-4D01*
G02X74000Y38760I1716J-4439D01*
G02Y29240I0J-4760D01*
G02X72290Y29560I6J4759D01*
G03X71750Y29180I-139J-376D01*
G01Y27150D01*
X81710Y17190D01*
X81810Y17210D01*
G02X82500Y17260I688J-4710D01*
G02X87260Y12500I0J-4760D01*
G02X85000Y8450I-4759J0D01*
G01Y6550D01*
G02X87260Y2500I-2499J-4050D01*
G02X82500Y-2260I-4760J0D01*
G02X78620Y-260I0J4764D01*
G01X75000D01*
G02X73050Y550I0J2752D01*
G01X57060Y16540D01*
G02X56250Y18490I1942J1950D01*
G01Y29180D01*
G03X55710Y29560I-401J4D01*
G02X54000Y29240I-1716J4439D01*
G02Y38760I0J4760D01*
G02X54910Y38670I-11J-4759D01*
G01X55010Y38650D01*
X55230Y38870D01*
X54790Y39310D01*
X54690Y39290D01*
G02X54000Y39240I-688J4710D01*
G02X58760Y44000I0J4760D01*
G02X58710Y43310I-4760J-2D01*
G01X58690Y43210D01*
X59130Y42770D01*
X59350Y42990D01*
X59330Y43090D01*
G02X59240Y44000I4669J921D01*
G02X68760I4760J0D01*
G02X68710Y43310I-4760J-2D01*
G01X68690Y43210D01*
G37*
G54D20*
X-102340Y-35000D03*
Y-25000D03*
Y-45000D03*
X-82660D03*
Y-35000D03*
Y-25000D03*
Y-15000D03*
G54D21*
X92500Y2500D03*
X-56000Y34000D03*
X-66000Y44000D03*
Y34000D03*
X-76000Y44000D03*
Y34000D03*
X94000Y44000D03*
X-86000D03*
X94000Y34000D03*
X84000Y44000D03*
Y34000D03*
X44000Y44000D03*
X-86000Y34000D03*
X44000D03*
X34000Y44000D03*
Y34000D03*
X24000Y44000D03*
Y34000D03*
X14000Y44000D03*
Y34000D03*
X4000Y44000D03*
Y34000D03*
X-6000Y44000D03*
X-96000D03*
X-6000Y34000D03*
X-16000Y44000D03*
Y34000D03*
X-26000Y44000D03*
Y34000D03*
X-36000Y44000D03*
Y34000D03*
X-46000Y44000D03*
Y34000D03*
X-56000Y44000D03*
%LPD*%
G75*
G54D10*
X-102340Y-45000D03*
Y-35000D03*
Y-25000D03*
X-82660Y-45000D03*
Y-15000D03*
Y-25000D03*
Y-35000D03*
G54D11*
X-92500Y-21260D03*
Y-28740D03*
X-49000Y-35740D03*
Y-28260D03*
X-39000Y-35740D03*
Y-28260D03*
X-29000Y-35740D03*
Y-28260D03*
X-50990Y-9740D03*
X-40990D03*
X-30990D03*
X-50990Y-2260D03*
X-40990D03*
X-30990D03*
X-19000Y-35740D03*
Y-28260D03*
X-9000Y-35740D03*
Y-28260D03*
X1000Y-35740D03*
Y-28260D03*
X-20990Y-9740D03*
X-10990D03*
X-990D03*
X-20990Y-2260D03*
X-10990D03*
X-990D03*
X11000Y-35740D03*
Y-28260D03*
X21000Y-35740D03*
Y-28260D03*
X31000Y-35740D03*
Y-28260D03*
X9010Y-9740D03*
X19010D03*
X29010D03*
X9010Y-2260D03*
X19010D03*
X29010D03*
X43500Y-35740D03*
Y-28260D03*
X53500Y-35740D03*
Y-28260D03*
X39010Y-9740D03*
X49010D03*
X59010D03*
X39010Y-2260D03*
X49010D03*
X59010D03*
X63500Y-35740D03*
Y-28260D03*
X76000Y-35740D03*
Y-28260D03*
X86000Y-35740D03*
Y-28260D03*
X96000Y-35740D03*
Y-28260D03*
G54D12*
X-102340Y-15000D03*
G54D13*
X-96000Y44000D03*
X-66000D03*
Y34000D03*
X-76000Y44000D03*
Y34000D03*
X-86000Y44000D03*
Y34000D03*
X-36000Y44000D03*
Y34000D03*
X-46000Y44000D03*
Y34000D03*
X-56000Y44000D03*
Y34000D03*
X-6000Y44000D03*
Y34000D03*
X-16000Y44000D03*
Y34000D03*
X-26000Y44000D03*
Y34000D03*
X24000Y44000D03*
Y34000D03*
X14000Y44000D03*
Y34000D03*
X4000Y44000D03*
Y34000D03*
X54000Y44000D03*
Y34000D03*
X44000Y44000D03*
Y34000D03*
X34000Y44000D03*
Y34000D03*
X82500Y2500D03*
Y12500D03*
X92500Y2500D03*
X84000Y44000D03*
Y34000D03*
X74000Y44000D03*
Y34000D03*
X64000Y44000D03*
Y34000D03*
X94000Y44000D03*
Y34000D03*
G54D14*
X-96000D03*
X92500Y12500D03*
G54D15*
X-60000Y-47500D03*
G54D16*
X-49000Y-22000D03*
X-39000D03*
X-50990Y4000D03*
X-30990D03*
X-40990D03*
X-29000Y-22000D03*
X-19000D03*
X-9000D03*
X-20990Y4000D03*
X-990D03*
X-10990D03*
X1000Y-22000D03*
X11000D03*
X21000D03*
X9010Y4000D03*
X29010D03*
X19010D03*
X31000Y-22000D03*
X43500D03*
X53500D03*
X39010Y4000D03*
X49010D03*
X59010D03*
X63500Y-22000D03*
X76000D03*
X86000D03*
X96000D03*
G54D17*
G01X-92500Y-32970D02*
Y-28740D01*
G01X-97470D02*
X-92500D01*
G01D02*
X-87530D01*
G01X-60000Y-47500D02*
Y-17500D01*
X-96000Y18500D01*
Y34000D01*
G01X-86000Y39050D02*
Y44000D01*
G01D02*
Y48950D01*
G01Y29050D02*
Y34000D01*
G01D02*
Y38950D01*
G01X-39000Y-39970D02*
Y-35740D01*
G01X-29000Y-39970D02*
Y-35740D01*
G01X-49000Y-39970D02*
Y-35740D01*
G01X-43970D02*
X-39000D01*
G01D02*
X-34030D01*
G01X-40990Y-13970D02*
Y-9740D01*
G01X-45960D02*
X-40990D01*
G01D02*
X-36020D01*
G01X-33970Y-35740D02*
X-29000D01*
G01D02*
X-24030D01*
G01X-50990Y-13970D02*
Y-9740D01*
G01X-55960D02*
X-50990D01*
G01D02*
X-46020D01*
G01X-53970Y-35740D02*
X-49000D01*
G01D02*
X-44030D01*
G01X-30990Y-13970D02*
Y-9740D01*
G01X-35960D02*
X-30990D01*
G01D02*
X-26020D01*
G01X-19000Y-39970D02*
Y-35740D01*
G01X1000Y-39970D02*
Y-35740D01*
G01X-9000Y-39970D02*
Y-35740D01*
G01X-10990Y-13970D02*
Y-9740D01*
G01X-15960D02*
X-10990D01*
G01D02*
X-6020D01*
G01X-23970Y-35740D02*
X-19000D01*
G01D02*
X-14030D01*
G01X-3970D02*
X1000D01*
G01D02*
X5970D01*
G01X-20990Y-13970D02*
Y-9740D01*
G01X-25960D02*
X-20990D01*
G01D02*
X-16020D01*
G01X-990Y-13970D02*
Y-9740D01*
G01X-5960D02*
X-990D01*
G01D02*
X3980D01*
G01X-13970Y-35740D02*
X-9000D01*
G01D02*
X-4030D01*
G01X11000Y-39970D02*
Y-35740D01*
G01X31000Y-39970D02*
Y-35740D01*
G01X21000Y-39970D02*
Y-35740D01*
G01X6030D02*
X11000D01*
G01D02*
X15970D01*
G01X26030D02*
X31000D01*
G01D02*
X35970D01*
G01X9010Y-13970D02*
Y-9740D01*
G01X4040D02*
X9010D01*
G01D02*
X13980D01*
G01X29010Y-13970D02*
Y-9740D01*
G01X24040D02*
X29010D01*
G01D02*
X33980D01*
G01X16030Y-35740D02*
X21000D01*
G01D02*
X25970D01*
G01X19010Y-13970D02*
Y-9740D01*
G01X14040D02*
X19010D01*
G01D02*
X23980D01*
G01X43500Y-39970D02*
Y-35740D01*
G01X53500Y-39970D02*
Y-35740D01*
G01X39010Y-13970D02*
Y-9740D01*
G01X34040D02*
X39010D01*
G01D02*
X43980D01*
G01X38530Y-35740D02*
X43500D01*
G01D02*
X48470D01*
G01X59010Y-13970D02*
Y-9740D01*
G01X54040D02*
X59010D01*
G01D02*
X63980D01*
G01X58530Y-35740D02*
X63500D01*
G01X49010Y-13970D02*
Y-9740D01*
G01X44040D02*
X49010D01*
G01D02*
X53980D01*
G01X48530Y-35740D02*
X53500D01*
G01D02*
X58470D01*
G01X76000Y-39970D02*
Y-35740D01*
G01X63500Y-39970D02*
Y-35740D01*
G01X86000Y-39970D02*
Y-35740D01*
G01X71030D02*
X76000D01*
G01D02*
X80970D01*
G01X91030D02*
X96000D01*
G01X63500D02*
X68470D01*
G01X81030D02*
X86000D01*
G01D02*
X90970D01*
G01X96000Y-39970D02*
Y-35740D01*
G01D02*
X100970D01*
G01X92500Y-2450D02*
Y2500D01*
G01D02*
X97450D01*
G01X94000Y44000D02*
Y48950D01*
G01Y44000D02*
X98950D01*
G54D18*
G01X-112210Y-59060D02*
X112210D01*
G03X118110Y-53160I0J5900D01*
G01Y53160D01*
G03X112210Y59060I-5900J0D01*
G01X-112210D01*
G03X-118110Y53160I0J-5900D01*
G01Y-53160D01*
G03X-112210Y-59060I5900J0D01*
G54D19*
G01X-102340Y-15000D02*
X-99500D01*
X-93240Y-21260D01*
X-92500D01*
G01X-49000Y-22000D02*
Y-28260D01*
G01X-39000Y-22000D02*
Y-28260D01*
G01X-50990Y4000D02*
Y-2260D01*
G01X-30990Y4000D02*
Y-2260D01*
G01X-40990Y4000D02*
Y-2260D01*
G01X-29000Y-22000D02*
Y-28260D01*
G01X-19000Y-22000D02*
Y-28260D01*
G01X-9000Y-22000D02*
Y-28260D01*
G01X-20990Y4000D02*
Y-2260D01*
G01X-990Y4000D02*
Y-2260D01*
G01X-10990Y4000D02*
Y-2260D01*
G01X1000Y-22000D02*
Y-28260D01*
G01X11000Y-22000D02*
Y-28260D01*
G01X21000Y-22000D02*
Y-28260D01*
G01X9010Y4000D02*
Y-2260D01*
G01X29010Y4000D02*
Y-2260D01*
G01X19010Y4000D02*
Y-2260D01*
G01X31000Y-22000D02*
Y-28260D01*
G01X43500Y-22000D02*
Y-28260D01*
G01X53500Y-22000D02*
Y-28260D01*
G01X39010Y4000D02*
Y-2260D01*
G01X49010Y4000D02*
Y-2260D01*
G01X59010Y4000D02*
Y-2260D01*
G01X82500Y2500D02*
X75000D01*
X59010Y18490D01*
Y38990D01*
X54000Y44000D01*
G01X63500Y-22000D02*
Y-28260D01*
G01X76000Y-22000D02*
Y-28260D01*
G01X86000Y-22000D02*
Y-28260D01*
G01X82500Y12500D02*
X68990Y26010D01*
Y39010D01*
X64000Y44000D01*
G01X96000Y-22000D02*
Y-28260D01*
M02*
