G04 ================== begin FILE IDENTIFICATION RECORD ==================*
G04 Layout Name:  D:/temp_desktop/Graduate/Design/Hardware/scheme/base/PCB/base.brd*
G04 Film Name:    PASTEBOTTOM*
G04 File Format:  Gerber RS274X*
G04 File Origin:  Cadence Allegro 17.4-S016*
G04 Origin Date:  Thu Apr 15 10:40:24 2021*
G04 *
G04 Layer:  PIN/PASTEMASK_BOTTOM*
G04 Layer:  PACKAGE GEOMETRY/PASTEMASK_BOTTOM*
G04 Layer:  BOARD GEOMETRY/DESIGN_OUTLINE*
G04 *
G04 Offset:    (0.0 0.0)*
G04 Mirror:    No*
G04 Mode:      Positive*
G04 Rotation:  0*
G04 FullContactRelief:  No*
G04 UndefLineWidth:     6.0*
G04 ================== end FILE IDENTIFICATION RECORD ====================*
%FSLAX55Y55*MOIN*%
%IR0*IPPOS*OFA0.00000B0.00000*MIA0B0*SFA1.00000B1.00000*%
%ADD10R,.0551X.0404*%
%ADD11C,.006*%
G75*
%LPD*%
G75*
G54D10*
X-92500Y-21260D03*
Y-28740D03*
X-49000Y-35740D03*
Y-28260D03*
X-39000Y-35740D03*
Y-28260D03*
X-29000Y-35740D03*
Y-28260D03*
X-50990Y-9740D03*
X-40990D03*
X-30990D03*
X-50990Y-2260D03*
X-40990D03*
X-30990D03*
X-19000Y-35740D03*
Y-28260D03*
X-9000Y-35740D03*
Y-28260D03*
X1000Y-35740D03*
Y-28260D03*
X-20990Y-9740D03*
X-10990D03*
X-990D03*
X-20990Y-2260D03*
X-10990D03*
X-990D03*
X11000Y-35740D03*
Y-28260D03*
X21000Y-35740D03*
Y-28260D03*
X31000Y-35740D03*
Y-28260D03*
X9010Y-9740D03*
X19010D03*
X29010D03*
X9010Y-2260D03*
X19010D03*
X29010D03*
X43500Y-35740D03*
Y-28260D03*
X53500Y-35740D03*
Y-28260D03*
X39010Y-9740D03*
X49010D03*
X59010D03*
X39010Y-2260D03*
X49010D03*
X59010D03*
X63500Y-35740D03*
Y-28260D03*
X76000Y-35740D03*
Y-28260D03*
X86000Y-35740D03*
Y-28260D03*
X96000Y-35740D03*
Y-28260D03*
G54D11*
G01X-112210Y-59060D02*
X112210D01*
G03X118110Y-53160I0J5900D01*
G01Y53160D01*
G03X112210Y59060I-5900J0D01*
G01X-112210D01*
G03X-118110Y53160I0J-5900D01*
G01Y-53160D01*
G03X-112210Y-59060I5900J0D01*
M02*
