G04 ================== begin FILE IDENTIFICATION RECORD ==================*
G04 Layout Name:  D:/temp_desktop/Graduate/Design/Hardware/scheme/base/PCB/base.brd*
G04 Film Name:    SILKBOTTOM*
G04 File Format:  Gerber RS274X*
G04 File Origin:  Cadence Allegro 17.4-S016*
G04 Origin Date:  Thu Apr 15 10:40:24 2021*
G04 *
G04 Layer:  REF DES/SILKSCREEN_BOTTOM*
G04 Layer:  PACKAGE GEOMETRY/SILKSCREEN_BOTTOM*
G04 Layer:  BOARD GEOMETRY/SILKSCREEN_BOTTOM*
G04 Layer:  BOARD GEOMETRY/DESIGN_OUTLINE*
G04 *
G04 Offset:    (0.0 0.0)*
G04 Mirror:    No*
G04 Mode:      Positive*
G04 Rotation:  0*
G04 FullContactRelief:  No*
G04 UndefLineWidth:     6.0*
G04 ================== end FILE IDENTIFICATION RECORD ====================*
%FSLAX55Y55*MOIN*%
%IR0*IPPOS*OFA0.00000B0.00000*MIA0B0*SFA1.00000B1.00000*%
%ADD10C,.0079*%
%ADD11C,.006*%
G75*
%LPD*%
G75*
G54D10*
G01X-94960Y-25340D02*
Y-24660D01*
G01X-90040Y-25340D02*
Y-24660D01*
G01X-46540Y-31660D02*
Y-32340D01*
G01X-51460Y-31660D02*
Y-32340D01*
G01X-36540Y-31660D02*
Y-32340D01*
G01X-41460Y-31660D02*
Y-32340D01*
G01X-31460Y-31660D02*
Y-32340D01*
G01X-48530Y-5660D02*
Y-6340D01*
G01X-53450Y-5660D02*
Y-6340D01*
G01X-38530Y-5660D02*
Y-6340D01*
G01X-43450Y-5660D02*
Y-6340D01*
G01X-33450Y-5660D02*
Y-6340D01*
G01X-26540Y-31660D02*
Y-32340D01*
G01X-16540Y-31660D02*
Y-32340D01*
G01X-21460Y-31660D02*
Y-32340D01*
G01X-6540Y-31660D02*
Y-32340D01*
G01X-11460Y-31660D02*
Y-32340D01*
G01X-1460Y-31660D02*
Y-32340D01*
G01X-28530Y-5660D02*
Y-6340D01*
G01X-18530Y-5660D02*
Y-6340D01*
G01X-23450Y-5660D02*
Y-6340D01*
G01X-8530Y-5660D02*
Y-6340D01*
G01X-13450Y-5660D02*
Y-6340D01*
G01X-3450Y-5660D02*
Y-6340D01*
G01X3460Y-31660D02*
Y-32340D01*
G01X13460Y-31660D02*
Y-32340D01*
G01X8540Y-31660D02*
Y-32340D01*
G01X23460Y-31660D02*
Y-32340D01*
G01X18540Y-31660D02*
Y-32340D01*
G01X28540Y-31660D02*
Y-32340D01*
G01X1470Y-5660D02*
Y-6340D01*
G01X11470Y-5660D02*
Y-6340D01*
G01X6550Y-5660D02*
Y-6340D01*
G01X21470Y-5660D02*
Y-6340D01*
G01X16550Y-5660D02*
Y-6340D01*
G01X26550Y-5660D02*
Y-6340D01*
G01X33460Y-31660D02*
Y-32340D01*
G01X45960Y-31660D02*
Y-32340D01*
G01X41040Y-31660D02*
Y-32340D01*
G01X55960Y-31660D02*
Y-32340D01*
G01X51040Y-31660D02*
Y-32340D01*
G01X31470Y-5660D02*
Y-6340D01*
G01X41470Y-5660D02*
Y-6340D01*
G01X36550Y-5660D02*
Y-6340D01*
G01X51470Y-5660D02*
Y-6340D01*
G01X46550Y-5660D02*
Y-6340D01*
G01X56550Y-5660D02*
Y-6340D01*
G01X65960Y-31660D02*
Y-32340D01*
G01X61040Y-31660D02*
Y-32340D01*
G01X78460Y-31660D02*
Y-32340D01*
G01X73540Y-31660D02*
Y-32340D01*
G01X88460Y-31660D02*
Y-32340D01*
G01X83540Y-31660D02*
Y-32340D01*
G01X61470Y-5660D02*
Y-6340D01*
G01X98460Y-31660D02*
Y-32340D01*
G01X93540Y-31660D02*
Y-32340D01*
G54D11*
G01X-112210Y-59060D02*
X112210D01*
G03X118110Y-53160I0J5900D01*
G01Y53160D01*
G03X112210Y59060I-5900J0D01*
G01X-112210D01*
G03X-118110Y53160I0J-5900D01*
G01Y-53160D01*
G03X-112210Y-59060I5900J0D01*
G01X-88960Y-31370D02*
X-83960D01*
Y-29780D01*
X-84210Y-29280D01*
X-84540Y-28960D01*
X-85210Y-28830D01*
X-85880Y-28960D01*
X-86290Y-29340D01*
X-86540Y-29780D01*
Y-31370D01*
G01Y-29780D02*
X-88960Y-28830D01*
G01X-84790Y-26200D02*
X-84290Y-25820D01*
X-84040Y-25380D01*
X-83960Y-24870D01*
X-84130Y-24240D01*
X-84540Y-23800D01*
X-85040Y-23670D01*
X-85540Y-23730D01*
X-85960Y-23990D01*
X-86790Y-25250D01*
X-87380Y-25820D01*
X-88210Y-26200D01*
X-88960Y-26330D01*
Y-23670D01*
G01Y-19900D02*
X-88880Y-19460D01*
X-88630Y-18950D01*
X-88210Y-18630D01*
X-87630Y-18510D01*
X-87040Y-18630D01*
X-86540Y-19010D01*
X-86290Y-19580D01*
Y-20220D01*
X-86130Y-20600D01*
X-85710Y-20910D01*
X-85130Y-21040D01*
X-84540Y-20850D01*
X-84130Y-20410D01*
X-83960Y-19900D01*
X-84130Y-19390D01*
X-84540Y-18950D01*
X-85130Y-18760D01*
X-85710Y-18890D01*
X-86130Y-19200D01*
X-86290Y-19580D01*
Y-20220D01*
X-86540Y-20790D01*
X-87040Y-21170D01*
X-87630Y-21290D01*
X-88210Y-21170D01*
X-88630Y-20850D01*
X-88880Y-20340D01*
X-88960Y-19900D01*
G01X-52540Y-28180D02*
X-57540D01*
Y-29770D01*
X-57290Y-30270D01*
X-56960Y-30590D01*
X-56290Y-30720D01*
X-55620Y-30590D01*
X-55210Y-30210D01*
X-54960Y-29770D01*
Y-28180D01*
G01Y-29770D02*
X-52540Y-30720D01*
G01Y-34550D02*
X-57540D01*
X-56540Y-33790D01*
G01X-52540D02*
Y-35310D01*
G01X-42540Y-28180D02*
X-47540D01*
Y-29770D01*
X-47290Y-30270D01*
X-46960Y-30590D01*
X-46290Y-30720D01*
X-45620Y-30590D01*
X-45210Y-30210D01*
X-44960Y-29770D01*
Y-28180D01*
G01Y-29770D02*
X-42540Y-30720D01*
G01X-46710Y-33350D02*
X-47210Y-33730D01*
X-47460Y-34170D01*
X-47540Y-34680D01*
X-47370Y-35310D01*
X-46960Y-35750D01*
X-46460Y-35880D01*
X-45960Y-35820D01*
X-45540Y-35560D01*
X-44710Y-34300D01*
X-44120Y-33730D01*
X-43290Y-33350D01*
X-42540Y-33220D01*
Y-35880D01*
G01X-32540Y-28180D02*
X-37540D01*
Y-29770D01*
X-37290Y-30270D01*
X-36960Y-30590D01*
X-36290Y-30720D01*
X-35620Y-30590D01*
X-35210Y-30210D01*
X-34960Y-29770D01*
Y-28180D01*
G01Y-29770D02*
X-32540Y-30720D01*
G01X-33540Y-33160D02*
X-32960Y-33540D01*
X-32620Y-34040D01*
X-32540Y-34610D01*
X-32620Y-35120D01*
X-33040Y-35630D01*
X-33540Y-35940D01*
X-34040Y-36010D01*
X-34620Y-35880D01*
X-35040Y-35440D01*
X-35210Y-34990D01*
Y-34420D01*
G01Y-34990D02*
X-35460Y-35370D01*
X-35870Y-35690D01*
X-36370Y-35820D01*
X-36870Y-35690D01*
X-37290Y-35370D01*
X-37540Y-34800D01*
X-37460Y-34230D01*
X-37120Y-33660D01*
G01X-54530Y370D02*
X-59530D01*
Y-1220D01*
X-59280Y-1720D01*
X-58950Y-2040D01*
X-58280Y-2170D01*
X-57610Y-2040D01*
X-57200Y-1660D01*
X-56950Y-1220D01*
Y370D01*
G01Y-1220D02*
X-54530Y-2170D01*
G01Y-6000D02*
X-59530D01*
X-58530Y-5240D01*
G01X-54530D02*
Y-6760D01*
G01X-56610Y-9900D02*
X-57200Y-10340D01*
X-57530Y-10720D01*
X-57700Y-11230D01*
X-57530Y-11670D01*
X-57200Y-11990D01*
X-56700Y-12240D01*
X-56110Y-12300D01*
X-55610Y-12240D01*
X-55110Y-11990D01*
X-54700Y-11610D01*
X-54530Y-11160D01*
X-54700Y-10660D01*
X-55200Y-10210D01*
X-55950Y-9960D01*
X-56780Y-9900D01*
X-57860Y-10020D01*
X-58450Y-10210D01*
X-59030Y-10530D01*
X-59450Y-10970D01*
X-59530Y-11420D01*
X-59360Y-11860D01*
X-58950Y-12180D01*
G01X-44530Y370D02*
X-49530D01*
Y-1220D01*
X-49280Y-1720D01*
X-48950Y-2040D01*
X-48280Y-2170D01*
X-47610Y-2040D01*
X-47200Y-1660D01*
X-46950Y-1220D01*
Y370D01*
G01Y-1220D02*
X-44530Y-2170D01*
G01Y-6000D02*
X-49530D01*
X-48530Y-5240D01*
G01X-44530D02*
Y-6760D01*
G01Y-10970D02*
X-45610Y-11100D01*
X-46530Y-11290D01*
X-47360Y-11540D01*
X-48280Y-11860D01*
X-49530Y-12370D01*
Y-9830D01*
G01X-34530Y370D02*
X-39530D01*
Y-1220D01*
X-39280Y-1720D01*
X-38950Y-2040D01*
X-38280Y-2170D01*
X-37610Y-2040D01*
X-37200Y-1660D01*
X-36950Y-1220D01*
Y370D01*
G01Y-1220D02*
X-34530Y-2170D01*
G01Y-6000D02*
X-39530D01*
X-38530Y-5240D01*
G01X-34530D02*
Y-6760D01*
G01Y-11100D02*
X-34610Y-11540D01*
X-34860Y-12050D01*
X-35280Y-12370D01*
X-35860Y-12490D01*
X-36450Y-12370D01*
X-36950Y-11990D01*
X-37200Y-11420D01*
Y-10780D01*
X-37360Y-10400D01*
X-37780Y-10090D01*
X-38360Y-9960D01*
X-38950Y-10150D01*
X-39360Y-10590D01*
X-39530Y-11100D01*
X-39360Y-11610D01*
X-38950Y-12050D01*
X-38360Y-12240D01*
X-37780Y-12110D01*
X-37360Y-11800D01*
X-37200Y-11420D01*
Y-10780D01*
X-36950Y-10210D01*
X-36450Y-9830D01*
X-35860Y-9710D01*
X-35280Y-9830D01*
X-34860Y-10150D01*
X-34610Y-10660D01*
X-34530Y-11100D01*
G01X-22540Y-28180D02*
X-27540D01*
Y-29770D01*
X-27290Y-30270D01*
X-26960Y-30590D01*
X-26290Y-30720D01*
X-25620Y-30590D01*
X-25210Y-30210D01*
X-24960Y-29770D01*
Y-28180D01*
G01Y-29770D02*
X-22540Y-30720D01*
G01Y-35310D02*
X-27540D01*
X-23960Y-32970D01*
Y-36130D01*
G01X-12540Y-28180D02*
X-17540D01*
Y-29770D01*
X-17290Y-30270D01*
X-16960Y-30590D01*
X-16290Y-30720D01*
X-15620Y-30590D01*
X-15210Y-30210D01*
X-14960Y-29770D01*
Y-28180D01*
G01Y-29770D02*
X-12540Y-30720D01*
G01X-13290Y-33160D02*
X-12870Y-33540D01*
X-12620Y-33980D01*
X-12540Y-34550D01*
X-12710Y-35120D01*
X-13040Y-35560D01*
X-13620Y-35880D01*
X-14290Y-35940D01*
X-14960Y-35820D01*
X-15370Y-35500D01*
X-15710Y-35060D01*
X-15790Y-34610D01*
X-15710Y-34170D01*
X-15370Y-33600D01*
X-17540Y-33790D01*
Y-35500D01*
G01X-2540Y-28180D02*
X-7540D01*
Y-29770D01*
X-7290Y-30270D01*
X-6960Y-30590D01*
X-6290Y-30720D01*
X-5620Y-30590D01*
X-5210Y-30210D01*
X-4960Y-29770D01*
Y-28180D01*
G01Y-29770D02*
X-2540Y-30720D01*
G01X-4620Y-33350D02*
X-5210Y-33790D01*
X-5540Y-34170D01*
X-5710Y-34680D01*
X-5540Y-35120D01*
X-5210Y-35440D01*
X-4710Y-35690D01*
X-4120Y-35750D01*
X-3620Y-35690D01*
X-3120Y-35440D01*
X-2710Y-35060D01*
X-2540Y-34610D01*
X-2710Y-34110D01*
X-3210Y-33660D01*
X-3960Y-33410D01*
X-4790Y-33350D01*
X-5870Y-33470D01*
X-6460Y-33660D01*
X-7040Y-33980D01*
X-7460Y-34420D01*
X-7540Y-34870D01*
X-7370Y-35310D01*
X-6960Y-35630D01*
G01X-24530Y370D02*
X-29530D01*
Y-1220D01*
X-29280Y-1720D01*
X-28950Y-2040D01*
X-28280Y-2170D01*
X-27610Y-2040D01*
X-27200Y-1660D01*
X-26950Y-1220D01*
Y370D01*
G01Y-1220D02*
X-24530Y-2170D01*
G01Y-6000D02*
X-29530D01*
X-28530Y-5240D01*
G01X-24530D02*
Y-6760D01*
G01X-25110Y-10020D02*
X-24700Y-10470D01*
X-24530Y-10970D01*
X-24700Y-11480D01*
X-25200Y-11920D01*
X-25950Y-12240D01*
X-26700Y-12370D01*
X-27610D01*
X-28360Y-12240D01*
X-29030Y-11920D01*
X-29360Y-11540D01*
X-29530Y-11100D01*
X-29360Y-10590D01*
X-29030Y-10210D01*
X-28530Y-9960D01*
X-27860Y-9830D01*
X-27280Y-9960D01*
X-26700Y-10280D01*
X-26360Y-10660D01*
X-26280Y-11100D01*
X-26450Y-11610D01*
X-26860Y-11990D01*
X-27610Y-12370D01*
G01X-14530Y370D02*
X-19530D01*
Y-1220D01*
X-19280Y-1720D01*
X-18950Y-2040D01*
X-18280Y-2170D01*
X-17610Y-2040D01*
X-17200Y-1660D01*
X-16950Y-1220D01*
Y370D01*
G01Y-1220D02*
X-14530Y-2170D01*
G01X-18700Y-4800D02*
X-19200Y-5180D01*
X-19450Y-5620D01*
X-19530Y-6130D01*
X-19360Y-6760D01*
X-18950Y-7200D01*
X-18450Y-7330D01*
X-17950Y-7270D01*
X-17530Y-7010D01*
X-16700Y-5750D01*
X-16110Y-5180D01*
X-15280Y-4800D01*
X-14530Y-4670D01*
Y-7330D01*
G01X-19530Y-11100D02*
X-19360Y-10590D01*
X-18950Y-10210D01*
X-18450Y-9960D01*
X-17780Y-9770D01*
X-17030Y-9710D01*
X-16280Y-9770D01*
X-15610Y-9960D01*
X-15110Y-10210D01*
X-14700Y-10590D01*
X-14530Y-11100D01*
X-14700Y-11610D01*
X-15110Y-11990D01*
X-15610Y-12240D01*
X-16280Y-12430D01*
X-17030Y-12490D01*
X-17780Y-12430D01*
X-18450Y-12240D01*
X-18950Y-11990D01*
X-19360Y-11610D01*
X-19530Y-11100D01*
G01X-4530Y370D02*
X-9530D01*
Y-1220D01*
X-9280Y-1720D01*
X-8950Y-2040D01*
X-8280Y-2170D01*
X-7610Y-2040D01*
X-7200Y-1660D01*
X-6950Y-1220D01*
Y370D01*
G01Y-1220D02*
X-4530Y-2170D01*
G01X-8700Y-4800D02*
X-9200Y-5180D01*
X-9450Y-5620D01*
X-9530Y-6130D01*
X-9360Y-6760D01*
X-8950Y-7200D01*
X-8450Y-7330D01*
X-7950Y-7270D01*
X-7530Y-7010D01*
X-6700Y-5750D01*
X-6110Y-5180D01*
X-5280Y-4800D01*
X-4530Y-4670D01*
Y-7330D01*
G01Y-11100D02*
X-9530D01*
X-8530Y-10340D01*
G01X-4530D02*
Y-11860D01*
G01X7460Y-28180D02*
X2460D01*
Y-29770D01*
X2710Y-30270D01*
X3040Y-30590D01*
X3710Y-30720D01*
X4380Y-30590D01*
X4790Y-30210D01*
X5040Y-29770D01*
Y-28180D01*
G01Y-29770D02*
X7460Y-30720D01*
G01Y-34420D02*
X6380Y-34550D01*
X5460Y-34740D01*
X4630Y-34990D01*
X3710Y-35310D01*
X2460Y-35820D01*
Y-33280D01*
G01X17460Y-28180D02*
X12460D01*
Y-29770D01*
X12710Y-30270D01*
X13040Y-30590D01*
X13710Y-30720D01*
X14380Y-30590D01*
X14790Y-30210D01*
X15040Y-29770D01*
Y-28180D01*
G01Y-29770D02*
X17460Y-30720D01*
G01Y-34550D02*
X17380Y-34990D01*
X17130Y-35500D01*
X16710Y-35820D01*
X16130Y-35940D01*
X15540Y-35820D01*
X15040Y-35440D01*
X14790Y-34870D01*
Y-34230D01*
X14630Y-33850D01*
X14210Y-33540D01*
X13630Y-33410D01*
X13040Y-33600D01*
X12630Y-34040D01*
X12460Y-34550D01*
X12630Y-35060D01*
X13040Y-35500D01*
X13630Y-35690D01*
X14210Y-35560D01*
X14630Y-35250D01*
X14790Y-34870D01*
Y-34230D01*
X15040Y-33660D01*
X15540Y-33280D01*
X16130Y-33160D01*
X16710Y-33280D01*
X17130Y-33600D01*
X17380Y-34110D01*
X17460Y-34550D01*
G01X27460Y-28180D02*
X22460D01*
Y-29770D01*
X22710Y-30270D01*
X23040Y-30590D01*
X23710Y-30720D01*
X24380Y-30590D01*
X24790Y-30210D01*
X25040Y-29770D01*
Y-28180D01*
G01Y-29770D02*
X27460Y-30720D01*
G01X26880Y-33470D02*
X27290Y-33920D01*
X27460Y-34420D01*
X27290Y-34930D01*
X26790Y-35370D01*
X26040Y-35690D01*
X25290Y-35820D01*
X24380D01*
X23630Y-35690D01*
X22960Y-35370D01*
X22630Y-34990D01*
X22460Y-34550D01*
X22630Y-34040D01*
X22960Y-33660D01*
X23460Y-33410D01*
X24130Y-33280D01*
X24710Y-33410D01*
X25290Y-33730D01*
X25630Y-34110D01*
X25710Y-34550D01*
X25540Y-35060D01*
X25130Y-35440D01*
X24380Y-35820D01*
G01X5470Y370D02*
X470D01*
Y-1220D01*
X720Y-1720D01*
X1050Y-2040D01*
X1720Y-2170D01*
X2390Y-2040D01*
X2800Y-1660D01*
X3050Y-1220D01*
Y370D01*
G01Y-1220D02*
X5470Y-2170D01*
G01X1300Y-4800D02*
X800Y-5180D01*
X550Y-5620D01*
X470Y-6130D01*
X640Y-6760D01*
X1050Y-7200D01*
X1550Y-7330D01*
X2050Y-7270D01*
X2470Y-7010D01*
X3300Y-5750D01*
X3890Y-5180D01*
X4720Y-4800D01*
X5470Y-4670D01*
Y-7330D01*
G01X1300Y-9900D02*
X800Y-10280D01*
X550Y-10720D01*
X470Y-11230D01*
X640Y-11860D01*
X1050Y-12300D01*
X1550Y-12430D01*
X2050Y-12370D01*
X2470Y-12110D01*
X3300Y-10850D01*
X3890Y-10280D01*
X4720Y-9900D01*
X5470Y-9770D01*
Y-12430D01*
G01X15470Y370D02*
X10470D01*
Y-1220D01*
X10720Y-1720D01*
X11050Y-2040D01*
X11720Y-2170D01*
X12390Y-2040D01*
X12800Y-1660D01*
X13050Y-1220D01*
Y370D01*
G01Y-1220D02*
X15470Y-2170D01*
G01X11300Y-4800D02*
X10800Y-5180D01*
X10550Y-5620D01*
X10470Y-6130D01*
X10640Y-6760D01*
X11050Y-7200D01*
X11550Y-7330D01*
X12050Y-7270D01*
X12470Y-7010D01*
X13300Y-5750D01*
X13890Y-5180D01*
X14720Y-4800D01*
X15470Y-4670D01*
Y-7330D01*
G01X14470Y-9710D02*
X15050Y-10090D01*
X15390Y-10590D01*
X15470Y-11160D01*
X15390Y-11670D01*
X14970Y-12180D01*
X14470Y-12490D01*
X13970Y-12560D01*
X13390Y-12430D01*
X12970Y-11990D01*
X12800Y-11540D01*
Y-10970D01*
G01Y-11540D02*
X12550Y-11920D01*
X12140Y-12240D01*
X11640Y-12370D01*
X11140Y-12240D01*
X10720Y-11920D01*
X10470Y-11350D01*
X10550Y-10780D01*
X10890Y-10210D01*
G01X25470Y370D02*
X20470D01*
Y-1220D01*
X20720Y-1720D01*
X21050Y-2040D01*
X21720Y-2170D01*
X22390Y-2040D01*
X22800Y-1660D01*
X23050Y-1220D01*
Y370D01*
G01Y-1220D02*
X25470Y-2170D01*
G01X21300Y-4800D02*
X20800Y-5180D01*
X20550Y-5620D01*
X20470Y-6130D01*
X20640Y-6760D01*
X21050Y-7200D01*
X21550Y-7330D01*
X22050Y-7270D01*
X22470Y-7010D01*
X23300Y-5750D01*
X23890Y-5180D01*
X24720Y-4800D01*
X25470Y-4670D01*
Y-7330D01*
G01Y-11860D02*
X20470D01*
X24050Y-9520D01*
Y-12680D01*
G01X39960Y-25630D02*
X34960D01*
Y-27220D01*
X35210Y-27720D01*
X35540Y-28040D01*
X36210Y-28170D01*
X36880Y-28040D01*
X37290Y-27660D01*
X37540Y-27220D01*
Y-25630D01*
G01Y-27220D02*
X39960Y-28170D01*
G01Y-32000D02*
X34960D01*
X35960Y-31240D01*
G01X39960D02*
Y-32760D01*
G01X34960Y-37100D02*
X35130Y-36590D01*
X35540Y-36210D01*
X36040Y-35960D01*
X36710Y-35770D01*
X37460Y-35710D01*
X38210Y-35770D01*
X38880Y-35960D01*
X39380Y-36210D01*
X39790Y-36590D01*
X39960Y-37100D01*
X39790Y-37610D01*
X39380Y-37990D01*
X38880Y-38240D01*
X38210Y-38430D01*
X37460Y-38490D01*
X36710Y-38430D01*
X36040Y-38240D01*
X35540Y-37990D01*
X35130Y-37610D01*
X34960Y-37100D01*
G01X49960Y-25630D02*
X44960D01*
Y-27220D01*
X45210Y-27720D01*
X45540Y-28040D01*
X46210Y-28170D01*
X46880Y-28040D01*
X47290Y-27660D01*
X47540Y-27220D01*
Y-25630D01*
G01Y-27220D02*
X49960Y-28170D01*
G01Y-32000D02*
X44960D01*
X45960Y-31240D01*
G01X49960D02*
Y-32760D01*
G01Y-37100D02*
X44960D01*
X45960Y-36340D01*
G01X49960D02*
Y-37860D01*
G01X59960Y-25630D02*
X54960D01*
Y-27220D01*
X55210Y-27720D01*
X55540Y-28040D01*
X56210Y-28170D01*
X56880Y-28040D01*
X57290Y-27660D01*
X57540Y-27220D01*
Y-25630D01*
G01Y-27220D02*
X59960Y-28170D01*
G01Y-32000D02*
X54960D01*
X55960Y-31240D01*
G01X59960D02*
Y-32760D01*
G01X55790Y-35900D02*
X55290Y-36280D01*
X55040Y-36720D01*
X54960Y-37230D01*
X55130Y-37860D01*
X55540Y-38300D01*
X56040Y-38430D01*
X56540Y-38370D01*
X56960Y-38110D01*
X57790Y-36850D01*
X58380Y-36280D01*
X59210Y-35900D01*
X59960Y-35770D01*
Y-38430D01*
G01X35470Y370D02*
X30470D01*
Y-1220D01*
X30720Y-1720D01*
X31050Y-2040D01*
X31720Y-2170D01*
X32390Y-2040D01*
X32800Y-1660D01*
X33050Y-1220D01*
Y370D01*
G01Y-1220D02*
X35470Y-2170D01*
G01X31300Y-4800D02*
X30800Y-5180D01*
X30550Y-5620D01*
X30470Y-6130D01*
X30640Y-6760D01*
X31050Y-7200D01*
X31550Y-7330D01*
X32050Y-7270D01*
X32470Y-7010D01*
X33300Y-5750D01*
X33890Y-5180D01*
X34720Y-4800D01*
X35470Y-4670D01*
Y-7330D01*
G01X34720Y-9710D02*
X35140Y-10090D01*
X35390Y-10530D01*
X35470Y-11100D01*
X35300Y-11670D01*
X34970Y-12110D01*
X34390Y-12430D01*
X33720Y-12490D01*
X33050Y-12370D01*
X32640Y-12050D01*
X32300Y-11610D01*
X32220Y-11160D01*
X32300Y-10720D01*
X32640Y-10150D01*
X30470Y-10340D01*
Y-12050D01*
G01X45470Y370D02*
X40470D01*
Y-1220D01*
X40720Y-1720D01*
X41050Y-2040D01*
X41720Y-2170D01*
X42390Y-2040D01*
X42800Y-1660D01*
X43050Y-1220D01*
Y370D01*
G01Y-1220D02*
X45470Y-2170D01*
G01X41300Y-4800D02*
X40800Y-5180D01*
X40550Y-5620D01*
X40470Y-6130D01*
X40640Y-6760D01*
X41050Y-7200D01*
X41550Y-7330D01*
X42050Y-7270D01*
X42470Y-7010D01*
X43300Y-5750D01*
X43890Y-5180D01*
X44720Y-4800D01*
X45470Y-4670D01*
Y-7330D01*
G01X43390Y-9900D02*
X42800Y-10340D01*
X42470Y-10720D01*
X42300Y-11230D01*
X42470Y-11670D01*
X42800Y-11990D01*
X43300Y-12240D01*
X43890Y-12300D01*
X44390Y-12240D01*
X44890Y-11990D01*
X45300Y-11610D01*
X45470Y-11160D01*
X45300Y-10660D01*
X44800Y-10210D01*
X44050Y-9960D01*
X43220Y-9900D01*
X42140Y-10020D01*
X41550Y-10210D01*
X40970Y-10530D01*
X40550Y-10970D01*
X40470Y-11420D01*
X40640Y-11860D01*
X41050Y-12180D01*
G01X55470Y370D02*
X50470D01*
Y-1220D01*
X50720Y-1720D01*
X51050Y-2040D01*
X51720Y-2170D01*
X52390Y-2040D01*
X52800Y-1660D01*
X53050Y-1220D01*
Y370D01*
G01Y-1220D02*
X55470Y-2170D01*
G01X51300Y-4800D02*
X50800Y-5180D01*
X50550Y-5620D01*
X50470Y-6130D01*
X50640Y-6760D01*
X51050Y-7200D01*
X51550Y-7330D01*
X52050Y-7270D01*
X52470Y-7010D01*
X53300Y-5750D01*
X53890Y-5180D01*
X54720Y-4800D01*
X55470Y-4670D01*
Y-7330D01*
G01Y-10970D02*
X54390Y-11100D01*
X53470Y-11290D01*
X52640Y-11540D01*
X51720Y-11860D01*
X50470Y-12370D01*
Y-9830D01*
G01X72460Y-25630D02*
X67460D01*
Y-27220D01*
X67710Y-27720D01*
X68040Y-28040D01*
X68710Y-28170D01*
X69380Y-28040D01*
X69790Y-27660D01*
X70040Y-27220D01*
Y-25630D01*
G01Y-27220D02*
X72460Y-28170D01*
G01Y-32000D02*
X67460D01*
X68460Y-31240D01*
G01X72460D02*
Y-32760D01*
G01X71460Y-35710D02*
X72040Y-36090D01*
X72380Y-36590D01*
X72460Y-37160D01*
X72380Y-37670D01*
X71960Y-38180D01*
X71460Y-38490D01*
X70960Y-38560D01*
X70380Y-38430D01*
X69960Y-37990D01*
X69790Y-37540D01*
Y-36970D01*
G01Y-37540D02*
X69540Y-37920D01*
X69130Y-38240D01*
X68630Y-38370D01*
X68130Y-38240D01*
X67710Y-37920D01*
X67460Y-37350D01*
X67540Y-36780D01*
X67880Y-36210D01*
G01X82460Y-25630D02*
X77460D01*
Y-27220D01*
X77710Y-27720D01*
X78040Y-28040D01*
X78710Y-28170D01*
X79380Y-28040D01*
X79790Y-27660D01*
X80040Y-27220D01*
Y-25630D01*
G01Y-27220D02*
X82460Y-28170D01*
G01Y-32000D02*
X77460D01*
X78460Y-31240D01*
G01X82460D02*
Y-32760D01*
G01Y-37860D02*
X77460D01*
X81040Y-35520D01*
Y-38680D01*
G01X92460Y-25630D02*
X87460D01*
Y-27220D01*
X87710Y-27720D01*
X88040Y-28040D01*
X88710Y-28170D01*
X89380Y-28040D01*
X89790Y-27660D01*
X90040Y-27220D01*
Y-25630D01*
G01Y-27220D02*
X92460Y-28170D01*
G01Y-32000D02*
X87460D01*
X88460Y-31240D01*
G01X92460D02*
Y-32760D01*
G01X91710Y-35710D02*
X92130Y-36090D01*
X92380Y-36530D01*
X92460Y-37100D01*
X92290Y-37670D01*
X91960Y-38110D01*
X91380Y-38430D01*
X90710Y-38490D01*
X90040Y-38370D01*
X89630Y-38050D01*
X89290Y-37610D01*
X89210Y-37160D01*
X89290Y-36720D01*
X89630Y-36150D01*
X87460Y-36340D01*
Y-38050D01*
M02*
