G04 ================== begin FILE IDENTIFICATION RECORD ==================*
G04 Layout Name:  D:/temp_desktop/Graduate/Design/Hardware/scheme/base/PCB/base.brd*
G04 Film Name:    TOP*
G04 File Format:  Gerber RS274X*
G04 File Origin:  Cadence Allegro 17.4-S016*
G04 Origin Date:  Thu Apr 15 10:41:56 2021*
G04 *
G04 Layer:  BOARD GEOMETRY/DESIGN_OUTLINE*
G04 Layer:  ETCH/TOP*
G04 Layer:  PIN/TOP*
G04 Layer:  VIA CLASS/TOP*
G04 *
G04 Offset:    (0.0 0.0)*
G04 Mirror:    No*
G04 Mode:      Positive*
G04 Rotation:  0*
G04 FullContactRelief:  Yes*
G04 UndefLineWidth:     6.0*
G04 ================== end FILE IDENTIFICATION RECORD ====================*
%FSLAX55Y55*MOIN*%
%IR0*IPPOS*OFA0.00000B0.00000*MIA0B0*SFA1.00000B1.00000*%
%ADD16C,.02*%
%ADD15O,.0512X.0807*%
%ADD17R,.0551X.0335*%
%ADD14C,.0394*%
%ADD10C,.0538*%
%ADD12C,.0748*%
%ADD11R,.0538X.0538*%
%ADD13R,.0748X.0748*%
%ADD18C,.03*%
%ADD19C,.006*%
%ADD20C,.015*%
G75*
%LPD*%
G75*
G36*
G01X-112210Y57020D02*
X112210D01*
G02X116070Y53160I0J-3860D01*
G01Y-53160D01*
G02X112210Y-57020I-3860J0D01*
G01X-112210D01*
G02X-116070Y-53160I0J3860D01*
G01Y53160D01*
G02X-112210Y57020I3860J0D01*
G37*
%LPC*%
G75*
G36*
G01X81910Y-45220D02*
G02X90090I4090J-2035D01*
G01X91910D01*
G02X100570Y-47260I4090J-2037D01*
G01Y-50200D01*
G02X91910Y-52240I-4570J-3D01*
G01X90090D01*
G02X81910I-4090J2035D01*
G01X80090D01*
G02X71910I-4090J2035D01*
G01X67590D01*
G02X59410I-4090J2035D01*
G01X57590D01*
G02X49410I-4090J2035D01*
G01X47590D01*
G02X39410I-4090J2035D01*
G01X35090D01*
G02X26910I-4090J2035D01*
G01X25090D01*
G02X16910I-4090J2035D01*
G01X15090D01*
G02X6910I-4090J2035D01*
G01X5090D01*
G02X-3090I-4090J2035D01*
G01X-4910D01*
G02X-13090I-4090J2035D01*
G01X-14910D01*
G02X-23090I-4090J2035D01*
G01X-24910D01*
G02X-33090I-4090J2035D01*
G01X-34910D01*
G02X-43090I-4090J2035D01*
G01X-44910D01*
G02X-53090I-4090J2035D01*
G01X-58770D01*
G02X-61130Y-51330I0J3515D01*
G02X-63990Y-47500I1134J3830D01*
G02X-60000Y-43510I3990J0D01*
G02X-56730Y-45220I0J-3982D01*
G01X-53090D01*
G02X-44910I4090J-2035D01*
G01X-43090D01*
G02X-34910I4090J-2035D01*
G01X-33090D01*
G02X-24910I4090J-2035D01*
G01X-23090D01*
G02X-14910I4090J-2035D01*
G01X-13090D01*
G02X-4910I4090J-2035D01*
G01X-3090D01*
G02X5090I4090J-2035D01*
G01X6910D01*
G02X15090I4090J-2035D01*
G01X16910D01*
G02X25090I4090J-2035D01*
G01X26910D01*
G02X35090I4090J-2035D01*
G01X39410D01*
G02X47590I4090J-2035D01*
G01X49410D01*
G02X57590I4090J-2035D01*
G01X59410D01*
G02X67590I4090J-2035D01*
G01X71910D01*
G02X80090I4090J-2035D01*
G01X81910D01*
G37*
G36*
G01X78680Y47360D02*
G03X79320I320J237D01*
G02X84000Y49760I4680J-3363D01*
G02X88680Y47360I0J-5763D01*
G03X89320I320J237D01*
G02X94000Y49760I4680J-3363D01*
G02X99760Y44000I0J-5760D01*
G02X97360Y39320I-5763J0D01*
G03Y38680I237J-320D01*
G02X99760Y34000I-3363J-4680D01*
G02X97510Y29430I-5766J0D01*
G01Y24990D01*
X100000Y22500D01*
Y-11580D01*
G02X100570Y-13800I-4001J-2210D01*
G01Y-16740D01*
G02X100020Y-18910I-4569J3D01*
G01X100000Y-18960D01*
Y-20000D01*
X98890Y-21110D01*
X98920Y-21220D01*
G02X99020Y-22000I-2921J-771D01*
G02X96000Y-25020I-3020J0D01*
G02X93050Y-22660I0J3024D01*
G01X93020Y-22500D01*
X88980D01*
X88950Y-22660D01*
G02X83050I-2950J664D01*
G01X83020Y-22500D01*
X78980D01*
X78950Y-22660D01*
G02X73050I-2950J664D01*
G01X73020Y-22500D01*
X66480D01*
X66450Y-22660D01*
G02X60550I-2950J664D01*
G01X60520Y-22500D01*
X56480D01*
X56450Y-22660D01*
G02X50550I-2950J664D01*
G01X50520Y-22500D01*
X46480D01*
X46450Y-22660D01*
G02X40550I-2950J664D01*
G01X40520Y-22500D01*
X33980D01*
X33950Y-22660D01*
G02X28050I-2950J664D01*
G01X28020Y-22500D01*
X23980D01*
X23950Y-22660D01*
G02X18050I-2950J664D01*
G01X18020Y-22500D01*
X13980D01*
X13950Y-22660D01*
G02X8050I-2950J664D01*
G01X8020Y-22500D01*
X3980D01*
X3950Y-22660D01*
G02X-1950I-2950J664D01*
G01X-1980Y-22500D01*
X-6020D01*
X-6050Y-22660D01*
G02X-11950I-2950J664D01*
G01X-11980Y-22500D01*
X-16020D01*
X-16050Y-22660D01*
G02X-21950I-2950J664D01*
G01X-21980Y-22500D01*
X-26020D01*
X-26050Y-22660D01*
G02X-31950I-2950J664D01*
G01X-31980Y-22500D01*
X-36020D01*
X-36050Y-22660D01*
G02X-41950I-2950J664D01*
G01X-41980Y-22500D01*
X-46020D01*
X-46050Y-22660D01*
G02X-51950I-2950J664D01*
G01X-51980Y-22500D01*
X-60000D01*
X-79250Y-41750D01*
G02X-77950Y-45000I-3413J-3250D01*
G02X-82660Y-49710I-4710J0D01*
G02X-87370Y-45190I0J4714D01*
G01Y-45000D01*
X-97630D01*
Y-45190D01*
G02X-102340Y-49710I-4710J194D01*
G02Y-40290I0J4710D01*
G02X-101690Y-40330I36J-4712D01*
G01X-101590Y-40350D01*
X-101050Y-39810D01*
X-101270Y-39590D01*
X-101370Y-39610D01*
G02X-102340Y-39710I-965J4610D01*
G02Y-30290I0J4710D01*
G02X-101690Y-30330I36J-4712D01*
G01X-101590Y-30350D01*
X-101050Y-29810D01*
X-101270Y-29590D01*
X-101370Y-29610D01*
G02X-102340Y-29710I-965J4610D01*
G02Y-20290I0J4710D01*
G02X-101690Y-20330I36J-4712D01*
G01X-101590Y-20350D01*
X-101290Y-20040D01*
G03X-101430Y-19700I-139J141D01*
G01X-105030D01*
G02X-107040Y-17690I0J2010D01*
G01Y-12310D01*
G02X-105030Y-10300I2010J0D01*
G01X-100260D01*
Y7500D01*
G02X-99450Y9450I2752J0D01*
G01X-83770Y25130D01*
Y28120D01*
G03X-84290Y28500I-400J-2D01*
G02X-86000Y28240I-1710J5493D01*
G02X-89770Y29640I-5J5762D01*
G03X-90400Y29490I-262J-299D01*
G02X-92260Y28250I-1860J775D01*
G01X-99740D01*
G02X-101750Y30260I0J2010D01*
G01Y37740D01*
G02X-100510Y39600I2015J0D01*
G03X-100360Y40230I-149J368D01*
G02X-101760Y44000I4362J3765D01*
G02X-96000Y49760I5760J0D01*
G02X-91320Y47360I0J-5763D01*
G03X-90680I320J237D01*
G02X-81320I4680J-3363D01*
G03X-80680I320J237D01*
G02X-71320I4680J-3363D01*
G03X-70680I320J237D01*
G02X-61320I4680J-3363D01*
G03X-60680I320J237D01*
G02X-51320I4680J-3363D01*
G03X-50680I320J237D01*
G02X-41320I4680J-3363D01*
G03X-40680I320J237D01*
G02X-31320I4680J-3363D01*
G03X-30680I320J237D01*
G02X-21320I4680J-3363D01*
G03X-20680I320J237D01*
G02X-11320I4680J-3363D01*
G03X-10680I320J237D01*
G02X-1320I4680J-3363D01*
G03X-680I320J237D01*
G02X8680I4680J-3363D01*
G03X9320I320J237D01*
G02X18680I4680J-3363D01*
G03X19320I320J237D01*
G02X28680I4680J-3363D01*
G03X29320I320J237D01*
G02X38680I4680J-3363D01*
G03X39320I320J237D01*
G02X48680I4680J-3363D01*
G03X49320I320J237D01*
G02X58680I4680J-3363D01*
G03X59320I320J237D01*
G02X68680I4680J-3363D01*
G03X69320I320J237D01*
G02X78680I4680J-3363D01*
G37*
%LPD*%
G75*
G54D10*
X-102340Y-45000D03*
Y-35000D03*
Y-25000D03*
X-82660Y-45000D03*
Y-15000D03*
Y-25000D03*
Y-35000D03*
G54D20*
G01X-66000Y44000D02*
X-70990Y39010D01*
Y24010D01*
X-86600Y8400D01*
Y-29260D01*
X-102340Y-45000D01*
G01Y-35000D02*
X-92500Y-25160D01*
Y7170D01*
X-76000Y23670D01*
Y34000D01*
G01X-102340Y-25000D02*
X-97500Y-20160D01*
Y7500D01*
X-81010Y23990D01*
Y38990D01*
X-76000Y44000D01*
G01X-46000Y34000D02*
Y-4400D01*
X-82660Y-41060D01*
Y-45000D01*
G01Y-25000D02*
X-60990Y-3330D01*
Y39010D01*
X-56000Y44000D01*
G01Y34000D02*
Y-8340D01*
X-82660Y-35000D01*
G01X-66000Y34000D02*
Y24000D01*
X-82660Y7340D01*
Y-15000D01*
G01X-49000Y-15270D02*
Y-22000D01*
G01X-36000Y34000D02*
Y-2270D01*
X-49000Y-15270D01*
G01X-39000D02*
Y-22000D01*
G01X-26000Y34000D02*
Y-790D01*
X-39000Y-13790D01*
Y-15270D01*
G01X-16000Y34000D02*
Y-790D01*
X-29000Y-13790D01*
Y-15270D01*
G01X-30990Y17890D02*
Y34980D01*
X-31010Y35000D01*
Y38990D01*
X-26000Y44000D01*
G01X-50990Y10110D02*
Y4000D01*
G01X-30990Y10110D02*
Y4000D01*
G01X-40990Y17890D02*
Y34980D01*
X-41010Y35000D01*
Y38990D01*
X-36000Y44000D01*
G01X-40990Y10110D02*
Y4000D01*
G01X-50990Y17890D02*
Y34980D01*
X-51010Y35000D01*
Y38990D01*
X-46000Y44000D01*
G01X-29000Y-15270D02*
Y-22000D01*
G01X-19000Y-15270D02*
Y-22000D01*
G01Y-15270D02*
Y-13790D01*
X-16290Y-11080D01*
X-16080D01*
X-6000Y-1000D01*
Y34000D01*
G01X-9000Y-15270D02*
Y-22000D01*
G01Y-15270D02*
Y-13790D01*
X-6290Y-11080D01*
X-6070D01*
X4000Y-1010D01*
Y34000D01*
G01X14000D02*
Y-790D01*
X1000Y-13790D01*
Y-15270D01*
G01X-20990Y10110D02*
Y4000D01*
G01X-990Y10110D02*
Y4000D01*
G01X-10990Y10110D02*
Y4000D01*
G01X-990Y17890D02*
Y34980D01*
X-1010Y35000D01*
Y38990D01*
X4000Y44000D01*
G01X-10990Y17890D02*
Y34980D01*
X-11010Y35000D01*
Y38990D01*
X-6000Y44000D01*
G01X-20990Y17890D02*
Y34980D01*
X-21010Y35000D01*
Y38990D01*
X-16000Y44000D01*
G01X1000Y-15270D02*
Y-22000D01*
G01X11000Y-15270D02*
Y-22000D01*
G01X24000Y34000D02*
Y-790D01*
X11000Y-13790D01*
Y-15270D01*
G01X21000D02*
Y-22000D01*
G01X34000Y34000D02*
Y-790D01*
X21000Y-13790D01*
Y-15270D01*
G01X44000Y34000D02*
Y-790D01*
X31000Y-13790D01*
Y-15270D01*
G01X29010Y17890D02*
Y34980D01*
X28990Y35000D01*
Y38990D01*
X34000Y44000D01*
G01X19010Y17890D02*
Y34980D01*
X18990Y35000D01*
Y38990D01*
X24000Y44000D01*
G01X9010Y10110D02*
Y4000D01*
G01Y17890D02*
Y34980D01*
X8990Y35000D01*
Y38990D01*
X14000Y44000D01*
G01X29010Y10110D02*
Y4000D01*
G01X19010Y10110D02*
Y4000D01*
G01X31000Y-15270D02*
Y-22000D01*
G01X43500Y-15270D02*
Y-22000D01*
G01X54000Y34000D02*
Y-3290D01*
X43500Y-13790D01*
Y-15270D01*
G01X53500D02*
Y-22000D01*
G01X64000Y34000D02*
Y-3290D01*
X53500Y-13790D01*
Y-15270D01*
G01X39010Y10110D02*
Y4000D01*
G01X49010Y10110D02*
Y4000D01*
G01X59010Y17890D02*
Y34980D01*
X58990Y35000D01*
Y38990D01*
X64000Y44000D01*
G01X59010Y10110D02*
Y4000D01*
G01X39010Y17890D02*
Y34980D01*
X38990Y35000D01*
Y38990D01*
X44000Y44000D01*
G01X49010Y17890D02*
Y34980D01*
X48990Y35000D01*
Y38990D01*
X54000Y44000D01*
G01X63500Y-15270D02*
Y-22000D01*
G01X74000Y44000D02*
X68990Y38990D01*
Y-8300D01*
X63500Y-13790D01*
Y-15270D01*
G01X76000D02*
Y-22000D01*
G01X74000Y34000D02*
Y-6100D01*
X76000Y-8100D01*
Y-15270D01*
G01X86000D02*
Y-22000D01*
G01X84000Y34000D02*
X77500Y27500D01*
Y-5290D01*
X86000Y-13790D01*
Y-15270D01*
G01X84000Y44000D02*
X88990Y39010D01*
Y31930D01*
X87490Y30430D01*
Y-5280D01*
X96000Y-13790D01*
Y-15270D01*
G01D02*
Y-22000D01*
G54D11*
X-102340Y-15000D03*
G54D12*
X-96000Y44000D03*
X-66000D03*
Y34000D03*
X-76000Y44000D03*
Y34000D03*
X-86000Y44000D03*
Y34000D03*
X-36000Y44000D03*
Y34000D03*
X-46000Y44000D03*
Y34000D03*
X-56000Y44000D03*
Y34000D03*
X-6000Y44000D03*
Y34000D03*
X-16000Y44000D03*
Y34000D03*
X-26000Y44000D03*
Y34000D03*
X24000Y44000D03*
Y34000D03*
X14000Y44000D03*
Y34000D03*
X4000Y44000D03*
Y34000D03*
X54000Y44000D03*
Y34000D03*
X44000Y44000D03*
Y34000D03*
X34000Y44000D03*
Y34000D03*
X82500Y2500D03*
Y12500D03*
X92500Y2500D03*
X84000Y44000D03*
Y34000D03*
X74000Y44000D03*
Y34000D03*
X64000Y44000D03*
Y34000D03*
X94000Y44000D03*
Y34000D03*
G54D13*
X-96000D03*
X92500Y12500D03*
G54D14*
X-60000Y-47500D03*
G54D15*
X-29000Y-48730D03*
X-39000D03*
X-49000D03*
Y-15270D03*
X-39000D03*
X-29000D03*
X1000Y-48730D03*
X-9000D03*
X-19000D03*
Y-15270D03*
X-9000D03*
X1000D03*
X31000Y-48730D03*
X21000D03*
X11000D03*
Y-15270D03*
X21000D03*
X31000D03*
X53500Y-48730D03*
X43500D03*
Y-15270D03*
X53500D03*
X63500Y-48730D03*
X86000D03*
X76000D03*
X63500Y-15270D03*
X76000D03*
X86000D03*
X96000Y-48730D03*
Y-15270D03*
G54D16*
X-49000Y-22000D03*
X-39000D03*
X-50990Y4000D03*
X-30990D03*
X-40990D03*
X-29000Y-22000D03*
X-19000D03*
X-9000D03*
X-20990Y4000D03*
X-990D03*
X-10990D03*
X1000Y-22000D03*
X11000D03*
X21000D03*
X9010Y4000D03*
X29010D03*
X19010D03*
X31000Y-22000D03*
X43500D03*
X53500D03*
X39010Y4000D03*
X49010D03*
X59010D03*
X63500Y-22000D03*
X76000D03*
X86000D03*
X96000D03*
G54D17*
X-50990Y17890D03*
Y10110D03*
X-40990Y17890D03*
Y10110D03*
X-30990Y17890D03*
Y10110D03*
X-20990Y17890D03*
Y10110D03*
X-10990Y17890D03*
Y10110D03*
X-990Y17890D03*
Y10110D03*
X9010Y17890D03*
Y10110D03*
X19010Y17890D03*
Y10110D03*
X29010Y17890D03*
Y10110D03*
X39010Y17890D03*
Y10110D03*
X49010Y17890D03*
Y10110D03*
X59010Y17890D03*
Y10110D03*
G54D18*
G01X-96000Y44000D02*
Y34000D01*
G01X-49000Y-48730D02*
X-58770D01*
X-60000Y-47500D01*
G01X-86000Y44000D02*
Y34000D01*
G01X-29000Y-48730D02*
X-19000D01*
G01X-39000D02*
X-29000D01*
G01X-49000D02*
X-39000D01*
G01X1000D02*
X11000D01*
G01X-9000D02*
X1000D01*
G01X-19000D02*
X-9000D01*
G01X31000D02*
X43500D01*
G01X21000D02*
X31000D01*
G01X11000D02*
X21000D01*
G01X53500D02*
X63500D01*
G01X43500D02*
X53500D01*
G01X86000D02*
X96000D01*
G01X76000D02*
X86000D01*
G01X63500D02*
X76000D01*
G01X94000Y34000D02*
Y19740D01*
X92500Y18240D01*
Y12500D01*
G01X94000Y44000D02*
Y49950D01*
G01Y44000D02*
X99950D01*
G54D19*
G01X-112210Y-59060D02*
X112210D01*
G03X118110Y-53160I0J5900D01*
G01Y53160D01*
G03X112210Y59060I-5900J0D01*
G01X-112210D01*
G03X-118110Y53160I0J-5900D01*
G01Y-53160D01*
G03X-112210Y-59060I5900J0D01*
M02*
