G04 ================== begin FILE IDENTIFICATION RECORD ==================*
G04 Layout Name:  D:/temp_desktop/Graduate/Design/Hardware/scheme/core/PCB/core.brd*
G04 Film Name:    DRILL*
G04 File Format:  Gerber RS274X*
G04 File Origin:  Cadence Allegro 17.4-S016*
G04 Origin Date:  Mon Apr 12 16:17:46 2021*
G04 *
G04 Layer:  MANUFACTURING/NCLEGEND-1-4*
G04 Layer:  MANUFACTURING/NCDRILL_LEGEND*
G04 Layer:  MANUFACTURING/NCDRILL_FIGURE*
G04 Layer:  BOARD GEOMETRY/DESIGN_OUTLINE*
G04 *
G04 Offset:    (0.0 0.0)*
G04 Mirror:    No*
G04 Mode:      Positive*
G04 Rotation:  0*
G04 FullContactRelief:  No*
G04 UndefLineWidth:     6.0*
G04 ================== end FILE IDENTIFICATION RECORD ====================*
%FSLAX55Y55*MOIN*%
%IR0*IPPOS*OFA0.00000B0.00000*MIA0B0*SFA1.00000B1.00000*%
%AMMACRO15*
1,1,.006,.006,0.0*
20,1,.006,.006,0.0,-.006,0.0,0.0*
1,1,.006,-.006,0.0*
1,1,.006,0.0,.006*
20,1,.006,0.0,.006,0.0,-.006,0.0*
1,1,.006,0.0,-.006*
%
%ADD15MACRO15*%
%AMMACRO10*
1,1,.006,.05905,0.0*
20,1,.006,.05905,0.0,0.0,-.05905,0.0*
1,1,.006,0.0,-.05905*
20,1,.006,0.0,-.05905,-.05905,0.0,0.0*
1,1,.006,-.05905,0.0*
20,1,.006,-.05905,0.0,0.0,.05905,0.0*
1,1,.006,0.0,.05905*
20,1,.006,0.0,.05905,.05905,0.0,0.0*
1,1,.006,.05905,0.0*
%
%ADD10MACRO10*%
%AMMACRO11*
1,1,.006,.006938,-.01675*
20,1,.006,.006938,-.01675,-.006938,-.01675,0.0*
1,1,.006,-.006938,-.01675*
20,1,.006,-.006938,-.01675,-.01675,-.006938,0.0*
1,1,.006,-.01675,-.006938*
20,1,.006,-.01675,-.006938,-.01675,.006938,0.0*
1,1,.006,-.01675,.006938*
20,1,.006,-.01675,.006938,-.006938,.01675,0.0*
1,1,.006,-.006938,.01675*
20,1,.006,-.006938,.01675,.006938,.01675,0.0*
1,1,.006,.006938,.01675*
20,1,.006,.006938,.01675,.01675,.006938,0.0*
1,1,.006,.01675,.006938*
20,1,.006,.01675,.006938,.01675,-.006938,0.0*
1,1,.006,.01675,-.006938*
20,1,.006,.01675,-.006938,.006938,-.01675,0.0*
1,1,.006,.006938,-.01675*
%
%ADD11MACRO11*%
%AMMACRO14*
1,1,.006,.00845,.00845*
20,1,.006,.00845,.00845,.00845,-.00845,0.0*
1,1,.006,.00845,-.00845*
20,1,.006,.00845,-.00845,-.00845,-.00845,0.0*
1,1,.006,-.00845,-.00845*
20,1,.006,-.00845,-.00845,-.00845,.00845,0.0*
1,1,.006,-.00845,.00845*
20,1,.006,-.00845,.00845,.00845,.00845,0.0*
1,1,.006,.00845,.00845*
%
%ADD14MACRO14*%
%AMMACRO13*
1,1,.006,.0118,0.0*
20,1,.006,.0118,0.0,.0059,.010219,0.0*
1,1,.006,.0059,.010219*
20,1,.006,.0059,.010219,-.0059,.010219,0.0*
1,1,.006,-.0059,.010219*
20,1,.006,-.0059,.010219,-.0118,0.0,0.0*
1,1,.006,-.0118,0.0*
20,1,.006,-.0118,0.0,-.0059,-.010219,0.0*
1,1,.006,-.0059,-.010219*
20,1,.006,-.0059,-.010219,.0059,-.010219,0.0*
1,1,.006,.0059,-.010219*
20,1,.006,.0059,-.010219,.0118,0.0,0.0*
1,1,.006,.0118,0.0*
%
%ADD13MACRO13*%
%AMMACRO12*
1,1,.006,0.0,.0198*
20,1,.006,0.0,.0198,-.017147,.0099,0.0*
1,1,.006,-.017147,.0099*
20,1,.006,-.017147,.0099,-.017147,-.0099,0.0*
1,1,.006,-.017147,-.0099*
20,1,.006,-.017147,-.0099,0.0,-.0198,0.0*
1,1,.006,0.0,-.0198*
20,1,.006,0.0,-.0198,.017147,-.0099,0.0*
1,1,.006,.017147,-.0099*
20,1,.006,.017147,-.0099,.017147,.0099,0.0*
1,1,.006,.017147,.0099*
20,1,.006,.017147,.0099,0.0,.0198,0.0*
1,1,.006,0.0,.0198*
%
%ADD12MACRO12*%
%ADD16C,.006*%
G75*
%LPD*%
G75*
G54D10*
X-302550Y-377500D03*
X-179000Y-145000D03*
X-178000Y145000D03*
X179000Y-145000D03*
Y145000D03*
G54D11*
X-302550Y-352500D03*
X111340Y-129000D03*
X128660D03*
G54D12*
X-302550Y-327500D03*
X63190Y-97340D03*
Y-87500D03*
Y-77660D03*
X86810Y-97340D03*
Y-77660D03*
Y-87500D03*
G54D13*
X-302550Y-302500D03*
X-170000Y-120000D03*
Y-100000D03*
Y-110000D03*
Y-80000D03*
Y-90000D03*
Y-60000D03*
Y-70000D03*
Y-40000D03*
Y-50000D03*
Y-20000D03*
Y-30000D03*
Y0D03*
Y-10000D03*
Y20000D03*
Y10000D03*
Y40000D03*
Y30000D03*
Y50000D03*
Y70000D03*
Y60000D03*
Y90000D03*
Y80000D03*
Y110000D03*
Y100000D03*
Y120000D03*
X-160000Y-120000D03*
Y-100000D03*
Y-110000D03*
Y-80000D03*
Y-90000D03*
Y-60000D03*
Y-70000D03*
Y-40000D03*
Y-50000D03*
Y-20000D03*
Y-30000D03*
Y0D03*
Y-10000D03*
Y20000D03*
Y10000D03*
Y40000D03*
Y30000D03*
Y50000D03*
Y70000D03*
Y60000D03*
Y90000D03*
Y80000D03*
Y110000D03*
Y100000D03*
Y120000D03*
X-112500Y-122500D03*
Y-132500D03*
X-122500Y-122500D03*
Y-132500D03*
X-117500Y-97500D03*
X-107500D03*
X-117500Y-87500D03*
X-107500D03*
X-120000Y120000D03*
Y130000D03*
X-110000Y120000D03*
Y130000D03*
X-92500Y-122500D03*
Y-132500D03*
X-102500Y-122500D03*
Y-132500D03*
X-97500Y-97500D03*
X-87500D03*
X-97500Y-87500D03*
X-87500D03*
X-100000Y120000D03*
Y130000D03*
X-90000Y120000D03*
Y130000D03*
X-72500Y-122500D03*
Y-132500D03*
X-82500Y-122500D03*
Y-132500D03*
X-77500Y-97500D03*
Y-87500D03*
X-80000Y120000D03*
Y130000D03*
X-70000Y120000D03*
Y130000D03*
X-52500Y-122500D03*
Y-132500D03*
X-62500Y-122500D03*
Y-132500D03*
X-60000Y120000D03*
Y130000D03*
X-50000Y120000D03*
Y130000D03*
X-32500Y-122500D03*
Y-132500D03*
X-42500Y-122500D03*
Y-132500D03*
X-40000Y120000D03*
Y130000D03*
X-30000Y120000D03*
Y130000D03*
X-12500Y-122500D03*
Y-132500D03*
X-22500Y-122500D03*
Y-132500D03*
X-20000Y120000D03*
Y130000D03*
X-10000Y120000D03*
Y130000D03*
X7500Y-122500D03*
Y-132500D03*
X-2500Y-122500D03*
Y-132500D03*
X0Y120000D03*
Y130000D03*
X10000Y120000D03*
Y130000D03*
X27500Y-122500D03*
Y-132500D03*
X17500Y-122500D03*
Y-132500D03*
X22500Y-85000D03*
Y-65000D03*
Y-75000D03*
Y-45000D03*
Y-55000D03*
X20000Y120000D03*
Y130000D03*
X30000Y120000D03*
Y130000D03*
X47500Y-122500D03*
Y-132500D03*
X37500Y-122500D03*
Y-132500D03*
X32500Y-85000D03*
Y-65000D03*
Y-75000D03*
Y-45000D03*
Y-55000D03*
X40000Y120000D03*
Y130000D03*
X50000Y120000D03*
Y130000D03*
X67500Y-122500D03*
Y-132500D03*
X57500Y-122500D03*
Y-132500D03*
X60000Y120000D03*
Y130000D03*
X70000Y120000D03*
Y130000D03*
X80000Y120000D03*
Y130000D03*
X90000Y120000D03*
Y130000D03*
X100000Y120000D03*
Y130000D03*
X110000Y120000D03*
Y130000D03*
X120000Y120000D03*
Y130000D03*
X160000Y-120000D03*
Y-100000D03*
Y-110000D03*
Y-80000D03*
Y-90000D03*
Y-60000D03*
Y-70000D03*
Y-40000D03*
Y-50000D03*
Y-20000D03*
Y-30000D03*
Y0D03*
Y-10000D03*
Y20000D03*
Y10000D03*
Y40000D03*
Y30000D03*
Y50000D03*
Y70000D03*
Y60000D03*
Y90000D03*
Y80000D03*
Y110000D03*
Y100000D03*
Y120000D03*
X170000Y-120000D03*
Y-100000D03*
Y-110000D03*
Y-80000D03*
Y-90000D03*
Y-60000D03*
Y-70000D03*
Y-40000D03*
Y-50000D03*
Y-20000D03*
Y-30000D03*
Y0D03*
Y-10000D03*
Y20000D03*
Y10000D03*
Y40000D03*
Y30000D03*
Y50000D03*
Y70000D03*
Y60000D03*
Y90000D03*
Y80000D03*
Y110000D03*
Y100000D03*
Y120000D03*
G54D14*
X-302550Y-277500D03*
X110390Y-60000D03*
X129610D03*
G54D15*
X-302550Y-252500D03*
X-146800Y100000D03*
X-130000Y-110000D03*
X-125610Y-51890D03*
X-109200Y-59700D03*
X-114000Y-52480D03*
Y-55080D03*
X-95400Y-42500D03*
X-92500Y-52500D03*
X-92670Y-24830D03*
X-97500Y72500D03*
X-100100Y77500D03*
X-67500Y-90000D03*
X-84850Y-62640D03*
X-82500Y-72500D03*
X-69900Y-42500D03*
X-85000Y-43080D03*
X-80600Y-22410D03*
X-75330Y-24440D03*
X-69900Y-37500D03*
X-68100Y-8750D03*
X-83790Y-16290D03*
X-75910Y-4480D03*
X-80000Y-12500D03*
X-68040Y-4480D03*
X-75910Y-540D03*
X-68040Y-12350D03*
X-75660Y-8480D03*
X-71980Y-8410D03*
Y-4480D03*
Y-540D03*
X-68040D03*
X-75750Y7200D03*
X-71980Y7330D03*
X-75910Y3400D03*
X-71980D03*
Y11270D03*
Y18730D03*
X-75910Y11270D03*
Y18730D03*
X-68040Y3400D03*
Y7330D03*
Y11270D03*
Y18730D03*
Y34890D03*
X-75640Y34530D03*
X-75910Y22670D03*
X-71980Y34480D03*
Y22670D03*
X-75910Y30540D03*
Y26600D03*
Y38410D03*
X-71980Y26600D03*
Y30540D03*
X-71950Y38450D03*
X-68040Y22670D03*
Y26600D03*
X-84400Y45780D03*
X-79850Y42350D03*
X-71980D03*
X-65000Y-115000D03*
Y-60000D03*
Y-67500D03*
Y-55000D03*
X-57370Y-43250D03*
X-65590Y-26920D03*
X-57570Y-22500D03*
X-57100Y-34960D03*
X-56230Y-4480D03*
Y-540D03*
X-64100Y-4480D03*
X-60170Y-8410D03*
Y-4480D03*
X-56230Y-8410D03*
X-48770Y-4480D03*
Y-8410D03*
X-64100D03*
Y-540D03*
X-60170D03*
X-56650Y14790D03*
X-52710D03*
X-48770Y3400D03*
X-64100Y7330D03*
Y11270D03*
Y18730D03*
Y3400D03*
X-60170Y38410D03*
X-60450Y30540D03*
X-56230D03*
X-60450Y34760D03*
X-64520Y30680D03*
X-48770Y26600D03*
Y30540D03*
Y34480D03*
Y38410D03*
X-64100Y22670D03*
Y26600D03*
Y38410D03*
X-64250Y34480D03*
X-56540Y26600D03*
X-52500Y100000D03*
X-40000Y-107500D03*
X-40450Y-97500D03*
X-37500Y-95000D03*
X-47500Y-40000D03*
X-29090Y-4480D03*
X-36960Y-8410D03*
X-44830D03*
X-33020Y-4480D03*
X-40900Y-540D03*
X-44830Y-4480D03*
X-29090Y-540D03*
X-36960D03*
X-44830D03*
X-40900Y-8410D03*
Y-4480D03*
X-33020Y-8410D03*
Y-540D03*
X-29090Y-16290D03*
Y-12350D03*
Y-8410D03*
X-29250Y7200D03*
X-33020Y7330D03*
X-44830Y3400D03*
Y11270D03*
Y18730D03*
X-40900Y3400D03*
Y7330D03*
Y11270D03*
Y18730D03*
X-36960Y3400D03*
Y7330D03*
Y11270D03*
Y18730D03*
X-33020Y3400D03*
Y11270D03*
Y18730D03*
X-29090Y3400D03*
Y11270D03*
X-29010Y18490D03*
X-36960Y38410D03*
X-44830D03*
X-29090Y34500D03*
X-29010Y22760D03*
X-44830Y34480D03*
X-33110Y22760D03*
X-28970Y30600D03*
X-36860Y34480D03*
X-44830Y22670D03*
Y26600D03*
Y30540D03*
X-40900Y22670D03*
Y26600D03*
Y30540D03*
Y34480D03*
Y38410D03*
X-36960Y26600D03*
X-36720Y30540D03*
X-33020Y26600D03*
X-32920Y30910D03*
X-33020Y34500D03*
Y38410D03*
X-28950Y26600D03*
X-37050Y22760D03*
X-32500Y87500D03*
X-35240Y85000D03*
X-30140Y82630D03*
X-44490Y97500D03*
X-15000Y-92500D03*
X-22500Y-80000D03*
X-17500Y-85010D03*
Y-71260D03*
Y-52500D03*
X-25300Y-32500D03*
X-25320Y-25650D03*
X-22750Y-25250D03*
X-13190Y-22260D03*
X-11800Y-24720D03*
X-21100Y-16170D03*
X-25150Y-12350D03*
X-21210Y46290D03*
X-25150Y42350D03*
Y46290D03*
X-10000Y82500D03*
X-12490Y87110D03*
X-22500Y85000D03*
Y110100D03*
X-25000Y107500D03*
X3880Y-25600D03*
X-5000Y107500D03*
X10240Y-20800D03*
X22500Y-19090D03*
X16880Y-17500D03*
X25000Y55500D03*
X27500Y61300D03*
X17500Y77500D03*
X18610Y93890D03*
X30000Y-19090D03*
X32500Y48700D03*
X30000Y90000D03*
X32500Y95100D03*
X60000Y-65000D03*
X65000Y-17500D03*
X62400D03*
X67500Y47500D03*
X82500Y-17500D03*
X92500Y-112500D03*
X99770Y-72000D03*
X87500Y-45000D03*
X90000Y-17500D03*
X125000Y-110000D03*
X117500Y-90000D03*
X120000Y-42500D03*
X117350Y47500D03*
X120000Y72500D03*
X127500Y-17500D03*
X155000Y85000D03*
G54D16*
G01X-347500Y-390000D02*
Y-165000D01*
X350000D01*
Y-390000D01*
X-347500D01*
G01Y-365000D02*
X350000D01*
G01X-347500Y-340000D02*
X350000D01*
G01X-347500Y-315000D02*
X350000D01*
G01X-347500Y-290000D02*
X350000D01*
G01X-347500Y-265000D02*
X350000D01*
G01X-336500Y-233750D02*
Y-221250D01*
X-330600D01*
G01X-332780Y-227290D02*
X-336500D01*
G01X-323010Y-221250D02*
X-319290D01*
G01X-321150D02*
Y-233750D01*
G01X-323010D02*
X-319290D01*
G01X-307820Y-227500D02*
X-304720D01*
Y-231250D01*
X-305650Y-232500D01*
X-306740Y-233330D01*
X-308280Y-233750D01*
X-309830Y-233330D01*
X-310920Y-232500D01*
X-311850Y-231250D01*
X-312470Y-229790D01*
X-312780Y-228130D01*
Y-226670D01*
X-312470Y-225420D01*
X-311850Y-223960D01*
X-310920Y-222710D01*
X-309990Y-221880D01*
X-308750Y-221250D01*
X-307670D01*
X-306430Y-221670D01*
X-305490Y-222500D01*
G01X-299760Y-221250D02*
Y-230210D01*
X-299140Y-232080D01*
X-297900Y-233330D01*
X-296350Y-233750D01*
X-294800Y-233330D01*
X-293560Y-232080D01*
X-292940Y-230210D01*
Y-221250D01*
G01X-287050Y-233750D02*
Y-221250D01*
X-283180D01*
X-281940Y-221880D01*
X-281160Y-222710D01*
X-280850Y-224380D01*
X-281160Y-226040D01*
X-282090Y-227080D01*
X-283180Y-227710D01*
X-287050D01*
G01X-283180D02*
X-280850Y-233750D01*
G01X-268450D02*
X-274650D01*
Y-221250D01*
X-268450D01*
G01X-270930Y-227290D02*
X-274650D01*
G01X-347500Y-240000D02*
X350000D01*
G01X-347500Y-215000D02*
X350000D01*
G01X-347500Y-190000D02*
X350000D01*
G01X-257600Y-215000D02*
Y-390000D01*
G01X-234200Y-233750D02*
Y-221250D01*
X-228300D01*
G01X-230480Y-227290D02*
X-234200D01*
G01X-220710Y-221250D02*
X-216990D01*
G01X-218850D02*
Y-233750D01*
G01X-220710D02*
X-216990D01*
G01X-210010D02*
Y-221250D01*
X-202890Y-233750D01*
Y-221250D01*
G01X-195910D02*
X-192190D01*
G01X-194050D02*
Y-233750D01*
G01X-195910D02*
X-192190D01*
G01X-184910Y-232080D02*
X-183660Y-233130D01*
X-182270Y-233750D01*
X-181030D01*
X-179790Y-233130D01*
X-178860Y-232080D01*
X-178390Y-230620D01*
X-178700Y-229170D01*
X-179480Y-227920D01*
X-180880Y-227080D01*
X-182730Y-226670D01*
X-183820Y-225830D01*
X-184290Y-224380D01*
X-183970Y-222920D01*
X-183200Y-221880D01*
X-182120Y-221250D01*
X-181030D01*
X-179940Y-221670D01*
X-179010Y-222710D01*
G01X-172510Y-233750D02*
Y-221250D01*
G01X-165990D02*
Y-233750D01*
G01Y-227500D02*
X-172510D01*
G01X-153750Y-233750D02*
X-159950D01*
Y-221250D01*
X-153750D01*
G01X-156230Y-227290D02*
X-159950D01*
G01X-147860Y-233750D02*
Y-221250D01*
X-144760D01*
X-143520Y-221880D01*
X-142590Y-222710D01*
X-141810Y-223960D01*
X-141190Y-225420D01*
X-141040Y-227500D01*
X-141190Y-229580D01*
X-141810Y-231040D01*
X-142590Y-232290D01*
X-143520Y-233130D01*
X-144760Y-233750D01*
X-147860D01*
G01X-136700Y-237920D02*
X-127400D01*
G01X-122910Y-232080D02*
X-121660Y-233130D01*
X-120270Y-233750D01*
X-119030D01*
X-117790Y-233130D01*
X-116860Y-232080D01*
X-116390Y-230620D01*
X-116700Y-229170D01*
X-117480Y-227920D01*
X-118880Y-227080D01*
X-120730Y-226670D01*
X-121820Y-225830D01*
X-122290Y-224380D01*
X-121970Y-222920D01*
X-121200Y-221880D01*
X-120120Y-221250D01*
X-119030D01*
X-117940Y-221670D01*
X-117010Y-222710D01*
G01X-109110Y-221250D02*
X-105390D01*
G01X-107250D02*
Y-233750D01*
G01X-109110D02*
X-105390D01*
G01X-97800Y-221250D02*
X-91900D01*
X-97800Y-233750D01*
X-91900D01*
G01X-79350D02*
X-85550D01*
Y-221250D01*
X-79350D01*
G01X-81830Y-227290D02*
X-85550D01*
G01X-181650Y-383750D02*
Y-371250D01*
X-183510Y-373750D01*
G01Y-383750D02*
X-179790D01*
G01X-169250D02*
Y-371250D01*
X-171110Y-373750D01*
G01Y-383750D02*
X-167390D01*
G01X-156850D02*
X-155770Y-383540D01*
X-154530Y-382920D01*
X-153750Y-381880D01*
X-153440Y-380420D01*
X-153750Y-378960D01*
X-154680Y-377710D01*
X-156080Y-377080D01*
X-157620D01*
X-158560Y-376670D01*
X-159330Y-375630D01*
X-159640Y-374170D01*
X-159170Y-372710D01*
X-158090Y-371670D01*
X-156850Y-371250D01*
X-155610Y-371670D01*
X-154530Y-372710D01*
X-154060Y-374170D01*
X-154370Y-375630D01*
X-155140Y-376670D01*
X-156080Y-377080D01*
X-157620D01*
X-159020Y-377710D01*
X-159950Y-378960D01*
X-160260Y-380420D01*
X-159950Y-381880D01*
X-159170Y-382920D01*
X-157930Y-383540D01*
X-156850Y-383750D01*
G01X-144450Y-384170D02*
X-144760Y-383960D01*
Y-383540D01*
X-144450Y-383330D01*
X-144140Y-383540D01*
Y-383960D01*
X-144450Y-384170D01*
G01X-132050Y-383750D02*
Y-371250D01*
X-133910Y-373750D01*
G01Y-383750D02*
X-130190D01*
G01X-184800Y-157400D02*
X184800D01*
G03X196800Y-145400I0J12000D01*
G01Y145400D01*
G03X184800Y157400I-12000J0D01*
G01X-184800D01*
G03X-196800Y145400I0J-12000D01*
G01Y-145400D01*
G03X-184800Y-157400I12000J0D01*
G01X-178860Y-356250D02*
X-177930Y-357710D01*
X-176690Y-358540D01*
X-175290Y-358750D01*
X-174050Y-358540D01*
X-172810Y-357500D01*
X-172040Y-356250D01*
X-171890Y-355000D01*
X-172190Y-353540D01*
X-173280Y-352500D01*
X-174370Y-352080D01*
X-175760D01*
G01X-174370D02*
X-173440Y-351460D01*
X-172660Y-350420D01*
X-172350Y-349170D01*
X-172660Y-347920D01*
X-173440Y-346880D01*
X-174830Y-346250D01*
X-176220Y-346460D01*
X-177620Y-347290D01*
G01X-166460Y-356250D02*
X-165530Y-357710D01*
X-164290Y-358540D01*
X-162890Y-358750D01*
X-161650Y-358540D01*
X-160410Y-357500D01*
X-159640Y-356250D01*
X-159490Y-355000D01*
X-159790Y-353540D01*
X-160880Y-352500D01*
X-161970Y-352080D01*
X-163360D01*
G01X-161970D02*
X-161040Y-351460D01*
X-160260Y-350420D01*
X-159950Y-349170D01*
X-160260Y-347920D01*
X-161040Y-346880D01*
X-162430Y-346250D01*
X-163820Y-346460D01*
X-165220Y-347290D01*
G01X-150650Y-359170D02*
X-150960Y-358960D01*
Y-358540D01*
X-150650Y-358330D01*
X-150340Y-358540D01*
Y-358960D01*
X-150650Y-359170D01*
G01X-141660Y-356880D02*
X-140730Y-357920D01*
X-139650Y-358540D01*
X-138250Y-358750D01*
X-136850Y-358330D01*
X-135770Y-357500D01*
X-134990Y-356040D01*
X-134840Y-354380D01*
X-135150Y-352710D01*
X-135930Y-351670D01*
X-137010Y-350830D01*
X-138090Y-350630D01*
X-139180Y-350830D01*
X-140570Y-351670D01*
X-140110Y-346250D01*
X-135930D01*
G01X-178860Y-331250D02*
X-177930Y-332710D01*
X-176690Y-333540D01*
X-175290Y-333750D01*
X-174050Y-333540D01*
X-172810Y-332500D01*
X-172040Y-331250D01*
X-171890Y-330000D01*
X-172190Y-328540D01*
X-173280Y-327500D01*
X-174370Y-327080D01*
X-175760D01*
G01X-174370D02*
X-173440Y-326460D01*
X-172660Y-325420D01*
X-172350Y-324170D01*
X-172660Y-322920D01*
X-173440Y-321880D01*
X-174830Y-321250D01*
X-176220Y-321460D01*
X-177620Y-322290D01*
G01X-165690Y-332290D02*
X-164600Y-333330D01*
X-163360Y-333750D01*
X-162120Y-333330D01*
X-161040Y-332080D01*
X-160260Y-330210D01*
X-159950Y-328330D01*
Y-326040D01*
X-160260Y-324170D01*
X-161040Y-322500D01*
X-161970Y-321670D01*
X-163050Y-321250D01*
X-164290Y-321670D01*
X-165220Y-322500D01*
X-165840Y-323750D01*
X-166150Y-325420D01*
X-165840Y-326870D01*
X-165060Y-328330D01*
X-164130Y-329170D01*
X-163050Y-329380D01*
X-161810Y-328960D01*
X-160880Y-327920D01*
X-159950Y-326040D01*
G01X-150650Y-334170D02*
X-150960Y-333960D01*
Y-333540D01*
X-150650Y-333330D01*
X-150340Y-333540D01*
Y-333960D01*
X-150650Y-334170D01*
G01X-141200Y-328540D02*
X-140110Y-327080D01*
X-139180Y-326250D01*
X-137940Y-325830D01*
X-136850Y-326250D01*
X-136080Y-327080D01*
X-135460Y-328330D01*
X-135300Y-329790D01*
X-135460Y-331040D01*
X-136080Y-332290D01*
X-137010Y-333330D01*
X-138090Y-333750D01*
X-139330Y-333330D01*
X-140420Y-332080D01*
X-141040Y-330210D01*
X-141200Y-328130D01*
X-140890Y-325420D01*
X-140420Y-323960D01*
X-139650Y-322500D01*
X-138560Y-321460D01*
X-137480Y-321250D01*
X-136390Y-321670D01*
X-135610Y-322710D01*
G01X-178400Y-298330D02*
X-177460Y-297080D01*
X-176380Y-296460D01*
X-175140Y-296250D01*
X-173590Y-296670D01*
X-172500Y-297710D01*
X-172190Y-298960D01*
X-172350Y-300210D01*
X-172970Y-301250D01*
X-176070Y-303330D01*
X-177460Y-304790D01*
X-178400Y-306880D01*
X-178710Y-308750D01*
X-172190D01*
G01X-166460Y-306250D02*
X-165530Y-307710D01*
X-164290Y-308540D01*
X-162890Y-308750D01*
X-161650Y-308540D01*
X-160410Y-307500D01*
X-159640Y-306250D01*
X-159490Y-305000D01*
X-159790Y-303540D01*
X-160880Y-302500D01*
X-161970Y-302080D01*
X-163360D01*
G01X-161970D02*
X-161040Y-301460D01*
X-160260Y-300420D01*
X-159950Y-299170D01*
X-160260Y-297920D01*
X-161040Y-296880D01*
X-162430Y-296250D01*
X-163820Y-296460D01*
X-165220Y-297290D01*
G01X-150650Y-309170D02*
X-150960Y-308960D01*
Y-308540D01*
X-150650Y-308330D01*
X-150340Y-308540D01*
Y-308960D01*
X-150650Y-309170D01*
G01X-141200Y-303540D02*
X-140110Y-302080D01*
X-139180Y-301250D01*
X-137940Y-300830D01*
X-136850Y-301250D01*
X-136080Y-302080D01*
X-135460Y-303330D01*
X-135300Y-304790D01*
X-135460Y-306040D01*
X-136080Y-307290D01*
X-137010Y-308330D01*
X-138090Y-308750D01*
X-139330Y-308330D01*
X-140420Y-307080D01*
X-141040Y-305210D01*
X-141200Y-303130D01*
X-140890Y-300420D01*
X-140420Y-298960D01*
X-139650Y-297500D01*
X-138560Y-296460D01*
X-137480Y-296250D01*
X-136390Y-296670D01*
X-135610Y-297710D01*
G01X-175450Y-283750D02*
Y-271250D01*
X-177310Y-273750D01*
G01Y-283750D02*
X-173590D01*
G01X-166000Y-278540D02*
X-164910Y-277080D01*
X-163980Y-276250D01*
X-162740Y-275830D01*
X-161650Y-276250D01*
X-160880Y-277080D01*
X-160260Y-278330D01*
X-160100Y-279790D01*
X-160260Y-281040D01*
X-160880Y-282290D01*
X-161810Y-283330D01*
X-162890Y-283750D01*
X-164130Y-283330D01*
X-165220Y-282080D01*
X-165840Y-280210D01*
X-166000Y-278130D01*
X-165690Y-275420D01*
X-165220Y-273960D01*
X-164450Y-272500D01*
X-163360Y-271460D01*
X-162280Y-271250D01*
X-161190Y-271670D01*
X-160410Y-272710D01*
G01X-150650Y-284170D02*
X-150960Y-283960D01*
Y-283540D01*
X-150650Y-283330D01*
X-150340Y-283540D01*
Y-283960D01*
X-150650Y-284170D01*
G01X-140890Y-282290D02*
X-139800Y-283330D01*
X-138560Y-283750D01*
X-137320Y-283330D01*
X-136240Y-282080D01*
X-135460Y-280210D01*
X-135150Y-278330D01*
Y-276040D01*
X-135460Y-274170D01*
X-136240Y-272500D01*
X-137170Y-271670D01*
X-138250Y-271250D01*
X-139490Y-271670D01*
X-140420Y-272500D01*
X-141040Y-273750D01*
X-141350Y-275420D01*
X-141040Y-276870D01*
X-140260Y-278330D01*
X-139330Y-279170D01*
X-138250Y-279380D01*
X-137010Y-278960D01*
X-136080Y-277920D01*
X-135150Y-276040D01*
G01X-175450Y-258750D02*
Y-246250D01*
X-177310Y-248750D01*
G01Y-258750D02*
X-173590D01*
G01X-166000Y-248330D02*
X-165060Y-247080D01*
X-163980Y-246460D01*
X-162740Y-246250D01*
X-161190Y-246670D01*
X-160100Y-247710D01*
X-159790Y-248960D01*
X-159950Y-250210D01*
X-160570Y-251250D01*
X-163670Y-253330D01*
X-165060Y-254790D01*
X-166000Y-256880D01*
X-166310Y-258750D01*
X-159790D01*
G01X-150650Y-259170D02*
X-150960Y-258960D01*
Y-258540D01*
X-150650Y-258330D01*
X-150340Y-258540D01*
Y-258960D01*
X-150650Y-259170D01*
G01X-138250Y-246250D02*
X-139490Y-246670D01*
X-140420Y-247710D01*
X-141040Y-248960D01*
X-141510Y-250630D01*
X-141660Y-252500D01*
X-141510Y-254380D01*
X-141040Y-256040D01*
X-140420Y-257290D01*
X-139490Y-258330D01*
X-138250Y-258750D01*
X-137010Y-258330D01*
X-136080Y-257290D01*
X-135460Y-256040D01*
X-134990Y-254380D01*
X-134840Y-252500D01*
X-134990Y-250630D01*
X-135460Y-248960D01*
X-136080Y-247710D01*
X-137010Y-246670D01*
X-138250Y-246250D01*
G01X-157160Y-183750D02*
Y-171250D01*
X-154060D01*
X-152820Y-171880D01*
X-151890Y-172710D01*
X-151110Y-173960D01*
X-150490Y-175420D01*
X-150340Y-177500D01*
X-150490Y-179580D01*
X-151110Y-181040D01*
X-151890Y-182290D01*
X-152820Y-183130D01*
X-154060Y-183750D01*
X-157160D01*
G01X-144450D02*
Y-171250D01*
X-140580D01*
X-139340Y-171880D01*
X-138560Y-172710D01*
X-138250Y-174380D01*
X-138560Y-176040D01*
X-139490Y-177080D01*
X-140580Y-177710D01*
X-144450D01*
G01X-140580D02*
X-138250Y-183750D01*
G01X-130810Y-171250D02*
X-127090D01*
G01X-128950D02*
Y-183750D01*
G01X-130810D02*
X-127090D01*
G01X-119650Y-171250D02*
Y-183750D01*
X-113450D01*
G01X-107250Y-171250D02*
Y-183750D01*
X-101050D01*
G01X-75940Y-172290D02*
X-76870Y-171670D01*
X-77950Y-171250D01*
X-79190D01*
X-80590Y-171880D01*
X-81670Y-172920D01*
X-82450Y-174170D01*
X-83070Y-176250D01*
X-83230Y-178130D01*
X-82910Y-180000D01*
X-82450Y-181250D01*
X-81520Y-182500D01*
X-80430Y-183330D01*
X-79350Y-183750D01*
X-78270D01*
X-77180Y-183330D01*
X-76250Y-182710D01*
X-75470Y-181880D01*
G01X-70210Y-183750D02*
Y-171250D01*
G01X-63690D02*
Y-183750D01*
G01Y-177500D02*
X-70210D01*
G01X-58430Y-183750D02*
X-54550Y-171250D01*
X-50670Y-183750D01*
G01X-52070Y-179380D02*
X-57030D01*
G01X-45250Y-183750D02*
Y-171250D01*
X-41380D01*
X-40140Y-171880D01*
X-39360Y-172710D01*
X-39050Y-174380D01*
X-39360Y-176040D01*
X-40290Y-177080D01*
X-41380Y-177710D01*
X-45250D01*
G01X-41380D02*
X-39050Y-183750D01*
G01X-29750Y-171250D02*
Y-183750D01*
G01X-33310Y-171250D02*
X-26190D01*
G01X-17350Y-184170D02*
X-17660Y-183960D01*
Y-183540D01*
X-17350Y-183330D01*
X-17040Y-183540D01*
Y-183960D01*
X-17350Y-184170D01*
G01Y-178540D02*
X-17660Y-178330D01*
Y-177920D01*
X-17350Y-177710D01*
X-17040Y-177920D01*
Y-178330D01*
X-17350Y-178540D01*
G01X7450Y-171250D02*
Y-183750D01*
G01X3890Y-171250D02*
X11010D01*
G01X19850Y-183750D02*
X18610Y-183540D01*
X17530Y-182710D01*
X16590Y-181460D01*
X15970Y-180000D01*
X15660Y-178330D01*
Y-176670D01*
X15970Y-175000D01*
X16590Y-173540D01*
X17530Y-172290D01*
X18610Y-171460D01*
X19850Y-171250D01*
X21090Y-171460D01*
X22170Y-172290D01*
X23110Y-173540D01*
X23730Y-175000D01*
X24040Y-176670D01*
Y-178330D01*
X23730Y-180000D01*
X23110Y-181460D01*
X22170Y-182710D01*
X21090Y-183540D01*
X19850Y-183750D01*
G01X29150D02*
Y-171250D01*
X32870D01*
X34110Y-171880D01*
X35040Y-173330D01*
X35350Y-175000D01*
X35040Y-176670D01*
X34260Y-177920D01*
X32870Y-178540D01*
X29150D01*
G01X57050Y-171250D02*
Y-183750D01*
G01X54880Y-175420D02*
X59220D01*
G01X69450Y-183750D02*
X68520Y-183540D01*
X67590Y-182710D01*
X66970Y-181250D01*
X66660Y-179580D01*
X66970Y-177920D01*
X67590Y-176460D01*
X68520Y-175630D01*
X69450Y-175420D01*
X70380Y-175630D01*
X71310Y-176460D01*
X71930Y-177920D01*
X72090Y-179580D01*
X71930Y-181250D01*
X71310Y-182710D01*
X70380Y-183540D01*
X69450Y-183750D01*
G01X95490Y-177080D02*
X96110Y-176460D01*
X96570Y-175420D01*
X96890Y-173960D01*
X96570Y-172710D01*
X95960Y-171880D01*
X94870Y-171250D01*
X90690D01*
Y-183750D01*
X95800D01*
X96890Y-182920D01*
X97510Y-181670D01*
X97810Y-180210D01*
X97510Y-178750D01*
X96570Y-177500D01*
X95490Y-177080D01*
X90690D01*
G01X106650Y-183750D02*
X105410Y-183540D01*
X104330Y-182710D01*
X103390Y-181460D01*
X102770Y-180000D01*
X102460Y-178330D01*
Y-176670D01*
X102770Y-175000D01*
X103390Y-173540D01*
X104330Y-172290D01*
X105410Y-171460D01*
X106650Y-171250D01*
X107890Y-171460D01*
X108970Y-172290D01*
X109910Y-173540D01*
X110530Y-175000D01*
X110840Y-176670D01*
Y-178330D01*
X110530Y-180000D01*
X109910Y-181460D01*
X108970Y-182710D01*
X107890Y-183540D01*
X106650Y-183750D01*
G01X119050Y-171250D02*
Y-183750D01*
G01X115490Y-171250D02*
X122610D01*
G01X131450D02*
Y-183750D01*
G01X127890Y-171250D02*
X135010D01*
G01X143850Y-183750D02*
X142610Y-183540D01*
X141530Y-182710D01*
X140590Y-181460D01*
X139970Y-180000D01*
X139660Y-178330D01*
Y-176670D01*
X139970Y-175000D01*
X140590Y-173540D01*
X141530Y-172290D01*
X142610Y-171460D01*
X143850Y-171250D01*
X145090Y-171460D01*
X146170Y-172290D01*
X147110Y-173540D01*
X147730Y-175000D01*
X148040Y-176670D01*
Y-178330D01*
X147730Y-180000D01*
X147110Y-181460D01*
X146170Y-182710D01*
X145090Y-183540D01*
X143850Y-183750D01*
G01X152220D02*
Y-171250D01*
X156250Y-181670D01*
X160280Y-171250D01*
Y-183750D01*
G01X-126630Y-208750D02*
X-122750Y-196250D01*
X-118870Y-208750D01*
G01X-120270Y-204380D02*
X-125230D01*
G01X-113450Y-196250D02*
Y-208750D01*
X-107250D01*
G01X-101050Y-196250D02*
Y-208750D01*
X-94850D01*
G01X-76560Y-196250D02*
Y-205210D01*
X-75940Y-207080D01*
X-74700Y-208330D01*
X-73150Y-208750D01*
X-71600Y-208330D01*
X-70360Y-207080D01*
X-69740Y-205210D01*
Y-196250D01*
G01X-64310Y-208750D02*
Y-196250D01*
X-57190Y-208750D01*
Y-196250D01*
G01X-50210D02*
X-46490D01*
G01X-48350D02*
Y-208750D01*
G01X-50210D02*
X-46490D01*
G01X-35950Y-196250D02*
Y-208750D01*
G01X-39510Y-196250D02*
X-32390D01*
G01X-26810Y-207080D02*
X-25560Y-208130D01*
X-24170Y-208750D01*
X-22930D01*
X-21690Y-208130D01*
X-20760Y-207080D01*
X-20290Y-205620D01*
X-20600Y-204170D01*
X-21380Y-202920D01*
X-22780Y-202080D01*
X-24630Y-201670D01*
X-25720Y-200830D01*
X-26190Y-199380D01*
X-25870Y-197920D01*
X-25100Y-196880D01*
X-24020Y-196250D01*
X-22930D01*
X-21840Y-196670D01*
X-20910Y-197710D01*
G01X-2630Y-208750D02*
X1250Y-196250D01*
X5130Y-208750D01*
G01X3730Y-204380D02*
X-1230D01*
G01X10550Y-208750D02*
Y-196250D01*
X14420D01*
X15660Y-196880D01*
X16440Y-197710D01*
X16750Y-199380D01*
X16440Y-201040D01*
X15510Y-202080D01*
X14420Y-202710D01*
X10550D01*
G01X14420D02*
X16750Y-208750D01*
G01X29150D02*
X22950D01*
Y-196250D01*
X29150D01*
G01X26670Y-202290D02*
X22950D01*
G01X48990Y-196250D02*
X52710D01*
G01X50850D02*
Y-208750D01*
G01X48990D02*
X52710D01*
G01X59690D02*
Y-196250D01*
X66810Y-208750D01*
Y-196250D01*
G01X84020Y-208750D02*
Y-196250D01*
X88050Y-206670D01*
X92080Y-196250D01*
Y-208750D01*
G01X98590Y-196250D02*
X102310D01*
G01X100450D02*
Y-208750D01*
G01X98590D02*
X102310D01*
G01X109750Y-196250D02*
Y-208750D01*
X115950D01*
G01X121990Y-207080D02*
X123240Y-208130D01*
X124630Y-208750D01*
X125870D01*
X127110Y-208130D01*
X128040Y-207080D01*
X128510Y-205620D01*
X128200Y-204170D01*
X127420Y-202920D01*
X126020Y-202080D01*
X124170Y-201670D01*
X123080Y-200830D01*
X122610Y-199380D01*
X122930Y-197920D01*
X123700Y-196880D01*
X124780Y-196250D01*
X125870D01*
X126960Y-196670D01*
X127890Y-197710D01*
G01X-56100Y-215000D02*
Y-390000D01*
G01X-42150Y-221250D02*
Y-233750D01*
G01X-45710Y-221250D02*
X-38590D01*
G01X-29750Y-233750D02*
X-30990Y-233540D01*
X-32070Y-232710D01*
X-33010Y-231460D01*
X-33630Y-230000D01*
X-33940Y-228330D01*
Y-226670D01*
X-33630Y-225000D01*
X-33010Y-223540D01*
X-32070Y-222290D01*
X-30990Y-221460D01*
X-29750Y-221250D01*
X-28510Y-221460D01*
X-27430Y-222290D01*
X-26490Y-223540D01*
X-25870Y-225000D01*
X-25560Y-226670D01*
Y-228330D01*
X-25870Y-230000D01*
X-26490Y-231460D01*
X-27430Y-232710D01*
X-28510Y-233540D01*
X-29750Y-233750D01*
G01X-20450Y-221250D02*
Y-233750D01*
X-14250D01*
G01X-1850D02*
X-8050D01*
Y-221250D01*
X-1850D01*
G01X-4330Y-227290D02*
X-8050D01*
G01X4350Y-233750D02*
Y-221250D01*
X8220D01*
X9460Y-221880D01*
X10240Y-222710D01*
X10550Y-224380D01*
X10240Y-226040D01*
X9310Y-227080D01*
X8220Y-227710D01*
X4350D01*
G01X8220D02*
X10550Y-233750D01*
G01X15970D02*
X19850Y-221250D01*
X23730Y-233750D01*
G01X22330Y-229380D02*
X17370D01*
G01X28690Y-233750D02*
Y-221250D01*
X35810Y-233750D01*
Y-221250D01*
G01X48060Y-222290D02*
X47130Y-221670D01*
X46050Y-221250D01*
X44810D01*
X43410Y-221880D01*
X42330Y-222920D01*
X41550Y-224170D01*
X40930Y-226250D01*
X40770Y-228130D01*
X41090Y-230000D01*
X41550Y-231250D01*
X42480Y-232500D01*
X43570Y-233330D01*
X44650Y-233750D01*
X45730D01*
X46820Y-233330D01*
X47750Y-232710D01*
X48530Y-231880D01*
G01X60150Y-233750D02*
X53950D01*
Y-221250D01*
X60150D01*
G01X57670Y-227290D02*
X53950D01*
G01X64800Y-237920D02*
X74100D01*
G01X78440Y-233750D02*
Y-221250D01*
X81540D01*
X82780Y-221880D01*
X83710Y-222710D01*
X84490Y-223960D01*
X85110Y-225420D01*
X85260Y-227500D01*
X85110Y-229580D01*
X84490Y-231040D01*
X83710Y-232290D01*
X82780Y-233130D01*
X81540Y-233750D01*
X78440D01*
G01X91150D02*
Y-221250D01*
X95020D01*
X96260Y-221880D01*
X97040Y-222710D01*
X97350Y-224380D01*
X97040Y-226040D01*
X96110Y-227080D01*
X95020Y-227710D01*
X91150D01*
G01X95020D02*
X97350Y-233750D01*
G01X104790Y-221250D02*
X108510D01*
G01X106650D02*
Y-233750D01*
G01X104790D02*
X108510D01*
G01X115950Y-221250D02*
Y-233750D01*
X122150D01*
G01X128350Y-221250D02*
Y-233750D01*
X134550D01*
G01X-6660Y-379580D02*
X-2940D01*
G01X-4950Y-376870D02*
Y-382290D01*
G01X7140Y-383750D02*
X7450Y-381040D01*
X7920Y-378750D01*
X8530Y-376670D01*
X9310Y-374380D01*
X10550Y-371250D01*
X4350D01*
G01X19850Y-384170D02*
X19540Y-383960D01*
Y-383540D01*
X19850Y-383330D01*
X20160Y-383540D01*
Y-383960D01*
X19850Y-384170D01*
G01X29610Y-382290D02*
X30700Y-383330D01*
X31940Y-383750D01*
X33180Y-383330D01*
X34260Y-382080D01*
X35040Y-380210D01*
X35350Y-378330D01*
Y-376040D01*
X35040Y-374170D01*
X34260Y-372500D01*
X33330Y-371670D01*
X32250Y-371250D01*
X31010Y-371670D01*
X30080Y-372500D01*
X29460Y-373750D01*
X29150Y-375420D01*
X29460Y-376870D01*
X30240Y-378330D01*
X31170Y-379170D01*
X32250Y-379380D01*
X33490Y-378960D01*
X34420Y-377920D01*
X35350Y-376040D01*
G01X41860Y-384170D02*
X47440Y-371250D01*
G01X55040Y-379580D02*
X59060D01*
G01X69140Y-383750D02*
X69450Y-381040D01*
X69920Y-378750D01*
X70530Y-376670D01*
X71310Y-374380D01*
X72550Y-371250D01*
X66350D01*
G01X81850Y-384170D02*
X81540Y-383960D01*
Y-383540D01*
X81850Y-383330D01*
X82160Y-383540D01*
Y-383960D01*
X81850Y-384170D01*
G01X91610Y-382290D02*
X92700Y-383330D01*
X93940Y-383750D01*
X95180Y-383330D01*
X96260Y-382080D01*
X97040Y-380210D01*
X97350Y-378330D01*
Y-376040D01*
X97040Y-374170D01*
X96260Y-372500D01*
X95330Y-371670D01*
X94250Y-371250D01*
X93010Y-371670D01*
X92080Y-372500D01*
X91460Y-373750D01*
X91150Y-375420D01*
X91460Y-376870D01*
X92240Y-378330D01*
X93170Y-379170D01*
X94250Y-379380D01*
X95490Y-378960D01*
X96420Y-377920D01*
X97350Y-376040D01*
G01X-6660Y-354580D02*
X-2940D01*
G01X-4950Y-351870D02*
Y-357290D01*
G01X4040Y-356880D02*
X4970Y-357920D01*
X6050Y-358540D01*
X7450Y-358750D01*
X8850Y-358330D01*
X9930Y-357500D01*
X10710Y-356040D01*
X10860Y-354380D01*
X10550Y-352710D01*
X9770Y-351670D01*
X8690Y-350830D01*
X7610Y-350630D01*
X6520Y-350830D01*
X5130Y-351670D01*
X5590Y-346250D01*
X9770D01*
G01X19850Y-359170D02*
X19540Y-358960D01*
Y-358540D01*
X19850Y-358330D01*
X20160Y-358540D01*
Y-358960D01*
X19850Y-359170D01*
G01X32250Y-346250D02*
X31010Y-346670D01*
X30080Y-347710D01*
X29460Y-348960D01*
X28990Y-350630D01*
X28840Y-352500D01*
X28990Y-354380D01*
X29460Y-356040D01*
X30080Y-357290D01*
X31010Y-358330D01*
X32250Y-358750D01*
X33490Y-358330D01*
X34420Y-357290D01*
X35040Y-356040D01*
X35510Y-354380D01*
X35660Y-352500D01*
X35510Y-350630D01*
X35040Y-348960D01*
X34420Y-347710D01*
X33490Y-346670D01*
X32250Y-346250D01*
G01X41860Y-359170D02*
X47440Y-346250D01*
G01X55040Y-354580D02*
X59060D01*
G01X66040Y-356880D02*
X66970Y-357920D01*
X68050Y-358540D01*
X69450Y-358750D01*
X70850Y-358330D01*
X71930Y-357500D01*
X72710Y-356040D01*
X72860Y-354380D01*
X72550Y-352710D01*
X71770Y-351670D01*
X70690Y-350830D01*
X69610Y-350630D01*
X68520Y-350830D01*
X67130Y-351670D01*
X67590Y-346250D01*
X71770D01*
G01X81850Y-359170D02*
X81540Y-358960D01*
Y-358540D01*
X81850Y-358330D01*
X82160Y-358540D01*
Y-358960D01*
X81850Y-359170D01*
G01X94250Y-346250D02*
X93010Y-346670D01*
X92080Y-347710D01*
X91460Y-348960D01*
X90990Y-350630D01*
X90840Y-352500D01*
X90990Y-354380D01*
X91460Y-356040D01*
X92080Y-357290D01*
X93010Y-358330D01*
X94250Y-358750D01*
X95490Y-358330D01*
X96420Y-357290D01*
X97040Y-356040D01*
X97510Y-354380D01*
X97660Y-352500D01*
X97510Y-350630D01*
X97040Y-348960D01*
X96420Y-347710D01*
X95490Y-346670D01*
X94250Y-346250D01*
G01X-6660Y-329580D02*
X-2940D01*
G01X-4950Y-326870D02*
Y-332290D01*
G01X4040Y-331880D02*
X4970Y-332920D01*
X6050Y-333540D01*
X7450Y-333750D01*
X8850Y-333330D01*
X9930Y-332500D01*
X10710Y-331040D01*
X10860Y-329380D01*
X10550Y-327710D01*
X9770Y-326670D01*
X8690Y-325830D01*
X7610Y-325630D01*
X6520Y-325830D01*
X5130Y-326670D01*
X5590Y-321250D01*
X9770D01*
G01X19850Y-334170D02*
X19540Y-333960D01*
Y-333540D01*
X19850Y-333330D01*
X20160Y-333540D01*
Y-333960D01*
X19850Y-334170D01*
G01X32250Y-321250D02*
X31010Y-321670D01*
X30080Y-322710D01*
X29460Y-323960D01*
X28990Y-325630D01*
X28840Y-327500D01*
X28990Y-329380D01*
X29460Y-331040D01*
X30080Y-332290D01*
X31010Y-333330D01*
X32250Y-333750D01*
X33490Y-333330D01*
X34420Y-332290D01*
X35040Y-331040D01*
X35510Y-329380D01*
X35660Y-327500D01*
X35510Y-325630D01*
X35040Y-323960D01*
X34420Y-322710D01*
X33490Y-321670D01*
X32250Y-321250D01*
G01X41860Y-334170D02*
X47440Y-321250D01*
G01X55040Y-329580D02*
X59060D01*
G01X66040Y-331880D02*
X66970Y-332920D01*
X68050Y-333540D01*
X69450Y-333750D01*
X70850Y-333330D01*
X71930Y-332500D01*
X72710Y-331040D01*
X72860Y-329380D01*
X72550Y-327710D01*
X71770Y-326670D01*
X70690Y-325830D01*
X69610Y-325630D01*
X68520Y-325830D01*
X67130Y-326670D01*
X67590Y-321250D01*
X71770D01*
G01X81850Y-334170D02*
X81540Y-333960D01*
Y-333540D01*
X81850Y-333330D01*
X82160Y-333540D01*
Y-333960D01*
X81850Y-334170D01*
G01X94250Y-321250D02*
X93010Y-321670D01*
X92080Y-322710D01*
X91460Y-323960D01*
X90990Y-325630D01*
X90840Y-327500D01*
X90990Y-329380D01*
X91460Y-331040D01*
X92080Y-332290D01*
X93010Y-333330D01*
X94250Y-333750D01*
X95490Y-333330D01*
X96420Y-332290D01*
X97040Y-331040D01*
X97510Y-329380D01*
X97660Y-327500D01*
X97510Y-325630D01*
X97040Y-323960D01*
X96420Y-322710D01*
X95490Y-321670D01*
X94250Y-321250D01*
G01X-6660Y-304580D02*
X-2940D01*
G01X-4950Y-301870D02*
Y-307290D01*
G01X4040Y-306250D02*
X4970Y-307710D01*
X6210Y-308540D01*
X7610Y-308750D01*
X8850Y-308540D01*
X10090Y-307500D01*
X10860Y-306250D01*
X11010Y-305000D01*
X10710Y-303540D01*
X9620Y-302500D01*
X8530Y-302080D01*
X7140D01*
G01X8530D02*
X9460Y-301460D01*
X10240Y-300420D01*
X10550Y-299170D01*
X10240Y-297920D01*
X9460Y-296880D01*
X8070Y-296250D01*
X6680Y-296460D01*
X5280Y-297290D01*
G01X19850Y-309170D02*
X19540Y-308960D01*
Y-308540D01*
X19850Y-308330D01*
X20160Y-308540D01*
Y-308960D01*
X19850Y-309170D01*
G01X32250Y-296250D02*
X31010Y-296670D01*
X30080Y-297710D01*
X29460Y-298960D01*
X28990Y-300630D01*
X28840Y-302500D01*
X28990Y-304380D01*
X29460Y-306040D01*
X30080Y-307290D01*
X31010Y-308330D01*
X32250Y-308750D01*
X33490Y-308330D01*
X34420Y-307290D01*
X35040Y-306040D01*
X35510Y-304380D01*
X35660Y-302500D01*
X35510Y-300630D01*
X35040Y-298960D01*
X34420Y-297710D01*
X33490Y-296670D01*
X32250Y-296250D01*
G01X41860Y-309170D02*
X47440Y-296250D01*
G01X55040Y-304580D02*
X59060D01*
G01X66040Y-306250D02*
X66970Y-307710D01*
X68210Y-308540D01*
X69610Y-308750D01*
X70850Y-308540D01*
X72090Y-307500D01*
X72860Y-306250D01*
X73010Y-305000D01*
X72710Y-303540D01*
X71620Y-302500D01*
X70530Y-302080D01*
X69140D01*
G01X70530D02*
X71460Y-301460D01*
X72240Y-300420D01*
X72550Y-299170D01*
X72240Y-297920D01*
X71460Y-296880D01*
X70070Y-296250D01*
X68680Y-296460D01*
X67280Y-297290D01*
G01X81850Y-309170D02*
X81540Y-308960D01*
Y-308540D01*
X81850Y-308330D01*
X82160Y-308540D01*
Y-308960D01*
X81850Y-309170D01*
G01X94250Y-296250D02*
X93010Y-296670D01*
X92080Y-297710D01*
X91460Y-298960D01*
X90990Y-300630D01*
X90840Y-302500D01*
X90990Y-304380D01*
X91460Y-306040D01*
X92080Y-307290D01*
X93010Y-308330D01*
X94250Y-308750D01*
X95490Y-308330D01*
X96420Y-307290D01*
X97040Y-306040D01*
X97510Y-304380D01*
X97660Y-302500D01*
X97510Y-300630D01*
X97040Y-298960D01*
X96420Y-297710D01*
X95490Y-296670D01*
X94250Y-296250D01*
G01X-6660Y-279580D02*
X-2940D01*
G01X-4950Y-276870D02*
Y-282290D01*
G01X4040Y-281250D02*
X4970Y-282710D01*
X6210Y-283540D01*
X7610Y-283750D01*
X8850Y-283540D01*
X10090Y-282500D01*
X10860Y-281250D01*
X11010Y-280000D01*
X10710Y-278540D01*
X9620Y-277500D01*
X8530Y-277080D01*
X7140D01*
G01X8530D02*
X9460Y-276460D01*
X10240Y-275420D01*
X10550Y-274170D01*
X10240Y-272920D01*
X9460Y-271880D01*
X8070Y-271250D01*
X6680Y-271460D01*
X5280Y-272290D01*
G01X19850Y-284170D02*
X19540Y-283960D01*
Y-283540D01*
X19850Y-283330D01*
X20160Y-283540D01*
Y-283960D01*
X19850Y-284170D01*
G01X32250Y-271250D02*
X31010Y-271670D01*
X30080Y-272710D01*
X29460Y-273960D01*
X28990Y-275630D01*
X28840Y-277500D01*
X28990Y-279380D01*
X29460Y-281040D01*
X30080Y-282290D01*
X31010Y-283330D01*
X32250Y-283750D01*
X33490Y-283330D01*
X34420Y-282290D01*
X35040Y-281040D01*
X35510Y-279380D01*
X35660Y-277500D01*
X35510Y-275630D01*
X35040Y-273960D01*
X34420Y-272710D01*
X33490Y-271670D01*
X32250Y-271250D01*
G01X41860Y-284170D02*
X47440Y-271250D01*
G01X55040Y-279580D02*
X59060D01*
G01X66040Y-281250D02*
X66970Y-282710D01*
X68210Y-283540D01*
X69610Y-283750D01*
X70850Y-283540D01*
X72090Y-282500D01*
X72860Y-281250D01*
X73010Y-280000D01*
X72710Y-278540D01*
X71620Y-277500D01*
X70530Y-277080D01*
X69140D01*
G01X70530D02*
X71460Y-276460D01*
X72240Y-275420D01*
X72550Y-274170D01*
X72240Y-272920D01*
X71460Y-271880D01*
X70070Y-271250D01*
X68680Y-271460D01*
X67280Y-272290D01*
G01X81850Y-284170D02*
X81540Y-283960D01*
Y-283540D01*
X81850Y-283330D01*
X82160Y-283540D01*
Y-283960D01*
X81850Y-284170D01*
G01X94250Y-271250D02*
X93010Y-271670D01*
X92080Y-272710D01*
X91460Y-273960D01*
X90990Y-275630D01*
X90840Y-277500D01*
X90990Y-279380D01*
X91460Y-281040D01*
X92080Y-282290D01*
X93010Y-283330D01*
X94250Y-283750D01*
X95490Y-283330D01*
X96420Y-282290D01*
X97040Y-281040D01*
X97510Y-279380D01*
X97660Y-277500D01*
X97510Y-275630D01*
X97040Y-273960D01*
X96420Y-272710D01*
X95490Y-271670D01*
X94250Y-271250D01*
G01X-6660Y-254580D02*
X-2940D01*
G01X-4950Y-251870D02*
Y-257290D01*
G01X4500Y-248330D02*
X5440Y-247080D01*
X6520Y-246460D01*
X7760Y-246250D01*
X9310Y-246670D01*
X10400Y-247710D01*
X10710Y-248960D01*
X10550Y-250210D01*
X9930Y-251250D01*
X6830Y-253330D01*
X5440Y-254790D01*
X4500Y-256880D01*
X4190Y-258750D01*
X10710D01*
G01X19850Y-259170D02*
X19540Y-258960D01*
Y-258540D01*
X19850Y-258330D01*
X20160Y-258540D01*
Y-258960D01*
X19850Y-259170D01*
G01X32250Y-246250D02*
X31010Y-246670D01*
X30080Y-247710D01*
X29460Y-248960D01*
X28990Y-250630D01*
X28840Y-252500D01*
X28990Y-254380D01*
X29460Y-256040D01*
X30080Y-257290D01*
X31010Y-258330D01*
X32250Y-258750D01*
X33490Y-258330D01*
X34420Y-257290D01*
X35040Y-256040D01*
X35510Y-254380D01*
X35660Y-252500D01*
X35510Y-250630D01*
X35040Y-248960D01*
X34420Y-247710D01*
X33490Y-246670D01*
X32250Y-246250D01*
G01X41860Y-259170D02*
X47440Y-246250D01*
G01X55040Y-254580D02*
X59060D01*
G01X66500Y-248330D02*
X67440Y-247080D01*
X68520Y-246460D01*
X69760Y-246250D01*
X71310Y-246670D01*
X72400Y-247710D01*
X72710Y-248960D01*
X72550Y-250210D01*
X71930Y-251250D01*
X68830Y-253330D01*
X67440Y-254790D01*
X66500Y-256880D01*
X66190Y-258750D01*
X72710D01*
G01X81850Y-259170D02*
X81540Y-258960D01*
Y-258540D01*
X81850Y-258330D01*
X82160Y-258540D01*
Y-258960D01*
X81850Y-259170D01*
G01X94250Y-246250D02*
X93010Y-246670D01*
X92080Y-247710D01*
X91460Y-248960D01*
X90990Y-250630D01*
X90840Y-252500D01*
X90990Y-254380D01*
X91460Y-256040D01*
X92080Y-257290D01*
X93010Y-258330D01*
X94250Y-258750D01*
X95490Y-258330D01*
X96420Y-257290D01*
X97040Y-256040D01*
X97510Y-254380D01*
X97660Y-252500D01*
X97510Y-250630D01*
X97040Y-248960D01*
X96420Y-247710D01*
X95490Y-246670D01*
X94250Y-246250D01*
G01X149590Y-383750D02*
Y-371250D01*
X156710Y-383750D01*
Y-371250D01*
G01X165550Y-383750D02*
X164310Y-383540D01*
X163230Y-382710D01*
X162290Y-381460D01*
X161670Y-380000D01*
X161360Y-378330D01*
Y-376670D01*
X161670Y-375000D01*
X162290Y-373540D01*
X163230Y-372290D01*
X164310Y-371460D01*
X165550Y-371250D01*
X166790Y-371460D01*
X167870Y-372290D01*
X168810Y-373540D01*
X169430Y-375000D01*
X169740Y-376670D01*
Y-378330D01*
X169430Y-380000D01*
X168810Y-381460D01*
X167870Y-382710D01*
X166790Y-383540D01*
X165550Y-383750D01*
G01X174390D02*
Y-371250D01*
X181510Y-383750D01*
Y-371250D01*
G01X188340Y-379580D02*
X192360D01*
G01X199650Y-383750D02*
Y-371250D01*
X203370D01*
X204610Y-371880D01*
X205540Y-373330D01*
X205850Y-375000D01*
X205540Y-376670D01*
X204760Y-377920D01*
X203370Y-378540D01*
X199650D01*
G01X212050Y-371250D02*
Y-383750D01*
X218250D01*
G01X223670D02*
X227550Y-371250D01*
X231430Y-383750D01*
G01X230030Y-379380D02*
X225070D01*
G01X239950Y-371250D02*
Y-383750D01*
G01X236390Y-371250D02*
X243510D01*
G01X255450Y-383750D02*
X249250D01*
Y-371250D01*
X255450D01*
G01X252970Y-377290D02*
X249250D01*
G01X261340Y-383750D02*
Y-371250D01*
X264440D01*
X265680Y-371880D01*
X266610Y-372710D01*
X267390Y-373960D01*
X268010Y-375420D01*
X268160Y-377500D01*
X268010Y-379580D01*
X267390Y-381040D01*
X266610Y-382290D01*
X265680Y-383130D01*
X264440Y-383750D01*
X261340D01*
G01X145400Y-215000D02*
Y-390000D01*
G01X149590Y-358750D02*
Y-346250D01*
X156710Y-358750D01*
Y-346250D01*
G01X165550Y-358750D02*
X164310Y-358540D01*
X163230Y-357710D01*
X162290Y-356460D01*
X161670Y-355000D01*
X161360Y-353330D01*
Y-351670D01*
X161670Y-350000D01*
X162290Y-348540D01*
X163230Y-347290D01*
X164310Y-346460D01*
X165550Y-346250D01*
X166790Y-346460D01*
X167870Y-347290D01*
X168810Y-348540D01*
X169430Y-350000D01*
X169740Y-351670D01*
Y-353330D01*
X169430Y-355000D01*
X168810Y-356460D01*
X167870Y-357710D01*
X166790Y-358540D01*
X165550Y-358750D01*
G01X174390D02*
Y-346250D01*
X181510Y-358750D01*
Y-346250D01*
G01X188340Y-354580D02*
X192360D01*
G01X199650Y-358750D02*
Y-346250D01*
X203370D01*
X204610Y-346880D01*
X205540Y-348330D01*
X205850Y-350000D01*
X205540Y-351670D01*
X204760Y-352920D01*
X203370Y-353540D01*
X199650D01*
G01X212050Y-346250D02*
Y-358750D01*
X218250D01*
G01X223670D02*
X227550Y-346250D01*
X231430Y-358750D01*
G01X230030Y-354380D02*
X225070D01*
G01X239950Y-346250D02*
Y-358750D01*
G01X236390Y-346250D02*
X243510D01*
G01X255450Y-358750D02*
X249250D01*
Y-346250D01*
X255450D01*
G01X252970Y-352290D02*
X249250D01*
G01X261340Y-358750D02*
Y-346250D01*
X264440D01*
X265680Y-346880D01*
X266610Y-347710D01*
X267390Y-348960D01*
X268010Y-350420D01*
X268160Y-352500D01*
X268010Y-354580D01*
X267390Y-356040D01*
X266610Y-357290D01*
X265680Y-358130D01*
X264440Y-358750D01*
X261340D01*
G01X174850Y-333750D02*
Y-321250D01*
X178570D01*
X179810Y-321880D01*
X180740Y-323330D01*
X181050Y-325000D01*
X180740Y-326670D01*
X179960Y-327920D01*
X178570Y-328540D01*
X174850D01*
G01X187250Y-321250D02*
Y-333750D01*
X193450D01*
G01X198870D02*
X202750Y-321250D01*
X206630Y-333750D01*
G01X205230Y-329380D02*
X200270D01*
G01X215150Y-321250D02*
Y-333750D01*
G01X211590Y-321250D02*
X218710D01*
G01X230650Y-333750D02*
X224450D01*
Y-321250D01*
X230650D01*
G01X228170Y-327290D02*
X224450D01*
G01X236540Y-333750D02*
Y-321250D01*
X239640D01*
X240880Y-321880D01*
X241810Y-322710D01*
X242590Y-323960D01*
X243210Y-325420D01*
X243360Y-327500D01*
X243210Y-329580D01*
X242590Y-331040D01*
X241810Y-332290D01*
X240880Y-333130D01*
X239640Y-333750D01*
X236540D01*
G01X174850Y-308750D02*
Y-296250D01*
X178570D01*
X179810Y-296880D01*
X180740Y-298330D01*
X181050Y-300000D01*
X180740Y-301670D01*
X179960Y-302920D01*
X178570Y-303540D01*
X174850D01*
G01X187250Y-296250D02*
Y-308750D01*
X193450D01*
G01X198870D02*
X202750Y-296250D01*
X206630Y-308750D01*
G01X205230Y-304380D02*
X200270D01*
G01X215150Y-296250D02*
Y-308750D01*
G01X211590Y-296250D02*
X218710D01*
G01X230650Y-308750D02*
X224450D01*
Y-296250D01*
X230650D01*
G01X228170Y-302290D02*
X224450D01*
G01X236540Y-308750D02*
Y-296250D01*
X239640D01*
X240880Y-296880D01*
X241810Y-297710D01*
X242590Y-298960D01*
X243210Y-300420D01*
X243360Y-302500D01*
X243210Y-304580D01*
X242590Y-306040D01*
X241810Y-307290D01*
X240880Y-308130D01*
X239640Y-308750D01*
X236540D01*
G01X174850Y-283750D02*
Y-271250D01*
X178570D01*
X179810Y-271880D01*
X180740Y-273330D01*
X181050Y-275000D01*
X180740Y-276670D01*
X179960Y-277920D01*
X178570Y-278540D01*
X174850D01*
G01X187250Y-271250D02*
Y-283750D01*
X193450D01*
G01X198870D02*
X202750Y-271250D01*
X206630Y-283750D01*
G01X205230Y-279380D02*
X200270D01*
G01X215150Y-271250D02*
Y-283750D01*
G01X211590Y-271250D02*
X218710D01*
G01X230650Y-283750D02*
X224450D01*
Y-271250D01*
X230650D01*
G01X228170Y-277290D02*
X224450D01*
G01X236540Y-283750D02*
Y-271250D01*
X239640D01*
X240880Y-271880D01*
X241810Y-272710D01*
X242590Y-273960D01*
X243210Y-275420D01*
X243360Y-277500D01*
X243210Y-279580D01*
X242590Y-281040D01*
X241810Y-282290D01*
X240880Y-283130D01*
X239640Y-283750D01*
X236540D01*
G01X174850Y-258750D02*
Y-246250D01*
X178570D01*
X179810Y-246880D01*
X180740Y-248330D01*
X181050Y-250000D01*
X180740Y-251670D01*
X179960Y-252920D01*
X178570Y-253540D01*
X174850D01*
G01X187250Y-246250D02*
Y-258750D01*
X193450D01*
G01X198870D02*
X202750Y-246250D01*
X206630Y-258750D01*
G01X205230Y-254380D02*
X200270D01*
G01X215150Y-246250D02*
Y-258750D01*
G01X211590Y-246250D02*
X218710D01*
G01X230650Y-258750D02*
X224450D01*
Y-246250D01*
X230650D01*
G01X228170Y-252290D02*
X224450D01*
G01X236540Y-258750D02*
Y-246250D01*
X239640D01*
X240880Y-246880D01*
X241810Y-247710D01*
X242590Y-248960D01*
X243210Y-250420D01*
X243360Y-252500D01*
X243210Y-254580D01*
X242590Y-256040D01*
X241810Y-257290D01*
X240880Y-258130D01*
X239640Y-258750D01*
X236540D01*
G01X174850Y-233750D02*
Y-221250D01*
X178570D01*
X179810Y-221880D01*
X180740Y-223330D01*
X181050Y-225000D01*
X180740Y-226670D01*
X179960Y-227920D01*
X178570Y-228540D01*
X174850D01*
G01X187250Y-221250D02*
Y-233750D01*
X193450D01*
G01X198870D02*
X202750Y-221250D01*
X206630Y-233750D01*
G01X205230Y-229380D02*
X200270D01*
G01X215150Y-221250D02*
Y-233750D01*
G01X211590Y-221250D02*
X218710D01*
G01X230650Y-233750D02*
X224450D01*
Y-221250D01*
X230650D01*
G01X228170Y-227290D02*
X224450D01*
G01X236540Y-233750D02*
Y-221250D01*
X239640D01*
X240880Y-221880D01*
X241810Y-222710D01*
X242590Y-223960D01*
X243210Y-225420D01*
X243360Y-227500D01*
X243210Y-229580D01*
X242590Y-231040D01*
X241810Y-232290D01*
X240880Y-233130D01*
X239640Y-233750D01*
X236540D01*
G01X272500Y-215000D02*
Y-390000D01*
G01X295900Y-298330D02*
X296840Y-297080D01*
X297920Y-296460D01*
X299160Y-296250D01*
X300710Y-296670D01*
X301800Y-297710D01*
X302110Y-298960D01*
X301950Y-300210D01*
X301330Y-301250D01*
X298230Y-303330D01*
X296840Y-304790D01*
X295900Y-306880D01*
X295590Y-308750D01*
X302110D01*
G01X311250D02*
Y-296250D01*
X309390Y-298750D01*
G01Y-308750D02*
X313110D01*
G01X323650Y-296250D02*
X322410Y-296670D01*
X321480Y-297710D01*
X320860Y-298960D01*
X320390Y-300630D01*
X320240Y-302500D01*
X320390Y-304380D01*
X320860Y-306040D01*
X321480Y-307290D01*
X322410Y-308330D01*
X323650Y-308750D01*
X324890Y-308330D01*
X325820Y-307290D01*
X326440Y-306040D01*
X326910Y-304380D01*
X327060Y-302500D01*
X326910Y-300630D01*
X326440Y-298960D01*
X325820Y-297710D01*
X324890Y-296670D01*
X323650Y-296250D01*
G01X295900Y-248330D02*
X296840Y-247080D01*
X297920Y-246460D01*
X299160Y-246250D01*
X300710Y-246670D01*
X301800Y-247710D01*
X302110Y-248960D01*
X301950Y-250210D01*
X301330Y-251250D01*
X298230Y-253330D01*
X296840Y-254790D01*
X295900Y-256880D01*
X295590Y-258750D01*
X302110D01*
G01X311250D02*
Y-246250D01*
X309390Y-248750D01*
G01Y-258750D02*
X313110D01*
G01X320700Y-253540D02*
X321790Y-252080D01*
X322720Y-251250D01*
X323960Y-250830D01*
X325050Y-251250D01*
X325820Y-252080D01*
X326440Y-253330D01*
X326600Y-254790D01*
X326440Y-256040D01*
X325820Y-257290D01*
X324890Y-258330D01*
X323810Y-258750D01*
X322570Y-258330D01*
X321480Y-257080D01*
X320860Y-255210D01*
X320700Y-253130D01*
X321010Y-250420D01*
X321480Y-248960D01*
X322250Y-247500D01*
X323340Y-246460D01*
X324420Y-246250D01*
X325510Y-246670D01*
X326290Y-247710D01*
G01X298850Y-233750D02*
X297610Y-233540D01*
X296530Y-232710D01*
X295590Y-231460D01*
X294970Y-230000D01*
X294660Y-228330D01*
Y-226670D01*
X294970Y-225000D01*
X295590Y-223540D01*
X296530Y-222290D01*
X297610Y-221460D01*
X298850Y-221250D01*
X300090Y-221460D01*
X301170Y-222290D01*
X302110Y-223540D01*
X302730Y-225000D01*
X303040Y-226670D01*
Y-228330D01*
X302730Y-230000D01*
X302110Y-231460D01*
X301170Y-232710D01*
X300090Y-233540D01*
X298850Y-233750D01*
G01X300090Y-230420D02*
X301950Y-233750D01*
G01X311250Y-221250D02*
Y-233750D01*
G01X307690Y-221250D02*
X314810D01*
G01X323650Y-233750D02*
Y-228130D01*
X320550Y-221250D01*
G01X326750D02*
X323650Y-228130D01*
G01X313110Y-383750D02*
Y-371250D01*
X307370Y-380210D01*
X315130D01*
G01X308300Y-348330D02*
X309240Y-347080D01*
X310320Y-346460D01*
X311560Y-346250D01*
X313110Y-346670D01*
X314200Y-347710D01*
X314510Y-348960D01*
X314350Y-350210D01*
X313730Y-351250D01*
X310630Y-353330D01*
X309240Y-354790D01*
X308300Y-356880D01*
X307990Y-358750D01*
X314510D01*
G01X308300Y-328540D02*
X309390Y-327080D01*
X310320Y-326250D01*
X311560Y-325830D01*
X312650Y-326250D01*
X313420Y-327080D01*
X314040Y-328330D01*
X314200Y-329790D01*
X314040Y-331040D01*
X313420Y-332290D01*
X312490Y-333330D01*
X311410Y-333750D01*
X310170Y-333330D01*
X309080Y-332080D01*
X308460Y-330210D01*
X308300Y-328130D01*
X308610Y-325420D01*
X309080Y-323960D01*
X309850Y-322500D01*
X310940Y-321460D01*
X312020Y-321250D01*
X313110Y-321670D01*
X313890Y-322710D01*
G01X308300Y-273330D02*
X309240Y-272080D01*
X310320Y-271460D01*
X311560Y-271250D01*
X313110Y-271670D01*
X314200Y-272710D01*
X314510Y-273960D01*
X314350Y-275210D01*
X313730Y-276250D01*
X310630Y-278330D01*
X309240Y-279790D01*
X308300Y-281880D01*
X307990Y-283750D01*
X314510D01*
M02*
