G04 ================== begin FILE IDENTIFICATION RECORD ==================*
G04 Layout Name:  D:/temp_desktop/Graduate/Design/Hardware/scheme/core/PCB/core.brd*
G04 Film Name:    GND*
G04 File Format:  Gerber RS274X*
G04 File Origin:  Cadence Allegro 17.4-S016*
G04 Origin Date:  Mon Apr 12 16:17:46 2021*
G04 *
G04 Layer:  BOARD GEOMETRY/DESIGN_OUTLINE*
G04 Layer:  ETCH/GND*
G04 Layer:  PIN/GND*
G04 Layer:  VIA CLASS/GND*
G04 *
G04 Offset:    (0.0 0.0)*
G04 Mirror:    No*
G04 Mode:      Positive*
G04 Rotation:  0*
G04 FullContactRelief:  Yes*
G04 UndefLineWidth:     0.0*
G04 ================== end FILE IDENTIFICATION RECORD ====================*
%FSLAX55Y55*MOIN*%
%IR0*IPPOS*OFA0.00000B0.00000*MIA0B0*SFA1.00000B1.00000*%
%ADD11C,.02*%
%ADD12C,.0632*%
%ADD10C,.0551*%
%ADD13C,.0354*%
%ADD14C,.006*%
%ADD15C,.01*%
%ADD22C,.1344*%
%ADD16C,.0324*%
%ADD17C,.0292*%
%ADD19C,.0654*%
%ADD18C,.0674*%
%ADD21C,.0756*%
%ADD20C,.0478*%
G75*
%LPD*%
G75*
G36*
G01X-184800Y153460D02*
X184800D01*
G02X192860Y145400I0J-8060D01*
G01Y-145400D01*
G02X184800Y-153460I-8060J0D01*
G01X-184800D01*
G02X-192860Y-145400I0J8060D01*
G01Y145400D01*
G02X-184800Y153460I8060J0D01*
G37*
%LPC*%
G75*
G36*
G01X-24030Y109560D02*
G02X-24120Y110100I1531J533D01*
G02X-22500Y108480I1620J0D01*
G02X-22980Y108550I-9J1621D01*
G03X-23470Y108040I-113J-382D01*
G02X-23380Y107500I-1531J-533D01*
G02X-25000Y109120I-1620J0D01*
G02X-24520Y109050I9J-1621D01*
G03X-24030Y109560I113J382D01*
G37*
G36*
G01X-115240Y-54040D02*
G03Y-53520I-306J260D01*
G02X-115620Y-52480I1233J1040D01*
G02X-112380I1620J0D01*
G02X-112760Y-53520I-1613J0D01*
G03Y-54040I306J-260D01*
G02X-112380Y-55080I-1233J-1040D01*
G02X-115620I-1620J0D01*
G02X-115240Y-54040I1613J0D01*
G37*
G36*
G01X-41240Y-72170D02*
X-28280Y-59210D01*
G02X-27490Y-58890I781J-794D01*
G01X27500D01*
G02X28290Y-59210I9J-1114D01*
G01X31030Y-61960D01*
X31160Y-61910D01*
G02X32500Y-61630I1345J-3089D01*
G02X29130Y-65000I0J-3370D01*
G02X29410Y-63660I3369J-5D01*
G01X29460Y-63530D01*
X27040Y-61110D01*
X-27030D01*
X-39340Y-73420D01*
Y-96320D01*
G02X-38830Y-97500I-1110J-1180D01*
G02X-42070I-1620J0D01*
G02X-41560Y-96320I1620J0D01*
G01Y-72960D01*
G02X-41240Y-72170I1114J9D01*
G37*
G36*
G01X-96510Y-44610D02*
Y-43680D01*
G02X-97020Y-42500I1110J1180D01*
G02X-93780I1620J0D01*
G02X-94230Y-43620I-1619J0D01*
G01X-94290Y-43680D01*
Y-44150D01*
X-91650Y-46790D01*
X-91580D01*
G02X-90840Y-47110I-42J-1112D01*
G01X-89610Y-48340D01*
G02X-89290Y-49080I-792J-782D01*
G01Y-49150D01*
X-85470Y-52960D01*
G02X-85150Y-53750I-794J-781D01*
G01Y-53760D01*
G02X-85520Y-54590I-1116J0D01*
G01Y-55410D01*
X-84940Y-55990D01*
X-84120D01*
G02X-83290Y-55620I830J-746D01*
G01X-83280D01*
G02X-82490Y-55940I9J-1114D01*
G01X-79550Y-58890D01*
X-66180D01*
G02X-65000Y-58380I1180J-1110D01*
G02Y-61620I0J-1620D01*
G02X-66180Y-61110I0J1620D01*
G01X-80010D01*
G02X-80800Y-60790I-9J1114D01*
G01X-83400Y-58180D01*
X-83500Y-58200D01*
G02X-83660Y-58210I-149J1101D01*
G01X-85400D01*
G02X-86190Y-57890I-9J1114D01*
G01X-87420Y-56660D01*
G02X-87740Y-55870I794J781D01*
G01Y-54130D01*
G02X-87730Y-53970I1111J11D01*
G01X-87710Y-53870D01*
X-91190Y-50400D01*
G02X-91510Y-49660I792J782D01*
G01Y-49590D01*
X-92090Y-49010D01*
X-92160D01*
G02X-92900Y-48690I42J1112D01*
G01X-96190Y-45400D01*
G02X-96510Y-44610I794J781D01*
G37*
G36*
G01X-31110Y97960D02*
Y116820D01*
G02X-33370Y120000I1107J3180D01*
G02X-26630I3370J0D01*
G02X-28890Y116820I-3367J0D01*
G01Y97500D01*
G02X-29210Y96710I-1114J-9D01*
G01X-31710Y94210D01*
G02X-32500Y93890I-781J794D01*
G01X-97040D01*
X-101390Y89540D01*
Y79310D01*
G03X-100810Y78950I402J0D01*
G02X-100100Y79120I722J-1447D01*
G02Y75880I0J-1620D01*
G02X-100810Y76050I12J1617D01*
G03X-101390Y75690I-178J-360D01*
G01Y-72040D01*
X-88970Y-84460D01*
X-88840Y-84410D01*
G02X-87500Y-84130I1345J-3089D01*
G02X-90870Y-87500I0J-3370D01*
G02X-90590Y-86160I3369J-5D01*
G01X-90540Y-86030D01*
X-103290Y-73290D01*
G02X-103610Y-72500I794J781D01*
G01Y90000D01*
G02X-103290Y90790I1114J9D01*
G01X-98290Y95790D01*
G02X-97500Y96110I781J-794D01*
G01X-46250D01*
G03X-45900Y96710I2J401D01*
G02X-46110Y97500I1408J797D01*
G02X-42870I1620J0D01*
G02X-43080Y96710I-1618J7D01*
G03X-42730Y96110I348J-199D01*
G01X-32960D01*
X-31110Y97960D01*
G37*
G36*
G01X-69550Y6750D02*
G02X-69660Y7330I1509J587D01*
G02X-66420I1620J0D01*
G02X-66680Y6460I-1617J9D01*
G03X-66620Y5950I339J-219D01*
G01X-66610Y5940D01*
X-65230Y4570D01*
X-65090Y4680D01*
G02X-64100Y5020I990J-1271D01*
G02X-62480Y3400I0J-1620D01*
G02X-62500Y3160I-1619J14D01*
G01Y-300D01*
G02X-62480Y-540I-1599J-254D01*
G02X-62500Y-780I-1619J14D01*
G01Y-2500D01*
X-62840D01*
G03X-63090Y-3210I-1J-399D01*
G02X-62480Y-4480I-1017J-1270D01*
G02X-65720I-1620J0D01*
G02X-65110Y-3210I1627J0D01*
G03X-65360Y-2500I-249J311D01*
G01X-70000D01*
Y-1800D01*
G03X-70710Y-1550I-399J1D01*
G02X-71980Y-2160I-1270J1017D01*
G02X-73600Y-540I0J1620D01*
G02X-73530Y-70I1613J0D01*
G03X-73910Y450I-382J120D01*
G01X-78900D01*
X-78980Y370D01*
X-81580D01*
X-81660Y450D01*
X-83260D01*
X-84780Y-1070D01*
Y-14360D01*
G03X-84260Y-14740I400J2D01*
G02X-83790Y-14670I470J-1543D01*
G02Y-17910I0J-1620D01*
G02X-84260Y-17840I0J1613D01*
G03X-84780Y-18220I-120J-382D01*
G01Y-23930D01*
X-81810Y-26900D01*
X-81750Y-26920D01*
G02X-81210Y-27210I-236J-1087D01*
G01X-74580Y-33850D01*
X-58280D01*
G02X-57100Y-33340I1180J-1110D01*
G02Y-36580I0J-1620D01*
G02X-58280Y-36070I0J1620D01*
G01X-62010D01*
G03X-62300Y-36750I-4J-400D01*
G01X-57420Y-41630D01*
X-57340D01*
G02X-55750Y-43250I-30J-1620D01*
G02X-57370Y-44870I-1620J0D01*
G02X-58990Y-43280I0J1620D01*
G01Y-43200D01*
X-64520Y-37670D01*
X-66340D01*
X-66690Y-38020D01*
Y-38370D01*
G02X-67010Y-39160I-1114J-9D01*
G01X-68240Y-40390D01*
G02X-68660Y-40650I-782J793D01*
G03X-68800Y-41310I138J-374D01*
G02X-68280Y-42500I-1102J-1190D01*
G02X-71520I-1620J0D01*
G02X-70690Y-41080I1630J0D01*
G01X-70590Y-41030D01*
Y-40710D01*
X-70870D01*
G02X-71660Y-40390I-9J1114D01*
G01X-74370Y-37670D01*
X-75940D01*
G02X-76730Y-37350I-9J1114D01*
G01X-85290Y-28790D01*
G02X-85580Y-28250I797J776D01*
G01X-85600Y-28190D01*
X-88140Y-25640D01*
G02X-88410Y-25000I638J646D01*
G01Y0D01*
G02X-88140Y640I908J-6D01*
G01X-83140Y5640D01*
G02X-82500Y5910I646J-638D01*
G01X-77880D01*
G02X-77520Y6150I671J-616D01*
G03X-77280Y6660I-136J376D01*
G02X-77370Y7200I1531J533D01*
G02X-74130I1620J0D01*
G02X-74200Y6730I-1613J0D01*
G03X-73820Y6210I382J-120D01*
G01X-69930D01*
G03X-69550Y6750I4J401D01*
G37*
G36*
G01X-50790Y90790D02*
G02X-50000Y91110I781J-794D01*
G01X-35000D01*
G02X-34210Y90790I9J-1114D01*
G01X-33430Y90000D01*
X-32500D01*
Y89130D01*
X-32320Y89110D01*
G02Y85890I-180J-1610D01*
G01X-32500Y85870D01*
Y85000D01*
X-33610D01*
X-33630Y84820D01*
G02X-36850I-1610J180D01*
G01X-36870Y85000D01*
X-37500D01*
Y85690D01*
X-38200Y86390D01*
X-47040D01*
X-53890Y79540D01*
Y58000D01*
G02X-54090Y57360I-1124J0D01*
G01Y32380D01*
X-53690Y31970D01*
G02X-53420Y31330I-638J-646D01*
G01Y27210D01*
X-51820Y25610D01*
X-50700D01*
G03X-50320Y26130I-2J400D01*
G02X-50390Y26600I1543J470D01*
G02X-48770Y28220I1620J0D01*
G02X-48070Y28060I0J-1611D01*
G03X-47500Y28420I170J362D01*
G01Y28720D01*
G03X-48070Y29080I-400J-2D01*
G02X-48770Y28920I-700J1451D01*
G02X-47150Y30540I0J1620D01*
G01Y30430D01*
G03X-46760Y30000I397J-32D01*
G01X-46420D01*
Y30240D01*
G02X-46450Y30540I1589J310D01*
G02X-44830Y32160I1620J0D01*
G02X-44250Y32050I-7J-1619D01*
G03X-43710Y32430I139J376D01*
G01Y36520D01*
G03X-44250Y36900I-401J4D01*
G02X-44830Y36790I-587J1509D01*
G02Y40030I0J1620D01*
G02X-44250Y39920I-7J-1619D01*
G03X-43710Y40300I139J376D01*
G01Y57360D01*
G02X-43910Y58000I924J640D01*
G01Y69000D01*
G02X-43590Y69790I1114J9D01*
G01X-40090Y73290D01*
G02X-39300Y73610I781J-794D01*
G01X-31600D01*
X-31250Y73960D01*
Y81450D01*
G02X-31760Y82630I1110J1180D01*
G02X-28520I1620J0D01*
G02X-29030Y81450I-1620J0D01*
G01Y73500D01*
G02X-29350Y72710I-1114J-9D01*
G01X-30350Y71710D01*
G02X-31140Y71390I-781J794D01*
G01X-38840D01*
X-41690Y68540D01*
Y58000D01*
G02X-41890Y57360I-1124J0D01*
G01Y40340D01*
G03X-41370Y39960I400J2D01*
G02X-40900Y40030I470J-1543D01*
G02Y36790I0J-1620D01*
G02X-41370Y36860I0J1613D01*
G03X-41890Y36480I-120J-382D01*
G01Y36410D01*
G03X-41370Y36030I400J2D01*
G02X-40900Y36100I470J-1543D01*
G02Y32860I0J-1620D01*
G02X-41510Y32980I0J1610D01*
G01X-41630Y33030D01*
X-41870Y32790D01*
X-41210Y32130D01*
X-41110Y32150D01*
G02X-40900Y32160I182J-1611D01*
G02X-40500Y32110I0J-1625D01*
G03X-40000Y32500I100J387D01*
G01X-34250D01*
G03X-34010Y33220I-1J400D01*
G02X-34640Y34500I985J1280D01*
G02X-33020Y36120I1620J0D01*
G02X-32150Y35860I-9J-1617D01*
G03X-31640Y35920I219J339D01*
G01X-31630Y35930D01*
X-30910Y36660D01*
Y57360D01*
G02X-31110Y58000I924J640D01*
G01Y66500D01*
G02X-30790Y67290I1114J9D01*
G01X-29790Y68290D01*
G02X-29000Y68610I781J-794D01*
G01X-27960D01*
X-26110Y70460D01*
Y82500D01*
G02X-25790Y83290I1114J9D01*
G01X-24120Y84950D01*
Y85030D01*
G02X-22500Y86620I1620J-30D01*
G02X-20880Y85000I0J-1620D01*
G02X-22470Y83380I-1620J0D01*
G01X-22550D01*
X-23890Y82040D01*
Y70000D01*
G02X-24210Y69210I-1114J-9D01*
G01X-26710Y66710D01*
G02X-27500Y66390I-781J794D01*
G01X-28540D01*
X-28890Y66040D01*
Y58000D01*
G02X-29090Y57360I-1124J0D01*
G01Y36130D01*
X-28910Y36110D01*
G02X-27470Y34500I-180J-1610D01*
G02X-29090Y32880I-1620J0D01*
G02X-29590Y32960I3J1620D01*
G03X-30110Y32580I-120J-382D01*
G01Y30120D01*
G02X-30380Y29480I-908J6D01*
G01X-31990Y27860D01*
X-31850Y27720D01*
G02X-31400Y26600I-1169J-1120D01*
G02X-32380Y25110I-1623J0D01*
G01X-32500Y25060D01*
Y25000D01*
X-32780D01*
G02X-33020Y24980I-254J1599D01*
G02X-33260Y25000I14J1619D01*
G01X-36720D01*
G02X-36960Y24980I-254J1599D01*
G02X-37200Y25000I14J1619D01*
G01X-37500D01*
Y24780D01*
G03X-37100Y24380I399J-1D01*
G01X-37090D01*
G02X-35430Y22760I40J-1620D01*
G02X-35500Y22280I-1621J-9D01*
G03X-35080Y21770I381J-114D01*
G01X-30940D01*
G03X-30560Y22290I-2J400D01*
G02X-30630Y22760I1543J470D01*
G02X-27390I1620J0D01*
G02X-27460Y22290I-1613J0D01*
G03X-27080Y21770I382J-120D01*
G01X-22320D01*
X-15910Y28180D01*
Y57360D01*
G02X-16110Y58000I924J640D01*
G01Y82600D01*
G02X-15790Y83390I1114J9D01*
G01X-13600Y85570D01*
Y85930D01*
X-13660Y85990D01*
G02X-14110Y87110I1169J1120D01*
G02X-10870I1620J0D01*
G02X-11380Y85930I-1620J0D01*
G01Y85110D01*
G02X-11700Y84320I-1114J-9D01*
G01X-13890Y82140D01*
Y80350D01*
X-13560D01*
X-13510Y80470D01*
G02X-13290Y80790I1014J-461D01*
G01X-11620Y82450D01*
Y82530D01*
G02X-10000Y84120I1620J-30D01*
G02X-8380Y82500I0J-1620D01*
G02X-9970Y80880I-1620J0D01*
G01X-10050D01*
X-11390Y79540D01*
Y58000D01*
G02X-11590Y57360I-1124J0D01*
G01Y17590D01*
G02X-11860Y16950I-908J6D01*
G01X-12530Y16280D01*
G03X-12510Y15690I283J-286D01*
G02X-12460Y15640I-615J-665D01*
G01X-11130Y14310D01*
G02X-10860Y13670I-638J-646D01*
G01Y-17850D01*
X-9360Y-19360D01*
G02X-9090Y-20000I-638J-646D01*
G01Y-22890D01*
X-8910Y-23060D01*
G02X-8590Y-23850I-794J-781D01*
G01Y-25590D01*
G02X-8910Y-26380I-1114J-9D01*
G01X-9090Y-26550D01*
Y-27360D01*
G02X-8890Y-28000I-924J-640D01*
G01Y-29000D01*
G02X-9210Y-29790I-1114J-9D01*
G01X-10210Y-30790D01*
G02X-11000Y-31110I-781J794D01*
G01X-15600D01*
G02X-16390Y-30790I-9J1114D01*
G01X-18390Y-28790D01*
G02X-18680Y-28250I797J776D01*
G01X-18700Y-28190D01*
X-19390Y-27500D01*
X-25040D01*
G03X-25380Y-27270I-361J-168D01*
G02X-26940Y-25650I61J1620D01*
G02X-26230Y-24310I1620J0D01*
G01Y-23110D01*
G02X-25960Y-22470I908J-6D01*
G01X-22850Y-19360D01*
G02X-22210Y-19090I646J-638D01*
G01X-18480D01*
X-18410Y-19020D01*
Y-8480D01*
X-18480Y-8410D01*
X-27460D01*
X-27480Y-8590D01*
G02X-29090Y-10030I-1610J180D01*
G02X-30710Y-8410I0J1620D01*
G02X-30640Y-7940I1613J0D01*
G03X-31020Y-7420I-382J120D01*
G01X-31090D01*
G03X-31470Y-7940I2J-400D01*
G02X-31400Y-8410I-1543J-470D01*
G02X-34640I-1620J0D01*
G02X-34570Y-7940I1613J0D01*
G03X-34950Y-7420I-382J120D01*
G01X-35030D01*
G03X-35410Y-7940I2J-400D01*
G02X-35340Y-8410I-1543J-470D01*
G02X-38580I-1620J0D01*
G02X-38510Y-7940I1613J0D01*
G03X-38890Y-7420I-382J120D01*
G01X-38970D01*
G03X-39350Y-7940I2J-400D01*
G02X-39280Y-8410I-1543J-470D01*
G02X-42520I-1620J0D01*
G02X-42410Y-7830I1619J-7D01*
G03X-42790Y-7290I-376J139D01*
G01X-42940D01*
G03X-43320Y-7830I-4J-401D01*
G02X-43210Y-8410I-1509J-587D01*
G02X-46450I-1620J0D01*
G02X-46300Y-7740I1618J-10D01*
G03X-46500Y-7210I-365J165D01*
G02X-46760Y-7020I398J817D01*
G01X-46820Y-6970D01*
G03X-47500Y-7250I-281J-284D01*
G01Y-7400D01*
X-47460Y-7450D01*
G02X-47150Y-8410I-1312J-954D01*
G02X-47860Y-9750I-1620J0D01*
G01Y-27360D01*
G02X-47660Y-28000I-924J-640D01*
G01Y-36790D01*
X-46630D01*
G02X-45840Y-37110I9J-1114D01*
G01X-44610Y-38340D01*
G02X-44290Y-39130I-794J-781D01*
G01Y-40870D01*
G02X-44610Y-41660I-1114J-9D01*
G01X-45840Y-42890D01*
G02X-46630Y-43210I-781J794D01*
G01X-47660D01*
Y-91270D01*
G02X-47980Y-92060I-1114J-9D01*
G01X-59290Y-103360D01*
Y-103430D01*
G02X-59610Y-104160I-1112J52D01*
G01X-60840Y-105390D01*
G02X-61630Y-105710I-781J794D01*
G01X-63370D01*
G02X-64160Y-105390I-9J1114D01*
G01X-65930Y-103610D01*
X-92500D01*
G02X-93290Y-103290I-9J1114D01*
G01X-96040Y-100540D01*
G02X-97500Y-100870I-1455J3041D01*
G02X-94130Y-97500I0J3370D01*
G02X-94460Y-98960I-3371J-5D01*
G01X-92040Y-101390D01*
X-65470D01*
G02X-64680Y-101710I9J-1114D01*
G01X-62910Y-103490D01*
X-62090D01*
X-61510Y-102910D01*
Y-102840D01*
G02X-61190Y-102110I1112J-52D01*
G01X-50210Y-91140D01*
X-50460Y-90890D01*
X-50590Y-90970D01*
G02X-51140Y-91110I-540J972D01*
G01X-59540D01*
X-64210Y-95790D01*
G02X-65000Y-96110I-781J794D01*
G01X-73970D01*
G03X-74350Y-96620I4J-400D01*
G02X-74230Y-97500I-3150J-878D01*
G02X-80770I-3270J0D01*
G02X-80650Y-96620I3270J2D01*
G03X-81030Y-96110I-384J110D01*
G01X-83860D01*
G03X-84250Y-96620I-4J-401D01*
G02X-84130Y-97500I-3248J-891D01*
G02X-90870I-3370J0D01*
G02X-90140Y-95400I3372J5D01*
G03X-90450Y-94750I-310J251D01*
G01X-91360D01*
G02X-92150Y-94430I-9J1114D01*
G01X-96040Y-90540D01*
G02X-97500Y-90870I-1455J3041D01*
G02X-94130Y-87500I0J3370D01*
G02X-94460Y-88960I-3371J-5D01*
G01X-90900Y-92530D01*
X-85900D01*
G02X-85110Y-92850I9J-1114D01*
G01X-84080Y-93890D01*
X-80920D01*
X-79890Y-92850D01*
G02X-79100Y-92530I781J-794D01*
G01X-75900D01*
G02X-75110Y-92850I9J-1114D01*
G01X-74080Y-93890D01*
X-65460D01*
X-60790Y-89210D01*
G02X-60000Y-88890I781J-794D01*
G01X-51650D01*
Y-28000D01*
G02X-51450Y-27360I1124J0D01*
G01Y-9670D01*
X-51470Y-9630D01*
G02X-51580Y-9200I799J433D01*
G01Y-3690D01*
G02X-51470Y-3260I909J-3D01*
G01X-51450Y-3220D01*
Y-1520D01*
X-51520Y-1450D01*
X-54890D01*
G02X-55200Y-1790I-1340J910D01*
G03X-55000Y-2500I251J-312D01*
G01Y-3430D01*
G02Y-5530I-1218J-1050D01*
G01Y-7360D01*
G02X-54610Y-8410I-1218J-1050D01*
G02X-56230Y-10030I-1620J0D01*
G02X-56700Y-9960I0J1613D01*
G03X-57220Y-10340I-120J-382D01*
G01Y-19690D01*
X-56930Y-19990D01*
G02X-56660Y-20630I-638J-646D01*
G01Y-21160D01*
G02X-55950Y-22500I-910J-1340D01*
G02X-59190I-1620J0D01*
G02X-58710Y-21350I1618J0D01*
G03Y-20780I-280J285D01*
G01X-58770Y-20710D01*
G02X-59040Y-20070I638J646D01*
G01Y-10290D01*
G03X-59580Y-9920I-399J-4D01*
G02X-60170Y-10030I-587J1511D01*
G02Y-6790I0J1620D01*
G02X-59580Y-6900I3J-1621D01*
G03X-59040Y-6530I141J374D01*
G01Y-2420D01*
G03X-59580Y-2050I-399J-4D01*
G02X-60170Y-2160I-587J1511D01*
G02Y1080I0J1620D01*
G02X-59290Y820I0J-1619D01*
G03X-58790Y880I213J337D01*
G02X-58770Y890I394J-763D01*
G01X-58410Y1260D01*
Y6420D01*
X-62760D01*
G02X-64100Y5710I-1340J910D01*
G02Y8950I0J1620D01*
G02X-62760Y8240I0J-1620D01*
G01X-57670D01*
G02X-57030Y7970I-6J-908D01*
G01X-56860Y7800D01*
G02X-56590Y7160I-638J-646D01*
G01Y1480D01*
G03X-56200Y1080I400J0D01*
G02X-54890Y370I-30J-1620D01*
G01X-51140D01*
G02X-50500Y100I-6J-908D01*
G01X-49900Y-500D01*
G02X-49630Y-1140I-638J-646D01*
G01Y-2510D01*
G03X-49140Y-2900I399J-2D01*
G02X-48770Y-2860I358J-1581D01*
G02X-48180Y-2970I3J-1621D01*
G03X-47640Y-2600I141J374D01*
G01Y1500D01*
Y1510D01*
G03X-48180Y1890I-399J6D01*
G02X-48770Y1780I-587J1511D01*
G02X-47150Y3400I0J1620D01*
G02X-47270Y2790I-1610J0D01*
G01X-47320Y2670D01*
X-47080Y2430D01*
X-46420Y3090D01*
X-46440Y3190D01*
G02X-46450Y3400I1611J182D01*
G02X-44830Y1780I1620J0D01*
G02X-45040Y1790I-28J1621D01*
G01X-45140Y1810D01*
X-45800Y1150D01*
X-45560Y910D01*
X-45440Y960D01*
G02X-44830Y1080I610J-1490D01*
G02Y-2160I0J-1620D01*
G02X-45300Y-2090I0J1613D01*
G03X-45820Y-2470I-120J-382D01*
G01Y-5390D01*
X-45740Y-5470D01*
X-42830D01*
G03X-42450Y-4950I-2J400D01*
G02X-42520Y-4480I1543J470D01*
G02X-39280I1620J0D01*
G02X-39390Y-5060I-1619J7D01*
G03X-39010Y-5600I376J-139D01*
G01X-34910D01*
G03X-34530Y-5060I4J401D01*
G02X-34640Y-4480I1509J587D01*
G02X-31400I1620J0D01*
G02X-31510Y-5060I-1619J7D01*
G03X-31130Y-5600I376J-139D01*
G01X-30980D01*
G03X-30600Y-5060I4J401D01*
G02X-30710Y-4480I1509J587D01*
G02X-27470I1620J0D01*
G02X-27730Y-5350I-1617J9D01*
G03X-27670Y-5860I339J-219D01*
G01X-27660Y-5870D01*
X-26930Y-6590D01*
X-18100D01*
G02X-17960Y-6600I5J-910D01*
G03X-17500Y-6210I60J395D01*
G01Y-5000D01*
X-15380D01*
Y6590D01*
X-17250Y8460D01*
X-27420D01*
G03X-27780Y7890I0J-399D01*
G02X-27630Y7200I-1472J-681D01*
G02X-30870I-1620J0D01*
G02X-30720Y7890I1622J9D01*
G03X-31080Y8460I-360J171D01*
G01X-35080D01*
G03X-35450Y7920I4J-399D01*
G02X-35340Y7330I-1511J-587D01*
G02X-38580I-1620J0D01*
G02X-38460Y7940I1610J0D01*
G01X-38410Y8060D01*
X-38650Y8300D01*
X-39310Y7640D01*
X-39290Y7540D01*
G02X-39280Y7330I-1611J-182D01*
G02X-42520I-1620J0D01*
G02X-42500Y7570I1619J-14D01*
G01Y10020D01*
X-43810Y10010D01*
X-43860Y9970D01*
G02X-44830Y9650I-970J1310D01*
G02Y12890I0J1620D01*
G02X-44620Y12880I28J-1621D01*
G01X-44520Y12860D01*
X-42500Y14890D01*
Y17500D01*
X-43780D01*
G02X-44830Y17110I-1050J1218D01*
G02X-46450Y18730I0J1620D01*
G02X-46440Y18940I1621J28D01*
G01X-46420Y19040D01*
X-47390Y20000D01*
X-47500D01*
Y20110D01*
X-48980Y21590D01*
X-55130D01*
G02X-55770Y21860I6J908D01*
G01X-59080Y25170D01*
G02X-59350Y25810I638J646D01*
G01Y27390D01*
G02X-59040Y28070I901J0D01*
G01Y28790D01*
G03X-59640Y29140I-401J2D01*
G02X-60450Y28920I-815J1399D01*
G02Y32160I0J1620D01*
G02X-59640Y31940I-5J-1619D01*
G03X-59040Y32290I199J348D01*
G01Y36530D01*
G03X-59580Y36900I-399J-4D01*
G02X-60170Y36790I-587J1511D01*
G02Y40030I0J1620D01*
G02X-59580Y39920I3J-1621D01*
G03X-59040Y40290I141J374D01*
G01Y57360D01*
G02X-59240Y58000I924J640D01*
G01Y81870D01*
G02X-58920Y82660I1114J9D01*
G01X-50790Y90790D01*
G37*
G54D22*
X179000Y145000D03*
X-179000Y-145000D03*
X179000D03*
X-178000Y145000D03*
G54D16*
X-85000Y-43080D03*
X60000Y-65000D03*
X-75910Y38410D03*
X-28950Y26600D03*
X-84400Y45780D03*
X-75910Y26600D03*
X-68040Y34890D03*
X-48770Y38410D03*
X-75910Y18730D03*
Y11270D03*
X-48770Y34480D03*
X-71980Y18730D03*
Y11270D03*
Y26600D03*
Y30540D03*
Y34480D03*
X-75910Y22670D03*
X-71950Y38450D03*
X-71980Y42350D03*
X-33020Y38410D03*
X-64100D03*
X-36960D03*
X-33020Y3400D03*
Y-540D03*
X-29090Y3400D03*
X155000Y85000D03*
X-40900Y3400D03*
X-68040Y22670D03*
X-97500Y72500D03*
X-68040Y18730D03*
X-40900Y-540D03*
X-64250Y34480D03*
X30000Y90000D03*
X-64100Y26600D03*
X-68040D03*
X-56650Y14790D03*
X-21210Y46290D03*
X-21100Y-16170D03*
X-64100Y18730D03*
Y22670D03*
Y-8410D03*
X-68100Y-8750D03*
X-71980Y-4480D03*
Y-8410D03*
X-75910Y-4480D03*
X-75660Y-8480D03*
X-130000Y-110000D03*
X32500Y48700D03*
X3880Y-25600D03*
X-36960Y3400D03*
X27500Y61300D03*
X-68040Y11270D03*
X-5000Y107500D03*
X-25150Y46290D03*
X25000Y55500D03*
X-64100Y11270D03*
X-67500Y-90000D03*
X-75330Y-24440D03*
X10240Y-20800D03*
X16880Y-17500D03*
X-29090Y-12350D03*
Y-16290D03*
X-65000Y-55000D03*
X-146800Y100000D03*
X-25300Y-32500D03*
X-17500Y-71260D03*
X-80600Y-22410D03*
X-17500Y-85010D03*
X32500Y95100D03*
X120000Y72500D03*
X-75640Y34530D03*
X67500Y47500D03*
X-52500Y100000D03*
X117500Y-90000D03*
X-15000Y-92500D03*
X82500Y-17500D03*
X-40000Y-107500D03*
X30000Y-19090D03*
X99770Y-72000D03*
X-22500Y-80000D03*
X127500Y-17500D03*
X65000D03*
X17500Y77500D03*
X117350Y47500D03*
X-84850Y-62640D03*
X-65000Y-115000D03*
X90000Y-17500D03*
X-92670Y-24830D03*
X-109200Y-59700D03*
G54D17*
X129610Y-60000D03*
X110390D03*
G54D19*
X-120000Y120000D03*
X110000Y130000D03*
X160000Y110000D03*
X-170000Y120000D03*
X-117500Y-97500D03*
X22500Y-45000D03*
Y-85000D03*
G54D18*
X-82500Y-132500D03*
X-92500Y-122500D03*
Y-132500D03*
X-102500Y-122500D03*
Y-132500D03*
X67500Y-122500D03*
X-112500D03*
X67500Y-132500D03*
X57500Y-122500D03*
Y-132500D03*
X47500Y-122500D03*
Y-132500D03*
X37500Y-122500D03*
Y-132500D03*
X27500Y-122500D03*
Y-132500D03*
X17500Y-122500D03*
X-112500Y-132500D03*
X17500D03*
X7500Y-122500D03*
Y-132500D03*
X-2500Y-122500D03*
Y-132500D03*
X-12500Y-122500D03*
Y-132500D03*
X-22500Y-122500D03*
Y-132500D03*
X-32500Y-122500D03*
X-122500D03*
X-32500Y-132500D03*
X-42500Y-122500D03*
Y-132500D03*
X-52500Y-122500D03*
Y-132500D03*
X-62500Y-122500D03*
Y-132500D03*
X-72500Y-122500D03*
Y-132500D03*
X-82500Y-122500D03*
X-122500Y-132500D03*
X80000Y130000D03*
X90000Y120000D03*
Y130000D03*
X100000Y120000D03*
Y130000D03*
X-120000D03*
X-110000Y120000D03*
Y130000D03*
X-100000Y120000D03*
Y130000D03*
X-90000Y120000D03*
Y130000D03*
X-80000Y120000D03*
Y130000D03*
X-70000Y120000D03*
X110000D03*
X-70000Y130000D03*
X-60000Y120000D03*
Y130000D03*
X-50000Y120000D03*
Y130000D03*
X-40000Y120000D03*
Y130000D03*
X-30000D03*
X-20000Y120000D03*
Y130000D03*
X-10000Y120000D03*
Y130000D03*
X0Y120000D03*
Y130000D03*
X10000Y120000D03*
Y130000D03*
X20000Y120000D03*
Y130000D03*
X30000Y120000D03*
X120000D03*
X30000Y130000D03*
X40000Y120000D03*
Y130000D03*
X50000Y120000D03*
Y130000D03*
X60000Y120000D03*
Y130000D03*
X70000Y120000D03*
Y130000D03*
X80000Y120000D03*
X120000Y130000D03*
X170000Y-80000D03*
X160000Y-90000D03*
X170000D03*
X160000Y-100000D03*
Y120000D03*
X170000Y-100000D03*
Y120000D03*
Y110000D03*
X160000Y100000D03*
X170000D03*
X160000Y90000D03*
X170000D03*
X160000Y80000D03*
X170000D03*
X160000Y70000D03*
Y-110000D03*
X170000Y70000D03*
X160000Y60000D03*
X170000D03*
X160000Y50000D03*
X170000D03*
X160000Y40000D03*
X170000D03*
X160000Y30000D03*
X170000D03*
X160000Y20000D03*
X170000Y-110000D03*
Y20000D03*
X160000Y10000D03*
X170000D03*
X160000Y0D03*
X170000D03*
X160000Y-10000D03*
X170000D03*
X160000Y-20000D03*
X170000D03*
X160000Y-30000D03*
Y-120000D03*
X170000Y-30000D03*
X160000Y-40000D03*
X170000D03*
X160000Y-50000D03*
X170000D03*
X160000Y-60000D03*
X170000D03*
X160000Y-70000D03*
X170000D03*
X160000Y-80000D03*
X170000Y-120000D03*
X-160000Y-80000D03*
X-170000Y-90000D03*
X-160000D03*
X-170000Y-100000D03*
X-160000D03*
Y120000D03*
X-170000Y110000D03*
X-160000D03*
X-170000Y100000D03*
X-160000D03*
X-170000Y90000D03*
X-160000D03*
X-170000Y80000D03*
X-160000D03*
X-170000Y70000D03*
Y-110000D03*
X-160000Y70000D03*
X-170000Y60000D03*
X-160000D03*
X-170000Y50000D03*
X-160000D03*
X-170000Y40000D03*
X-160000D03*
X-170000Y30000D03*
X-160000D03*
X-170000Y20000D03*
X-160000Y-110000D03*
Y20000D03*
X-170000Y10000D03*
X-160000D03*
X-170000Y0D03*
X-160000D03*
X-170000Y-10000D03*
X-160000D03*
X-170000Y-20000D03*
X-160000D03*
X-170000Y-30000D03*
Y-120000D03*
X-160000Y-30000D03*
X-170000Y-40000D03*
X-160000D03*
X-170000Y-50000D03*
X-160000D03*
X-170000Y-60000D03*
X-160000D03*
X-170000Y-70000D03*
X-160000D03*
X-170000Y-80000D03*
X-160000Y-120000D03*
X-117500Y-87500D03*
X-77500D03*
X-107500D03*
Y-97500D03*
X32500Y-75000D03*
Y-45000D03*
Y-85000D03*
X22500Y-75000D03*
X32500Y-55000D03*
X22500D03*
Y-65000D03*
G54D21*
X86810Y-87500D03*
X63190D03*
X86810Y-97340D03*
X63190Y-77660D03*
X86810D03*
X63190Y-97340D03*
G54D20*
X128660Y-129000D03*
X111340D03*
%LPD*%
G75*
G54D10*
X-170000Y-120000D03*
Y-100000D03*
Y-110000D03*
Y-80000D03*
Y-90000D03*
Y-60000D03*
Y-70000D03*
Y-40000D03*
Y-50000D03*
Y-20000D03*
Y-30000D03*
Y0D03*
Y-10000D03*
Y20000D03*
Y10000D03*
Y40000D03*
Y30000D03*
Y50000D03*
Y70000D03*
Y60000D03*
Y90000D03*
Y80000D03*
Y110000D03*
Y100000D03*
Y120000D03*
X-160000Y-120000D03*
Y-100000D03*
Y-110000D03*
Y-80000D03*
Y-90000D03*
Y-60000D03*
Y-70000D03*
Y-40000D03*
Y-50000D03*
Y-20000D03*
Y-30000D03*
Y0D03*
Y-10000D03*
Y20000D03*
Y10000D03*
Y40000D03*
Y30000D03*
Y50000D03*
Y70000D03*
Y60000D03*
Y90000D03*
Y80000D03*
Y110000D03*
Y100000D03*
Y120000D03*
X-112500Y-122500D03*
Y-132500D03*
X-122500Y-122500D03*
Y-132500D03*
X-117500Y-97500D03*
X-107500D03*
X-117500Y-87500D03*
X-107500D03*
X-120000Y120000D03*
Y130000D03*
X-110000Y120000D03*
Y130000D03*
X-92500Y-122500D03*
Y-132500D03*
X-102500Y-122500D03*
Y-132500D03*
X-97500Y-97500D03*
X-87500D03*
X-97500Y-87500D03*
X-87500D03*
X-100000Y120000D03*
Y130000D03*
X-90000Y120000D03*
Y130000D03*
X-72500Y-122500D03*
Y-132500D03*
X-82500Y-122500D03*
Y-132500D03*
X-77500Y-97500D03*
Y-87500D03*
X-80000Y120000D03*
Y130000D03*
X-70000Y120000D03*
Y130000D03*
X-52500Y-122500D03*
Y-132500D03*
X-62500Y-122500D03*
Y-132500D03*
X-60000Y120000D03*
Y130000D03*
X-50000Y120000D03*
Y130000D03*
X-32500Y-122500D03*
Y-132500D03*
X-42500Y-122500D03*
Y-132500D03*
X-40000Y120000D03*
Y130000D03*
X-30000Y120000D03*
Y130000D03*
X-12500Y-122500D03*
Y-132500D03*
X-22500Y-122500D03*
Y-132500D03*
X-20000Y120000D03*
Y130000D03*
X-10000Y120000D03*
Y130000D03*
X7500Y-122500D03*
Y-132500D03*
X-2500Y-122500D03*
Y-132500D03*
X0Y120000D03*
Y130000D03*
X10000Y120000D03*
Y130000D03*
X27500Y-122500D03*
Y-132500D03*
X17500Y-122500D03*
Y-132500D03*
X22500Y-85000D03*
Y-65000D03*
Y-75000D03*
Y-45000D03*
Y-55000D03*
X20000Y120000D03*
Y130000D03*
X30000Y120000D03*
Y130000D03*
X47500Y-122500D03*
Y-132500D03*
X37500Y-122500D03*
Y-132500D03*
X32500Y-85000D03*
Y-65000D03*
Y-75000D03*
Y-45000D03*
Y-55000D03*
X40000Y120000D03*
Y130000D03*
X50000Y120000D03*
Y130000D03*
X67500Y-122500D03*
Y-132500D03*
X57500Y-122500D03*
Y-132500D03*
X60000Y120000D03*
Y130000D03*
X70000Y120000D03*
Y130000D03*
X80000Y120000D03*
Y130000D03*
X90000Y120000D03*
Y130000D03*
X100000Y120000D03*
Y130000D03*
X110000Y120000D03*
Y130000D03*
X120000Y120000D03*
Y130000D03*
X160000Y-120000D03*
Y-100000D03*
Y-110000D03*
Y-80000D03*
Y-90000D03*
Y-60000D03*
Y-70000D03*
Y-40000D03*
Y-50000D03*
Y-20000D03*
Y-30000D03*
Y0D03*
Y-10000D03*
Y20000D03*
Y10000D03*
Y40000D03*
Y30000D03*
Y50000D03*
Y70000D03*
Y60000D03*
Y90000D03*
Y80000D03*
Y110000D03*
Y100000D03*
Y120000D03*
X170000Y-120000D03*
Y-100000D03*
Y-110000D03*
Y-80000D03*
Y-90000D03*
Y-60000D03*
Y-70000D03*
Y-40000D03*
Y-50000D03*
Y-20000D03*
Y-30000D03*
Y0D03*
Y-10000D03*
Y20000D03*
Y10000D03*
Y40000D03*
Y30000D03*
Y50000D03*
Y70000D03*
Y60000D03*
Y90000D03*
Y80000D03*
Y110000D03*
Y100000D03*
Y120000D03*
G54D11*
X-146800Y100000D03*
X-130000Y-110000D03*
X-125610Y-51890D03*
X-109200Y-59700D03*
X-114000Y-52480D03*
Y-55080D03*
X-95400Y-42500D03*
X-92500Y-52500D03*
X-92670Y-24830D03*
X-97500Y72500D03*
X-100100Y77500D03*
X-67500Y-90000D03*
X-84850Y-62640D03*
X-82500Y-72500D03*
X-69900Y-42500D03*
X-85000Y-43080D03*
X-80600Y-22410D03*
X-75330Y-24440D03*
X-69900Y-37500D03*
X-68100Y-8750D03*
X-83790Y-16290D03*
X-75910Y-4480D03*
X-80000Y-12500D03*
X-68040Y-4480D03*
X-75910Y-540D03*
X-68040Y-12350D03*
X-75660Y-8480D03*
X-71980Y-8410D03*
Y-4480D03*
Y-540D03*
X-68040D03*
X-75750Y7200D03*
X-71980Y7330D03*
X-75910Y3400D03*
X-71980D03*
Y11270D03*
Y18730D03*
X-75910Y11270D03*
Y18730D03*
X-68040Y3400D03*
Y7330D03*
Y11270D03*
Y18730D03*
Y34890D03*
X-75640Y34530D03*
X-75910Y22670D03*
X-71980Y34480D03*
Y22670D03*
X-75910Y30540D03*
Y26600D03*
Y38410D03*
X-71980Y26600D03*
Y30540D03*
X-71950Y38450D03*
X-68040Y22670D03*
Y26600D03*
X-84400Y45780D03*
X-79850Y42350D03*
X-71980D03*
X-65000Y-115000D03*
Y-60000D03*
Y-67500D03*
Y-55000D03*
X-57370Y-43250D03*
X-65590Y-26920D03*
X-57570Y-22500D03*
X-57100Y-34960D03*
X-56230Y-4480D03*
Y-540D03*
X-64100Y-4480D03*
X-60170Y-8410D03*
Y-4480D03*
X-56230Y-8410D03*
X-48770Y-4480D03*
Y-8410D03*
X-64100D03*
Y-540D03*
X-60170D03*
X-56650Y14790D03*
X-52710D03*
X-48770Y3400D03*
X-64100Y7330D03*
Y11270D03*
Y18730D03*
Y3400D03*
X-60170Y38410D03*
X-60450Y30540D03*
X-56230D03*
X-60450Y34760D03*
X-64520Y30680D03*
X-48770Y26600D03*
Y30540D03*
Y34480D03*
Y38410D03*
X-64100Y22670D03*
Y26600D03*
Y38410D03*
X-64250Y34480D03*
X-56540Y26600D03*
X-52500Y100000D03*
X-40000Y-107500D03*
X-40450Y-97500D03*
X-37500Y-95000D03*
X-47500Y-40000D03*
X-29090Y-4480D03*
X-36960Y-8410D03*
X-44830D03*
X-33020Y-4480D03*
X-40900Y-540D03*
X-44830Y-4480D03*
X-29090Y-540D03*
X-36960D03*
X-44830D03*
X-40900Y-8410D03*
Y-4480D03*
X-33020Y-8410D03*
Y-540D03*
X-29090Y-16290D03*
Y-12350D03*
Y-8410D03*
X-29250Y7200D03*
X-33020Y7330D03*
X-44830Y3400D03*
Y11270D03*
Y18730D03*
X-40900Y3400D03*
Y7330D03*
Y11270D03*
Y18730D03*
X-36960Y3400D03*
Y7330D03*
Y11270D03*
Y18730D03*
X-33020Y3400D03*
Y11270D03*
Y18730D03*
X-29090Y3400D03*
Y11270D03*
X-29010Y18490D03*
X-36960Y38410D03*
X-44830D03*
X-29090Y34500D03*
X-29010Y22760D03*
X-44830Y34480D03*
X-33110Y22760D03*
X-28970Y30600D03*
X-36860Y34480D03*
X-44830Y22670D03*
Y26600D03*
Y30540D03*
X-40900Y22670D03*
Y26600D03*
Y30540D03*
Y34480D03*
Y38410D03*
X-36960Y26600D03*
X-36720Y30540D03*
X-33020Y26600D03*
X-32920Y30910D03*
X-33020Y34500D03*
Y38410D03*
X-28950Y26600D03*
X-37050Y22760D03*
X-32500Y87500D03*
X-35240Y85000D03*
X-30140Y82630D03*
X-44490Y97500D03*
X-15000Y-92500D03*
X-22500Y-80000D03*
X-17500Y-85010D03*
Y-71260D03*
Y-52500D03*
X-25300Y-32500D03*
X-25320Y-25650D03*
X-22750Y-25250D03*
X-13190Y-22260D03*
X-11800Y-24720D03*
X-21100Y-16170D03*
X-25150Y-12350D03*
X-21210Y46290D03*
X-25150Y42350D03*
Y46290D03*
X-10000Y82500D03*
X-12490Y87110D03*
X-22500Y85000D03*
Y110100D03*
X-25000Y107500D03*
X3880Y-25600D03*
X-5000Y107500D03*
X10240Y-20800D03*
X22500Y-19090D03*
X16880Y-17500D03*
X25000Y55500D03*
X27500Y61300D03*
X17500Y77500D03*
X18610Y93890D03*
X30000Y-19090D03*
X32500Y48700D03*
X30000Y90000D03*
X32500Y95100D03*
X60000Y-65000D03*
X65000Y-17500D03*
X62400D03*
X67500Y47500D03*
X82500Y-17500D03*
X92500Y-112500D03*
X99770Y-72000D03*
X87500Y-45000D03*
X90000Y-17500D03*
X125000Y-110000D03*
X117500Y-90000D03*
X120000Y-42500D03*
X117350Y47500D03*
X120000Y72500D03*
X127500Y-17500D03*
X155000Y85000D03*
G54D12*
X63190Y-97340D03*
Y-87500D03*
Y-77660D03*
X86810Y-97340D03*
Y-77660D03*
Y-87500D03*
G54D13*
X111340Y-129000D03*
X128660D03*
G54D14*
G01X-48770Y-28000D02*
Y-8410D01*
G01X-50540Y-28000D02*
Y-9330D01*
X-50670Y-9200D01*
Y-3690D01*
X-50540Y-3560D01*
Y-1140D01*
X-51140Y-540D01*
X-56230D01*
G01X-84500Y-28000D02*
X-87500Y-25000D01*
Y0D01*
X-82500Y5000D01*
X-77500D01*
X-77200Y5300D01*
X-67250D01*
X-65350Y3400D01*
X-64100D01*
G01X-82000Y-28000D02*
X-85690Y-24310D01*
Y-690D01*
X-83640Y1360D01*
X-66000D01*
X-64100Y-540D01*
G01X-80000Y-12500D02*
Y-4630D01*
X-75910Y-540D01*
G01X-80000Y-12500D02*
X-70000D01*
Y-7960D01*
X-68890Y-6850D01*
X-68610D01*
X-68040Y-6280D01*
Y-4480D01*
G01X-60170D02*
X-62200Y-6510D01*
X-66010D01*
X-68040Y-4480D01*
G01X-71980Y7330D02*
X-70170D01*
X-69940Y7560D01*
Y8120D01*
X-68830Y9230D01*
X-66710D01*
X-66000Y8520D01*
Y5990D01*
X-65100Y5090D01*
X-64890Y5300D01*
X-63310D01*
X-62200Y4190D01*
Y-2450D01*
X-60170Y-4480D01*
G01X-57570Y-22500D02*
Y-20630D01*
X-58130Y-20070D01*
Y250D01*
X-57500Y880D01*
Y7160D01*
X-57670Y7330D01*
X-64100D01*
G01X-44830Y18730D02*
X-48600Y22500D01*
X-55130D01*
X-58440Y25810D01*
Y27390D01*
X-58130Y27700D01*
Y58000D01*
G01X-55000D02*
Y32000D01*
X-54330Y31330D01*
Y26830D01*
X-52200Y24700D01*
X-49100D01*
X-47070Y22670D01*
X-44830D01*
G01X-25320Y-25650D02*
Y-23110D01*
X-22210Y-20000D01*
X-18100D01*
X-17500Y-19400D01*
Y-8100D01*
X-18100Y-7500D01*
X-27310D01*
X-28300Y-6510D01*
X-40990D01*
X-41120Y-6380D01*
X-46120D01*
X-46730Y-5770D01*
Y1500D01*
X-44830Y3400D01*
G01X-22750Y-25250D02*
X-20350D01*
X-17600Y-28000D01*
G01X-10000D02*
Y-25890D01*
G01Y-23550D02*
Y-20000D01*
X-11770Y-18230D01*
Y13670D01*
X-13100Y15000D01*
X-41100D01*
X-44830Y11270D01*
G01X-13190Y-22260D02*
X-14470Y-20980D01*
Y6970D01*
X-16870Y9370D01*
X-38860D01*
X-40900Y7330D01*
G01X-11800Y-24720D02*
Y-24200D01*
X-11410Y-23810D01*
Y-22980D01*
X-11200Y-22770D01*
Y-21300D01*
X-12970Y-19530D01*
Y10470D01*
X-16300Y13800D01*
X-38370D01*
X-40900Y11270D01*
G01X-12500Y58000D02*
Y17590D01*
X-13500Y16590D01*
X-29800D01*
X-30710Y17500D01*
X-31560D01*
X-32230Y16830D01*
X-33810D01*
X-34480Y17500D01*
X-35500D01*
X-36170Y16830D01*
X-39000D01*
X-40900Y18730D01*
G01X-28970Y30600D02*
X-25610D01*
X-25000Y29990D01*
Y25000D01*
X-25340Y24660D01*
X-31210D01*
X-33110Y22760D01*
G01X-15000Y58000D02*
Y27800D01*
X-21940Y20860D01*
X-35000D01*
X-35230Y20630D01*
X-38860D01*
X-40900Y22670D01*
G01Y26600D02*
X-39000Y28500D01*
X-32640D01*
X-31020Y30120D01*
Y33550D01*
X-30990Y33580D01*
Y35290D01*
X-30000Y36280D01*
Y58000D01*
G01X-40900Y30540D02*
X-42800Y32440D01*
Y58000D01*
G54D15*
G01X-170000Y116530D02*
Y120000D01*
G01D02*
Y123470D01*
G01X-173470Y120000D02*
X-170000D01*
G01D02*
X-166530D01*
G01X-117500Y-100970D02*
Y-97500D01*
G01D02*
Y-94030D01*
G01X-120970Y-97500D02*
X-117500D01*
G01D02*
X-114030D01*
G01X-120000Y116530D02*
Y120000D01*
G01D02*
Y123470D01*
G01X-123470Y120000D02*
X-120000D01*
G01D02*
X-116530D01*
G01X-97500Y-97500D02*
X-92500Y-102500D01*
X-65470D01*
X-63370Y-104600D01*
X-61630D01*
X-60400Y-103370D01*
Y-102900D01*
X-48770Y-91270D01*
Y-42490D01*
X-48380Y-42100D01*
X-46630D01*
X-45400Y-40870D01*
Y-39130D01*
X-46630Y-37900D01*
X-48380D01*
X-48770Y-37510D01*
Y-28000D01*
G01X-97500Y-87500D02*
X-91360Y-93640D01*
X-85900D01*
X-84540Y-95000D01*
X-80460D01*
X-79100Y-93640D01*
X-75900D01*
X-74540Y-95000D01*
X-65000D01*
X-60000Y-90000D01*
X-51140D01*
X-50540Y-89400D01*
Y-28000D01*
G01X-87500Y-87500D02*
X-102500Y-72500D01*
Y90000D01*
X-97500Y95000D01*
X-32500D01*
X-30000Y97500D01*
Y120000D01*
G01X-95400Y-42500D02*
Y-44610D01*
X-92110Y-47900D01*
X-91630D01*
X-90400Y-49130D01*
Y-49610D01*
X-86260Y-53750D01*
Y-53760D01*
X-86630Y-54130D01*
Y-55870D01*
X-85400Y-57100D01*
X-83660D01*
X-83290Y-56730D01*
X-83280D01*
X-80010Y-60000D01*
X-65000D01*
G01X-57370Y-43250D02*
X-64060Y-36560D01*
X-66800D01*
X-67800Y-37560D01*
Y-38370D01*
X-69030Y-39600D01*
X-70870D01*
X-73910Y-36560D01*
X-75940D01*
X-84500Y-28000D01*
G01X-80970Y-97500D02*
X-77500D01*
G01D02*
X-74030D01*
G01X-57100Y-34960D02*
X-75040D01*
X-82000Y-28000D01*
G01X-58130Y58000D02*
Y81870D01*
X-50000Y90000D01*
X-35000D01*
X-32500Y87500D01*
G01X-35240Y85000D02*
X-37740Y87500D01*
X-47500D01*
X-55000Y80000D01*
Y58000D01*
G01X-40450Y-97500D02*
Y-72960D01*
X-27490Y-60000D01*
X27500D01*
X32500Y-65000D01*
G01X-17600Y-28000D02*
X-15600Y-30000D01*
X-11000D01*
X-10000Y-29000D01*
Y-28000D01*
G01Y-25890D02*
X-9700Y-25590D01*
Y-23850D01*
X-10000Y-23550D01*
G01Y82500D02*
X-12500Y80000D01*
Y58000D01*
G01X-12490Y87110D02*
Y85110D01*
X-15000Y82600D01*
Y58000D01*
G01X-30000D02*
Y66500D01*
X-29000Y67500D01*
X-27500D01*
X-25000Y70000D01*
Y82500D01*
X-22500Y85000D01*
G01X-42800Y58000D02*
Y69000D01*
X-39300Y72500D01*
X-31140D01*
X-30140Y73500D01*
Y82630D01*
G01X22500Y-88470D02*
Y-85000D01*
G01D02*
Y-81530D01*
G01X19030Y-85000D02*
X22500D01*
G01D02*
X25970D01*
G01X22500Y-48470D02*
Y-45000D01*
G01D02*
Y-41530D01*
G01X19030Y-45000D02*
X22500D01*
G01D02*
X25970D01*
G01X110000Y126530D02*
Y130000D01*
G01D02*
Y133470D01*
G01X106530Y130000D02*
X110000D01*
G01D02*
X113470D01*
G01X160000Y106530D02*
Y110000D01*
G01D02*
Y113470D01*
G01X156530Y110000D02*
X160000D01*
G01D02*
X163470D01*
M02*
