G04 ================== begin FILE IDENTIFICATION RECORD ==================*
G04 Layout Name:  D:/temp_desktop/Graduate/Design/Hardware/scheme/core/PCB/core.brd*
G04 Film Name:    POWER*
G04 File Format:  Gerber RS274X*
G04 File Origin:  Cadence Allegro 17.4-S016*
G04 Origin Date:  Mon Apr 12 16:14:46 2021*
G04 *
G04 Layer:  BOARD GEOMETRY/DESIGN_OUTLINE*
G04 Layer:  ETCH/POWER*
G04 Layer:  PIN/POWER*
G04 Layer:  VIA CLASS/POWER*
G04 *
G04 Offset:    (0.0 0.0)*
G04 Mirror:    No*
G04 Mode:      Positive*
G04 Rotation:  0*
G04 FullContactRelief:  Yes*
G04 UndefLineWidth:     6.0*
G04 ================== end FILE IDENTIFICATION RECORD ====================*
%FSLAX55Y55*MOIN*%
%IR0*IPPOS*OFA0.00000B0.00000*MIA0B0*SFA1.00000B1.00000*%
%ADD11C,.02*%
%ADD12C,.0632*%
%ADD10C,.0551*%
%ADD13C,.0354*%
%ADD14C,.006*%
%ADD15C,.01*%
%ADD20C,.0324*%
%ADD16C,.0292*%
%ADD18C,.0654*%
%ADD21C,.0736*%
%ADD17C,.0674*%
%ADD22C,.0756*%
%ADD19C,.0478*%
G75*
%LPD*%
G75*
G36*
G01X-171280Y145000D02*
X-117500D01*
X-115000Y142500D01*
Y-51210D01*
G03X-115620Y-52480I991J-1270D01*
G03X-115240Y-53520I1613J0D01*
G02Y-54040I-306J-260D01*
G03X-115620Y-55080I1233J-1040D01*
G03X-114000Y-56700I1620J0D01*
G03X-112380Y-55190I0J1624D01*
G01X-112370Y-55000D01*
X-70000D01*
Y-73890D01*
X-80740D01*
G02X-81090Y-73290I-2J401D01*
G03X-80880Y-72500I-1408J797D01*
G03X-84120I-1620J0D01*
G03X-83910Y-73290I1618J7D01*
G02X-84260Y-73890I-348J-199D01*
G01X-101500D01*
G03X-102290Y-74210I-9J-1114D01*
G01X-103070Y-75000D01*
X-132500D01*
X-135000Y-77500D01*
Y-127500D01*
X-127500Y-135000D01*
X-124610D01*
G03X-120390I2110J2506D01*
G01X-114760D01*
G03X-110240I2260J2500D01*
G01X-104760D01*
G03X-100240I2260J2500D01*
G01X-97500D01*
Y-127500D01*
X72500D01*
X80000Y-120000D01*
X127500D01*
X130000Y-117500D01*
Y-85000D01*
X102500D01*
X91090Y-96410D01*
G02X90430Y-96240I-278J285D01*
G03X86810Y-93560I-3620J-1105D01*
G03X83030Y-97340I0J-3780D01*
G03X83630Y-99380I3768J0D01*
G02X83290Y-100000I-335J-220D01*
G01X70000D01*
X66950Y-96950D01*
X66940Y-96880D01*
G03X63650Y-93590I-3750J-460D01*
G01X63580Y-93580D01*
X61670Y-91670D01*
G02X62070Y-91010I284J279D01*
G03X63190Y-91180I1106J3512D01*
G03X59510Y-87500I0J3680D01*
G03X59680Y-88620I3682J-14D01*
G02X59020Y-89020I-381J-116D01*
G01X55000Y-85000D01*
Y-5000D01*
X57500Y-2500D01*
X70000D01*
X72500Y-5000D01*
Y-35000D01*
X80000Y-42500D01*
X118370D01*
X118390Y-42680D01*
G03X121610I1610J180D01*
G01X121630Y-42500D01*
X127500D01*
Y15000D01*
X107500Y35000D01*
Y45000D01*
X127500Y65000D01*
Y87500D01*
X117500D01*
X115000Y90000D01*
Y122500D01*
X116990D01*
G02X117320Y121870I2J-400D01*
G03X116730Y120000I2668J-1870D01*
G03X123270I3270J0D01*
G03X122680Y121870I-3258J0D01*
G02X123010Y122500I328J230D01*
G01X135000D01*
X155000Y102500D01*
X156870D01*
G02X157200Y101880I-2J-399D01*
G03X156630Y100000I2801J-1876D01*
G03X163370I3370J0D01*
G03X162800Y101880I-3371J4D01*
G02X163130Y102500I332J221D01*
G01X165000D01*
Y107500D01*
X166270Y108770D01*
G02X166910Y108640I275J-287D01*
G03X170000Y106630I3090J1370D01*
G03Y113370I0J3370D01*
G03X168120Y112800I-4J-3371D01*
G02X167500Y113130I-221J332D01*
G01Y116990D01*
G02X168130Y117320I400J2D01*
G03X170000Y116730I1870J2668D01*
G03Y123270I0J3270D01*
G03X168130Y122680I0J-3258D01*
G02X167500Y123010I-230J328D01*
G01Y127500D01*
X170000Y130000D01*
X175000D01*
X177500Y127500D01*
Y-137500D01*
X176030Y-138970D01*
X176000Y-138990D01*
G03X172990Y-142000I3000J-6010D01*
G01X172970Y-142030D01*
X172500Y-142500D01*
X-172760D01*
G03X-179000Y-138280I-6240J-2503D01*
G03X-183950Y-140460I0J-6710D01*
G02X-184530Y-140470I-295J272D01*
G01X-185000Y-140000D01*
Y142500D01*
X-184880Y142620D01*
G02X-184230Y142480I278J-287D01*
G03X-178000Y138280I6230J2521D01*
G03X-171280Y144810I0J6723D01*
G01Y145000D01*
G37*
G36*
G01X116990Y127500D02*
X113130D01*
G02X112800Y128120I2J399D01*
G03X113370Y130000I-2801J1876D01*
G03X106630I-3370J0D01*
G03X109990Y126630I3370J0D01*
G02X110390Y126230I0J-400D01*
G01Y125390D01*
X107500Y122500D01*
Y122260D01*
X107450Y122200D01*
G03Y117800I2541J-2200D01*
G01X107500Y117740D01*
Y117500D01*
X107740D01*
X107800Y117450D01*
G03X110000Y116630I2200J2541D01*
G01Y82500D01*
X120000D01*
X122500Y80000D01*
Y70000D01*
X100000Y47500D01*
Y27500D01*
X90000D01*
X87500Y25000D01*
Y11520D01*
X85980Y10000D01*
X60000D01*
X57500Y12500D01*
Y20000D01*
X50000Y27500D01*
Y107500D01*
X2500D01*
Y37500D01*
X-15000D01*
Y45000D01*
X-23340D01*
G02X-23700Y45580I0J402D01*
G03X-23530Y46290I-1447J722D01*
G03X-26770I-1620J0D01*
G03X-26600Y45580I1617J12D01*
G02X-26960Y45000I-360J-178D01*
G01X-80000D01*
Y43970D01*
X-80160Y43940D01*
G03Y40760I310J-1590D01*
G01X-80000Y40730D01*
Y-10000D01*
X-76220D01*
X-76190Y-10010D01*
G03X-75660Y-10100I532J1530D01*
G03X-75130Y-10010I-2J1620D01*
G01X-75100Y-10000D01*
X-72170D01*
G03X-71980Y-10030I345J1570D01*
G03X-71790Y-10000I-155J1600D01*
G01X-64290D01*
G03X-64100Y-10030I345J1570D01*
G03X-63910Y-10000I-155J1600D01*
G01X-56420D01*
G03X-56230Y-10030I345J1570D01*
G03X-56040Y-10000I-155J1600D01*
G01X-48960D01*
G03X-48770Y-10030I345J1570D01*
G03X-48580Y-10000I-155J1600D01*
G01X-41090D01*
G03X-40900Y-10030I345J1570D01*
G03X-40710Y-10000I-155J1600D01*
G01X-33210D01*
G03X-33020Y-10030I345J1570D01*
G03X-32830Y-10000I-155J1600D01*
G01X-29280D01*
G03X-29090Y-10030I345J1570D01*
G03X-28900Y-10000I-155J1600D01*
G01X-17500D01*
X-15000Y-12500D01*
Y-32500D01*
X-32500Y-50000D01*
X-107500D01*
Y62500D01*
X-110390Y65390D01*
Y116330D01*
G02X-109990Y116730I400J0D01*
G03Y123270I-10J3270D01*
G02X-110390Y123670I0J400D01*
G01Y125000D01*
X-85000D01*
Y142500D01*
X-82500Y145000D01*
X162500D01*
X165000Y142500D01*
Y131520D01*
X162890Y129410D01*
Y122700D01*
G02X162220Y122400I-400J-5D01*
G03X160000Y123270I-2220J-2397D01*
G03Y116730I0J-3270D01*
G03X162220Y117600I0J3267D01*
G02X162890Y117300I270J-295D01*
G01Y112830D01*
G02X162230Y112530I-399J2D01*
G03X160000Y113370I-2230J-2540D01*
G03X156640Y110190I0J-3365D01*
G01X156620Y110000D01*
X154020D01*
X136910Y127110D01*
X135390D01*
X135000Y127500D01*
X123010D01*
G02X122680Y128130I-2J400D01*
G03X123270Y130000I-2668J1870D01*
G03X116730I-3270J0D01*
G03X117320Y128130I3258J0D01*
G02X116990Y127500I-328J-230D01*
G37*
G36*
G01X-50000Y-67500D02*
X20240D01*
G03X22500Y-68370I2260J2500D01*
G03X23170Y-68300I-13J3369D01*
G01X23280Y-68280D01*
X27500Y-72500D01*
Y-77500D01*
X23280Y-81720D01*
X23170Y-81700D01*
G03X22500Y-81630I-683J-3299D01*
G03X20240Y-82500I0J-3370D01*
G01X-37500D01*
X-40000Y-85000D01*
Y-95480D01*
G02X-40410Y-95880I-400J-1D01*
G03Y-99120I-40J-1620D01*
G02X-40000Y-99520I10J-399D01*
G01Y-107500D01*
X-42500Y-110000D01*
X-47500D01*
X-55000Y-102500D01*
X-92500D01*
Y-80000D01*
X-55000D01*
X-50000Y-75000D01*
Y-67500D01*
G37*
G36*
G01X-66420Y22500D02*
X-65720D01*
X-65690Y22340D01*
G03X-64100Y21050I1590J335D01*
G03X-62660Y21930I0J1618D01*
G02X-62020Y22020I353J-189D01*
G01X-54230Y14230D01*
X-54220Y14190D01*
G03X-53310Y13280I1510J600D01*
G01X-53270Y13270D01*
X-50000Y10000D01*
Y4450D01*
G03X-50390Y3400I1218J-1050D01*
G03X-48770Y1780I1620J0D01*
G03X-47420Y2500I0J1626D01*
G01X-46180D01*
G03X-43480I1350J906D01*
G01X-42250D01*
G03X-40900Y1780I1350J906D01*
G03X-40290Y1900I0J1610D01*
G01X-40170Y1950D01*
X-39930Y1710D01*
X-40590Y1050D01*
X-40690Y1070D01*
G03X-40900Y1080I-182J-1611D01*
G03X-42520Y-540I0J-1620D01*
G03X-42120Y-1600I1618J5D01*
G02X-42140Y-2140I-306J-259D01*
G01X-42500Y-2500D01*
X-43550D01*
G02X-43800Y-1790I2J400D01*
G03X-43210Y-540I-1029J1250D01*
G03X-46450I-1620J0D01*
G03X-45860Y-1790I1619J0D01*
G02X-46110Y-2500I-252J-310D01*
G01X-55000D01*
Y-1590D01*
G03X-54610Y-540I-1218J1050D01*
G03X-56230Y1080I-1620J0D01*
G03X-57710Y120I0J-1621D01*
G01X-57760Y0D01*
X-58640D01*
X-58690Y120D01*
G03X-61650I-1480J-661D01*
G01X-61700Y0D01*
X-62570D01*
X-62620Y120D01*
G03X-64100Y1080I-1480J-661D01*
G03X-65160Y680I5J-1618D01*
G02X-65700Y700I-259J306D01*
G01X-66800Y1800D01*
G02X-66820Y2340I286J281D01*
G03X-66420Y3400I-1218J1065D01*
G03X-67380Y4880I-1621J0D01*
G01X-67500Y4930D01*
Y5800D01*
X-67380Y5850D01*
G03Y8810I-661J1480D01*
G01X-67500Y8860D01*
Y9740D01*
X-67380Y9790D01*
G03Y12750I-661J1480D01*
G01X-67500Y12800D01*
Y17200D01*
X-67380Y17250D01*
G03Y20210I-661J1480D01*
G01X-67500Y20260D01*
Y21140D01*
X-67380Y21190D01*
G03X-66450Y22340I-657J1482D01*
G01X-66420Y22500D01*
G37*
G36*
G01X-62500Y31670D02*
X-50650D01*
G02X-50280Y31130I-4J-399D01*
G03X-50390Y30540I1511J-587D01*
G03X-48770Y28920I1620J0D01*
G03X-47290Y29880I0J1621D01*
G01X-47240Y30000D01*
X-46360D01*
X-46310Y29880D01*
G03X-43350I1480J661D01*
G01X-43300Y30000D01*
X-42430D01*
X-42380Y29880D01*
G03X-40900Y28920I1480J661D01*
G03X-39900Y29260I6J1622D01*
G02X-39340Y29190I245J-313D01*
G03X-39260Y29110I680J600D01*
G01X-38150Y28000D01*
Y27990D01*
G02X-38140Y27710I-137J-145D01*
G03X-38580Y26600I1180J-1110D01*
G03X-36960Y24980I1620J0D01*
G03X-36080Y25240I0J1619D01*
G02X-35580Y25180I213J-337D01*
G03X-35560Y25170I394J763D01*
G01X-34450Y24060D01*
G03X-34420Y24020I742J526D01*
G02X-34390Y23750I-130J-151D01*
G03X-34730Y22760I1271J-990D01*
G03X-33110Y21140I1620J0D01*
G03X-32940Y21150I-10J1619D01*
G02X-32500Y20750I40J-398D01*
G02X-32920Y20350I-399J-2D01*
G01X-33020D01*
G03Y17110I0J-1620D01*
G01X-32920D01*
G02X-32500Y16710I21J-398D01*
G01Y13290D01*
G02X-32920Y12890I-399J-2D01*
G01X-33020D01*
G03X-34070Y12500I0J-1608D01*
G01X-35910D01*
G03X-38010I-1050J-1218D01*
G01X-39850D01*
G03X-41950I-1050J-1218D01*
G01X-43780D01*
G03X-44830Y12890I-1050J-1218D01*
G03X-45210Y12840I20J-1617D01*
G01X-45320Y12820D01*
X-52500Y20000D01*
Y25000D01*
X-54920D01*
G02X-55240Y25640I2J401D01*
G03X-54920Y26600I-1298J966D01*
G03X-58160I-1620J0D01*
G03X-57840Y25640I1618J6D01*
G02X-58160Y25000I-322J-239D01*
G01X-58480D01*
X-60590Y27110D01*
X-62110D01*
X-62500Y27500D01*
Y31670D01*
G37*
G36*
G01X105000Y-90000D02*
X122500D01*
X125000Y-92500D01*
Y-108370D01*
X124820Y-108390D01*
G03Y-111610I180J-1610D01*
G01X125000Y-111630D01*
Y-112500D01*
X122500Y-115000D01*
X-25000D01*
X-30000Y-110000D01*
Y-92500D01*
X-27500Y-90000D01*
X2500D01*
X17500Y-105000D01*
X97500D01*
X100000Y-102500D01*
Y-95000D01*
X105000Y-90000D01*
G37*
G36*
G01X10000Y102500D02*
X37500D01*
X45000Y95000D01*
Y22500D01*
X52500Y15000D01*
Y5000D01*
X45000Y-2500D01*
Y-17500D01*
X42500Y-20000D01*
X24450D01*
G02X24070Y-19500I6J399D01*
G03X24120Y-19090I-1571J400D01*
G03X20880I-1620J0D01*
G03X20930Y-19500I1621J-10D01*
G02X20550Y-20000I-386J-101D01*
G01X12500D01*
X7500Y-15000D01*
Y100000D01*
X10000Y102500D01*
G37*
G36*
G01X122500Y-30000D02*
X120000Y-32500D01*
X82500D01*
X77500Y-27500D01*
Y2500D01*
X80000Y5000D01*
X87500D01*
X92500Y10000D01*
Y20000D01*
X115000D01*
X122500Y12500D01*
Y-30000D01*
G37*
%LPC*%
G75*
G36*
G01X-24030Y109560D02*
G02X-24120Y110100I1531J533D01*
G02X-22500Y108480I1620J0D01*
G02X-22980Y108550I-9J1621D01*
G03X-23470Y108040I-113J-382D01*
G02X-23380Y107500I-1531J-533D01*
G02X-25000Y109120I-1620J0D01*
G02X-24520Y109050I9J-1621D01*
G03X-24030Y109560I113J382D01*
G37*
G36*
G01X-23590Y-26640D02*
G03X-24100Y-26710I-213J-338D01*
G02X-25320Y-27270I-1220J1049D01*
G02Y-24030I0J1620D01*
G02X-24480Y-24260I7J-1622D01*
G03X-23970Y-24190I213J338D01*
G02X-22750Y-23630I1220J-1049D01*
G02Y-26870I0J-1620D01*
G02X-23590Y-26640I-7J1622D01*
G37*
G54D20*
X-109200Y-59700D03*
X155000Y85000D03*
X-146800Y100000D03*
X87500Y-45000D03*
X-125610Y-51890D03*
X62400Y-17500D03*
X-80600Y-22410D03*
X-25300Y-32500D03*
X-35240Y85000D03*
X-12490Y87110D03*
X-32500Y87500D03*
X-57370Y-43250D03*
X-30140Y82630D03*
X-57570Y-22500D03*
X-57100Y-34960D03*
X-10000Y82500D03*
X-22500Y85000D03*
X-65590Y-26920D03*
X-29090Y-16290D03*
Y-12350D03*
X-75330Y-24440D03*
X-25150Y-12350D03*
X-100100Y77500D03*
X-68040Y-12350D03*
X-5000Y107500D03*
X-80000Y-12500D03*
X-44490Y97500D03*
X-97500Y72500D03*
X-69900Y-42500D03*
X-95400D03*
X-67500Y-90000D03*
X-17500Y-71260D03*
X-64100Y18730D03*
Y3400D03*
Y7330D03*
Y11270D03*
X-40900Y18730D03*
Y22670D03*
X-37050Y22760D03*
X-36960Y18730D03*
X-40900Y26600D03*
X-44830Y18730D03*
X-48770Y26600D03*
X-44830D03*
Y22670D03*
X92500Y-112500D03*
X30000Y90000D03*
X32500Y48700D03*
X27500Y61300D03*
X25000Y55500D03*
X16880Y-17500D03*
X32500Y95100D03*
X18610Y93890D03*
G54D16*
X129610Y-60000D03*
X110390D03*
G54D18*
X-120000Y130000D03*
X-87500Y-97500D03*
X22500Y-75000D03*
G54D21*
X86810Y-87500D03*
G54D17*
X-82500Y-132500D03*
X-92500D03*
X67500D03*
X57500D03*
X47500D03*
X37500D03*
X27500D03*
X17500D03*
X7500D03*
X-2500D03*
X-12500D03*
X-22500D03*
X-32500D03*
X-42500D03*
X-52500D03*
X-62500D03*
X-72500D03*
X-120000Y120000D03*
X170000Y-80000D03*
X160000Y-90000D03*
X170000D03*
X160000Y-100000D03*
X170000D03*
Y100000D03*
X160000Y90000D03*
X170000D03*
X160000Y80000D03*
X170000D03*
X160000Y70000D03*
Y-110000D03*
X170000Y70000D03*
X160000Y60000D03*
X170000D03*
X160000Y50000D03*
X170000D03*
X160000Y40000D03*
X170000D03*
X160000Y30000D03*
X170000D03*
X160000Y20000D03*
X170000Y-110000D03*
Y20000D03*
X160000Y10000D03*
X170000D03*
X160000Y0D03*
X170000D03*
X160000Y-10000D03*
X170000D03*
X160000Y-20000D03*
X170000D03*
X160000Y-30000D03*
Y-120000D03*
X170000Y-30000D03*
X160000Y-40000D03*
X170000D03*
X160000Y-50000D03*
X170000D03*
X160000Y-60000D03*
X170000D03*
X160000Y-70000D03*
X170000D03*
X160000Y-80000D03*
X170000Y-120000D03*
X-160000Y-80000D03*
X-170000Y-90000D03*
X-160000D03*
X-170000Y-100000D03*
Y120000D03*
X-160000Y-100000D03*
Y120000D03*
X-170000Y110000D03*
X-160000D03*
X-170000Y100000D03*
X-160000D03*
X-170000Y90000D03*
X-160000D03*
X-170000Y80000D03*
X-160000D03*
X-170000Y70000D03*
Y-110000D03*
X-160000Y70000D03*
X-170000Y60000D03*
X-160000D03*
X-170000Y50000D03*
X-160000D03*
X-170000Y40000D03*
X-160000D03*
X-170000Y30000D03*
X-160000D03*
X-170000Y20000D03*
X-160000Y-110000D03*
Y20000D03*
X-170000Y10000D03*
X-160000D03*
X-170000Y0D03*
X-160000D03*
X-170000Y-10000D03*
X-160000D03*
X-170000Y-20000D03*
X-160000D03*
X-170000Y-30000D03*
Y-120000D03*
X-160000Y-30000D03*
X-170000Y-40000D03*
X-160000D03*
X-170000Y-50000D03*
X-160000D03*
X-170000Y-60000D03*
X-160000D03*
X-170000Y-70000D03*
X-160000D03*
X-170000Y-80000D03*
X-160000Y-120000D03*
X80000Y120000D03*
X70000Y130000D03*
Y120000D03*
X60000Y130000D03*
Y120000D03*
X50000Y130000D03*
Y120000D03*
X40000Y130000D03*
Y120000D03*
X30000Y130000D03*
Y120000D03*
X20000Y130000D03*
Y120000D03*
X10000Y130000D03*
Y120000D03*
X0Y130000D03*
Y120000D03*
X-10000Y130000D03*
Y120000D03*
X-20000Y130000D03*
Y120000D03*
X-30000Y130000D03*
Y120000D03*
X-40000Y130000D03*
Y120000D03*
X-50000Y130000D03*
Y120000D03*
X-60000Y130000D03*
Y120000D03*
X-70000Y130000D03*
Y120000D03*
X-80000Y130000D03*
Y120000D03*
X-90000D03*
X-100000D03*
X100000Y130000D03*
Y120000D03*
X90000Y130000D03*
Y120000D03*
X80000Y130000D03*
X-87500Y-87500D03*
X-77500D03*
Y-97500D03*
G54D22*
X63190Y-77660D03*
X86810D03*
G54D19*
X128660Y-129000D03*
X111340D03*
%LPD*%
G75*
G54D10*
X-170000Y-120000D03*
Y-100000D03*
Y-110000D03*
Y-80000D03*
Y-90000D03*
Y-60000D03*
Y-70000D03*
Y-40000D03*
Y-50000D03*
Y-20000D03*
Y-30000D03*
Y0D03*
Y-10000D03*
Y20000D03*
Y10000D03*
Y40000D03*
Y30000D03*
Y50000D03*
Y70000D03*
Y60000D03*
Y90000D03*
Y80000D03*
Y110000D03*
Y100000D03*
Y120000D03*
X-160000Y-120000D03*
Y-100000D03*
Y-110000D03*
Y-80000D03*
Y-90000D03*
Y-60000D03*
Y-70000D03*
Y-40000D03*
Y-50000D03*
Y-20000D03*
Y-30000D03*
Y0D03*
Y-10000D03*
Y20000D03*
Y10000D03*
Y40000D03*
Y30000D03*
Y50000D03*
Y70000D03*
Y60000D03*
Y90000D03*
Y80000D03*
Y110000D03*
Y100000D03*
Y120000D03*
X-112500Y-122500D03*
Y-132500D03*
X-122500Y-122500D03*
Y-132500D03*
X-117500Y-97500D03*
X-107500D03*
X-117500Y-87500D03*
X-107500D03*
X-120000Y120000D03*
Y130000D03*
X-110000Y120000D03*
Y130000D03*
X-92500Y-122500D03*
Y-132500D03*
X-102500Y-122500D03*
Y-132500D03*
X-97500Y-97500D03*
X-87500D03*
X-97500Y-87500D03*
X-87500D03*
X-100000Y120000D03*
Y130000D03*
X-90000Y120000D03*
Y130000D03*
X-72500Y-122500D03*
Y-132500D03*
X-82500Y-122500D03*
Y-132500D03*
X-77500Y-97500D03*
Y-87500D03*
X-80000Y120000D03*
Y130000D03*
X-70000Y120000D03*
Y130000D03*
X-52500Y-122500D03*
Y-132500D03*
X-62500Y-122500D03*
Y-132500D03*
X-60000Y120000D03*
Y130000D03*
X-50000Y120000D03*
Y130000D03*
X-32500Y-122500D03*
Y-132500D03*
X-42500Y-122500D03*
Y-132500D03*
X-40000Y120000D03*
Y130000D03*
X-30000Y120000D03*
Y130000D03*
X-12500Y-122500D03*
Y-132500D03*
X-22500Y-122500D03*
Y-132500D03*
X-20000Y120000D03*
Y130000D03*
X-10000Y120000D03*
Y130000D03*
X7500Y-122500D03*
Y-132500D03*
X-2500Y-122500D03*
Y-132500D03*
X0Y120000D03*
Y130000D03*
X10000Y120000D03*
Y130000D03*
X27500Y-122500D03*
Y-132500D03*
X17500Y-122500D03*
Y-132500D03*
X22500Y-85000D03*
Y-65000D03*
Y-75000D03*
Y-45000D03*
Y-55000D03*
X20000Y120000D03*
Y130000D03*
X30000Y120000D03*
Y130000D03*
X47500Y-122500D03*
Y-132500D03*
X37500Y-122500D03*
Y-132500D03*
X32500Y-85000D03*
Y-65000D03*
Y-75000D03*
Y-45000D03*
Y-55000D03*
X40000Y120000D03*
Y130000D03*
X50000Y120000D03*
Y130000D03*
X67500Y-122500D03*
Y-132500D03*
X57500Y-122500D03*
Y-132500D03*
X60000Y120000D03*
Y130000D03*
X70000Y120000D03*
Y130000D03*
X80000Y120000D03*
Y130000D03*
X90000Y120000D03*
Y130000D03*
X100000Y120000D03*
Y130000D03*
X110000Y120000D03*
Y130000D03*
X120000Y120000D03*
Y130000D03*
X160000Y-120000D03*
Y-100000D03*
Y-110000D03*
Y-80000D03*
Y-90000D03*
Y-60000D03*
Y-70000D03*
Y-40000D03*
Y-50000D03*
Y-20000D03*
Y-30000D03*
Y0D03*
Y-10000D03*
Y20000D03*
Y10000D03*
Y40000D03*
Y30000D03*
Y50000D03*
Y70000D03*
Y60000D03*
Y90000D03*
Y80000D03*
Y110000D03*
Y100000D03*
Y120000D03*
X170000Y-120000D03*
Y-100000D03*
Y-110000D03*
Y-80000D03*
Y-90000D03*
Y-60000D03*
Y-70000D03*
Y-40000D03*
Y-50000D03*
Y-20000D03*
Y-30000D03*
Y0D03*
Y-10000D03*
Y20000D03*
Y10000D03*
Y40000D03*
Y30000D03*
Y50000D03*
Y70000D03*
Y60000D03*
Y90000D03*
Y80000D03*
Y110000D03*
Y100000D03*
Y120000D03*
G54D11*
X-146800Y100000D03*
X-130000Y-110000D03*
X-125610Y-51890D03*
X-109200Y-59700D03*
X-114000Y-52480D03*
Y-55080D03*
X-95400Y-42500D03*
X-92500Y-52500D03*
X-92670Y-24830D03*
X-97500Y72500D03*
X-100100Y77500D03*
X-67500Y-90000D03*
X-84850Y-62640D03*
X-82500Y-72500D03*
X-69900Y-42500D03*
X-85000Y-43080D03*
X-80600Y-22410D03*
X-75330Y-24440D03*
X-69900Y-37500D03*
X-68100Y-8750D03*
X-83790Y-16290D03*
X-75910Y-4480D03*
X-80000Y-12500D03*
X-68040Y-4480D03*
X-75910Y-540D03*
X-68040Y-12350D03*
X-75660Y-8480D03*
X-71980Y-8410D03*
Y-4480D03*
Y-540D03*
X-68040D03*
X-75750Y7200D03*
X-71980Y7330D03*
X-75910Y3400D03*
X-71980D03*
Y11270D03*
Y18730D03*
X-75910Y11270D03*
Y18730D03*
X-68040Y3400D03*
Y7330D03*
Y11270D03*
Y18730D03*
Y34890D03*
X-75640Y34530D03*
X-75910Y22670D03*
X-71980Y34480D03*
Y22670D03*
X-75910Y30540D03*
Y26600D03*
Y38410D03*
X-71980Y26600D03*
Y30540D03*
X-71950Y38450D03*
X-68040Y22670D03*
Y26600D03*
X-84400Y45780D03*
X-79850Y42350D03*
X-71980D03*
X-65000Y-115000D03*
Y-60000D03*
Y-67500D03*
Y-55000D03*
X-57370Y-43250D03*
X-65590Y-26920D03*
X-57570Y-22500D03*
X-57100Y-34960D03*
X-56230Y-4480D03*
Y-540D03*
X-64100Y-4480D03*
X-60170Y-8410D03*
Y-4480D03*
X-56230Y-8410D03*
X-48770Y-4480D03*
Y-8410D03*
X-64100D03*
Y-540D03*
X-60170D03*
X-56650Y14790D03*
X-52710D03*
X-48770Y3400D03*
X-64100Y7330D03*
Y11270D03*
Y18730D03*
Y3400D03*
X-60170Y38410D03*
X-60450Y30540D03*
X-56230D03*
X-60450Y34760D03*
X-64520Y30680D03*
X-48770Y26600D03*
Y30540D03*
Y34480D03*
Y38410D03*
X-64100Y22670D03*
Y26600D03*
Y38410D03*
X-64250Y34480D03*
X-56540Y26600D03*
X-52500Y100000D03*
X-40000Y-107500D03*
X-40450Y-97500D03*
X-37500Y-95000D03*
X-47500Y-40000D03*
X-29090Y-4480D03*
X-36960Y-8410D03*
X-44830D03*
X-33020Y-4480D03*
X-40900Y-540D03*
X-44830Y-4480D03*
X-29090Y-540D03*
X-36960D03*
X-44830D03*
X-40900Y-8410D03*
Y-4480D03*
X-33020Y-8410D03*
Y-540D03*
X-29090Y-16290D03*
Y-12350D03*
Y-8410D03*
X-29250Y7200D03*
X-33020Y7330D03*
X-44830Y3400D03*
Y11270D03*
Y18730D03*
X-40900Y3400D03*
Y7330D03*
Y11270D03*
Y18730D03*
X-36960Y3400D03*
Y7330D03*
Y11270D03*
Y18730D03*
X-33020Y3400D03*
Y11270D03*
Y18730D03*
X-29090Y3400D03*
Y11270D03*
X-29010Y18490D03*
X-36960Y38410D03*
X-44830D03*
X-29090Y34500D03*
X-29010Y22760D03*
X-44830Y34480D03*
X-33110Y22760D03*
X-28970Y30600D03*
X-36860Y34480D03*
X-44830Y22670D03*
Y26600D03*
Y30540D03*
X-40900Y22670D03*
Y26600D03*
Y30540D03*
Y34480D03*
Y38410D03*
X-36960Y26600D03*
X-36720Y30540D03*
X-33020Y26600D03*
X-32920Y30910D03*
X-33020Y34500D03*
Y38410D03*
X-28950Y26600D03*
X-37050Y22760D03*
X-32500Y87500D03*
X-35240Y85000D03*
X-30140Y82630D03*
X-44490Y97500D03*
X-15000Y-92500D03*
X-22500Y-80000D03*
X-17500Y-85010D03*
Y-71260D03*
Y-52500D03*
X-25300Y-32500D03*
X-25320Y-25650D03*
X-22750Y-25250D03*
X-13190Y-22260D03*
X-11800Y-24720D03*
X-21100Y-16170D03*
X-25150Y-12350D03*
X-21210Y46290D03*
X-25150Y42350D03*
Y46290D03*
X-10000Y82500D03*
X-12490Y87110D03*
X-22500Y85000D03*
Y110100D03*
X-25000Y107500D03*
X3880Y-25600D03*
X-5000Y107500D03*
X10240Y-20800D03*
X22500Y-19090D03*
X16880Y-17500D03*
X25000Y55500D03*
X27500Y61300D03*
X17500Y77500D03*
X18610Y93890D03*
X30000Y-19090D03*
X32500Y48700D03*
X30000Y90000D03*
X32500Y95100D03*
X60000Y-65000D03*
X65000Y-17500D03*
X62400D03*
X67500Y47500D03*
X82500Y-17500D03*
X92500Y-112500D03*
X99770Y-72000D03*
X87500Y-45000D03*
X90000Y-17500D03*
X125000Y-110000D03*
X117500Y-90000D03*
X120000Y-42500D03*
X117350Y47500D03*
X120000Y72500D03*
X127500Y-17500D03*
X155000Y85000D03*
G54D12*
X63190Y-97340D03*
Y-87500D03*
Y-77660D03*
X86810Y-97340D03*
Y-77660D03*
Y-87500D03*
G54D13*
X111340Y-129000D03*
X128660D03*
G54D14*
G01X-35000Y-2500D02*
Y8040D01*
X-33670Y9370D01*
X-28300D01*
X-27670Y10000D01*
X-10000D01*
G01X-68100Y-8750D02*
X-70340Y-6510D01*
X-73880D01*
X-75910Y-4480D01*
G01X-60170Y-8410D02*
X-62070Y-6510D01*
X-65860D01*
X-68100Y-8750D01*
G01X-75750Y7200D02*
X-73880Y5330D01*
Y-2450D01*
X-75910Y-4480D01*
G01X-83790Y-16290D02*
Y-12360D01*
G01D02*
X-75910Y-4480D01*
G01X-77810Y9260D02*
X-75750Y7200D01*
G01X-75640Y34530D02*
X-74010Y32900D01*
Y24570D01*
X-75910Y22670D01*
G01X-68040Y34890D02*
X-69530Y36380D01*
X-73790D01*
X-75640Y34530D01*
G01X-60170Y38410D02*
X-62070Y36510D01*
X-66420D01*
X-68040Y34890D01*
G01X-84400Y43290D02*
X-75640Y34530D01*
G01X-10000Y20000D02*
X-27500D01*
X-28360Y20860D01*
X-29800D01*
X-30910Y21970D01*
Y23410D01*
X-32200Y24700D01*
X-33810D01*
X-34920Y25810D01*
Y27390D01*
X-36170Y28640D01*
X-37510D01*
X-38620Y29750D01*
Y31120D01*
X-40080Y32580D01*
X-65310D01*
X-65450Y32440D01*
X-69940D01*
G01X-66000Y21880D02*
Y23450D01*
X-67250Y24700D01*
X-68830D01*
X-69940Y25810D01*
Y32440D01*
G01D02*
X-71980Y34480D01*
G01X-84400Y45780D02*
Y43290D01*
G01X-56650Y14790D02*
X-57930Y13510D01*
Y2270D01*
X-57020Y1360D01*
X-54330D01*
X-52530Y-440D01*
Y-1300D01*
X-53730Y-2500D01*
G01D02*
X-35000D01*
G01X-66000Y21880D02*
X-64890Y20770D01*
X-62630D01*
X-56650Y14790D01*
G01X-39000Y13310D02*
X-42930Y17240D01*
Y19520D01*
X-44040Y20630D01*
X-46320D01*
X-56230Y30540D01*
G01X-29250Y7200D02*
X-30990Y5460D01*
Y-2580D01*
X-29090Y-4480D01*
G01D02*
X-30990Y-6380D01*
X-34930D01*
X-36960Y-8410D01*
G01D02*
X-38860Y-6510D01*
X-42930D01*
X-44830Y-8410D01*
G01X-35000Y-2500D02*
X-33020Y-4480D01*
G01X-38860Y10620D02*
X-39900Y9580D01*
Y9370D01*
G01D02*
X-39600D01*
X-39000Y8770D01*
Y1360D01*
X-40900Y-540D01*
G01X-39900Y9370D02*
X-38860Y10410D01*
Y10620D01*
G01X-34320Y13170D02*
X-34920Y12570D01*
G01X-39000Y13310D02*
Y12390D01*
X-38770Y12160D01*
Y12150D01*
X-38860Y12060D01*
Y10620D01*
G01X-39000Y13310D02*
X-38590Y13720D01*
G01D02*
X-29320D01*
X-28040Y15000D01*
X-10000D01*
G01X-29010Y22760D02*
Y23210D01*
X-30870Y25070D01*
Y32720D01*
X-29090Y34500D01*
G01X-36960Y38410D02*
X-35060Y40310D01*
X-32230D01*
X-31120Y39200D01*
Y36530D01*
X-29090Y34500D01*
G01X-36960Y38410D02*
X-38860Y40310D01*
X-42930D01*
X-44830Y38410D01*
G01X-29090Y-4480D02*
X-21100Y-12470D01*
G01D02*
Y-16170D01*
G01X-21210Y46290D02*
Y42380D01*
X-29090Y34500D01*
G01X-184800Y-157400D02*
X184800D01*
G03X196800Y-145400I0J12000D01*
G01Y145400D01*
G03X184800Y157400I-12000J0D01*
G01X-184800D01*
G03X-196800Y145400I0J-12000D01*
G01Y-145400D01*
G03X-184800Y-157400I12000J0D01*
G54D15*
G01X-112500Y-75000D02*
Y-110000D01*
X-121140Y-118640D01*
X-124100D01*
X-126360Y-120900D01*
Y-124100D01*
X-124100Y-126360D01*
X-120920D01*
X-119780Y-127500D01*
Y-129780D01*
X-122500Y-132500D01*
G01X-65000Y-115000D02*
X-105000D01*
X-112500Y-122500D01*
G01X-10000Y10000D02*
X-3100D01*
X-2500Y9400D01*
Y-50000D01*
X-15000Y-62500D01*
X-53500D01*
X-66000Y-75000D01*
X-101500D01*
X-102500Y-76000D01*
Y-102500D01*
X-122500Y-122500D01*
G01X-112500Y-132500D02*
X-117040Y-127960D01*
Y-119540D01*
X-107500Y-110000D01*
X-100000D01*
X-87500Y-97500D01*
G01X-84850Y-62640D02*
X-100140D01*
X-112500Y-75000D01*
G01X-120000Y126530D02*
Y130000D01*
G01D02*
Y133470D01*
G01X-123470Y130000D02*
X-120000D01*
G01D02*
X-116530D01*
G01X-110000Y116530D02*
Y120000D01*
G01D02*
Y123470D01*
G01Y120000D02*
X-106530D01*
G01X-87500Y-100970D02*
Y-97500D01*
G01D02*
Y-94030D01*
G01X-90970Y-97500D02*
X-87500D01*
G01D02*
X-84030D01*
G01X13670Y8830D02*
X2500Y20000D01*
X-10000D01*
G01X-65000Y-115000D02*
X-27500D01*
X-15000Y-102500D01*
G01X-10000Y15000D02*
X-5830D01*
X0Y9170D01*
Y-65800D01*
X9200Y-75000D01*
G01X-15000Y-102500D02*
Y-92500D01*
G01X9200Y-75000D02*
X22500D01*
G01D02*
X26360Y-78860D01*
X41140D01*
X47500Y-72500D01*
Y-5000D01*
X55000Y2500D01*
X90000D01*
G01X22500Y-78470D02*
Y-75000D01*
G01D02*
Y-71530D01*
G01Y-75000D02*
X25970D01*
G01X13670Y8830D02*
X13130Y8290D01*
Y6870D01*
X13670Y6330D01*
X15460Y8120D01*
X17250D01*
X30000Y-4630D01*
Y-19090D01*
G01X63190Y-91370D02*
Y-87500D01*
G01D02*
Y-83630D01*
G01X59320Y-87500D02*
X63190D01*
G01D02*
X67060D01*
G01X82940D02*
X86810D01*
G01Y-91370D02*
Y-87500D01*
G01D02*
Y-83630D01*
G01Y-87500D02*
X90680D01*
G01X90000Y2500D02*
Y-17500D01*
G01X120000Y116530D02*
Y120000D01*
G01X116530D02*
X120000D01*
G01D02*
X123470D01*
G01X120000Y130000D02*
Y133470D01*
G01X116530Y130000D02*
X120000D01*
G01D02*
X123470D01*
G01X160000Y116530D02*
Y120000D01*
G01D02*
Y123470D01*
G01X156530Y120000D02*
X160000D01*
G01X170000Y116530D02*
Y120000D01*
G01D02*
Y123470D01*
G01Y120000D02*
X173470D01*
M02*
