G04 ================== begin FILE IDENTIFICATION RECORD ==================*
G04 Layout Name:  D:/temp_desktop/Graduate/Design/Hardware/scheme/core/PCB/core.brd*
G04 Film Name:    SILKSCREENBOTTOM*
G04 File Format:  Gerber RS274X*
G04 File Origin:  Cadence Allegro 17.4-S016*
G04 Origin Date:  Mon Apr 12 16:17:46 2021*
G04 *
G04 Layer:  REF DES/SILKSCREEN_BOTTOM*
G04 Layer:  PACKAGE GEOMETRY/SILKSCREEN_BOTTOM*
G04 Layer:  BOARD GEOMETRY/SILKSCREEN_BOTTOM*
G04 Layer:  BOARD GEOMETRY/DESIGN_OUTLINE*
G04 *
G04 Offset:    (0.0 0.0)*
G04 Mirror:    No*
G04 Mode:      Positive*
G04 Rotation:  0*
G04 FullContactRelief:  No*
G04 UndefLineWidth:     6.0*
G04 ================== end FILE IDENTIFICATION RECORD ====================*
%FSLAX55Y55*MOIN*%
%IR0*IPPOS*OFA0.00000B0.00000*MIA0B0*SFA1.00000B1.00000*%
%ADD10C,.0079*%
%ADD11C,.006*%
G75*
%LPD*%
G75*
G36*
G01X-75850Y-68800D02*
G02I-587J1D01*
G37*
G36*
G01X67630Y-510D02*
G02I-583J-2D01*
G37*
G36*
G01X53480Y-15850D02*
G02I-586J4D01*
G37*
G36*
G01X60190Y48350D02*
G02I-584J-4D01*
G37*
G36*
G01X115980Y-15850D02*
G02I-586J4D01*
G37*
G36*
G01X111040Y33010D02*
G02I-587J2D01*
G37*
G36*
G01X130130Y-510D02*
G02I-583J-2D01*
G37*
G54D10*
G01X-91300Y-62500D02*
X-78700D01*
G01X-69350Y-53520D02*
Y-56480D01*
G01X-75650Y-53520D02*
Y-56480D01*
G01X-84660Y-49960D02*
X-85340D01*
G01X-84660Y-45040D02*
X-85340D01*
G01X-64660Y-109960D02*
X-65340D01*
G01X-64660Y-105040D02*
X-65340D01*
G01X-42540Y-88410D02*
Y-89090D01*
G01X-47460Y-88410D02*
Y-89090D01*
G01X-42540Y-74660D02*
Y-75340D01*
G01X-47460Y-74660D02*
Y-75340D01*
G01X-30040Y-42160D02*
Y-42840D01*
G01X-34960Y-42160D02*
Y-42840D01*
G01X-45340Y107460D02*
X-44660D01*
G01X-45340Y102540D02*
X-44660D01*
G01X-9960Y-87840D02*
Y-87160D01*
G01X-5040Y-87840D02*
Y-87160D01*
G01X23150Y-6020D02*
Y-8980D01*
G01X16850Y-6020D02*
Y-8980D01*
G01X27200Y0D02*
X52800D01*
G01X56850Y-8980D02*
Y-6020D01*
G01X63150Y-8980D02*
Y-6020D01*
G01X85300Y32500D02*
X59700D01*
G01X55650Y41480D02*
Y38520D01*
G01X49350Y41480D02*
Y38520D01*
G01X85650Y-6020D02*
Y-8980D01*
G01X79350Y-6020D02*
Y-8980D01*
G01X72460Y-7500D02*
X67540D01*
G01X71020Y13150D02*
X73980D01*
G01X71020Y6850D02*
X73980D01*
G01X89700Y0D02*
X115300D01*
G01X89350Y38520D02*
Y41480D01*
G01X95650Y38520D02*
Y41480D01*
G01X105040Y40000D02*
X109960D01*
G01X119350Y-8980D02*
Y-6020D01*
G01X125650Y-8980D02*
Y-6020D01*
G01X134960Y-7500D02*
X130040D01*
G54D11*
G01X-184800Y-157400D02*
X184800D01*
G03X196800Y-145400I0J12000D01*
G01Y145400D01*
G03X184800Y157400I-12000J0D01*
G01X-184800D01*
G03X-196800Y145400I0J-12000D01*
G01Y-145400D01*
G03X-184800Y-157400I12000J0D01*
G01X-93630Y-52000D02*
Y-47000D01*
X-95220D01*
X-95720Y-47250D01*
X-96040Y-47580D01*
X-96170Y-48250D01*
X-96040Y-48920D01*
X-95660Y-49330D01*
X-95220Y-49580D01*
X-93630D01*
G01X-95220D02*
X-96170Y-52000D01*
G01X-100510Y-49330D02*
X-100760Y-49080D01*
X-100950Y-48670D01*
X-101080Y-48080D01*
X-100950Y-47580D01*
X-100700Y-47250D01*
X-100250Y-47000D01*
X-98540D01*
Y-52000D01*
X-100630D01*
X-101080Y-51670D01*
X-101330Y-51170D01*
X-101460Y-50580D01*
X-101330Y-50000D01*
X-100950Y-49500D01*
X-100510Y-49330D01*
X-98540D01*
G01X-103710Y-51000D02*
X-104090Y-51580D01*
X-104590Y-51920D01*
X-105160Y-52000D01*
X-105670Y-51920D01*
X-106180Y-51500D01*
X-106490Y-51000D01*
X-106560Y-50500D01*
X-106430Y-49920D01*
X-105990Y-49500D01*
X-105540Y-49330D01*
X-104970D01*
G01X-105540D02*
X-105920Y-49080D01*
X-106240Y-48670D01*
X-106370Y-48170D01*
X-106240Y-47670D01*
X-105920Y-47250D01*
X-105350Y-47000D01*
X-104780Y-47080D01*
X-104210Y-47420D01*
G01X-79510Y-71000D02*
Y-74580D01*
X-79760Y-75330D01*
X-80270Y-75830D01*
X-80900Y-76000D01*
X-81530Y-75830D01*
X-82040Y-75330D01*
X-82290Y-74580D01*
Y-71000D01*
G01X-86510Y-73330D02*
X-86760Y-73080D01*
X-86950Y-72670D01*
X-87080Y-72080D01*
X-86950Y-71580D01*
X-86700Y-71250D01*
X-86250Y-71000D01*
X-84540D01*
Y-76000D01*
X-86630D01*
X-87080Y-75670D01*
X-87330Y-75170D01*
X-87460Y-74580D01*
X-87330Y-74000D01*
X-86950Y-73500D01*
X-86510Y-73330D01*
X-84540D01*
G01X-91860Y-76000D02*
Y-71000D01*
X-89520Y-74580D01*
X-92680D01*
G01X-59630Y-102000D02*
Y-97000D01*
X-61220D01*
X-61720Y-97250D01*
X-62040Y-97580D01*
X-62170Y-98250D01*
X-62040Y-98920D01*
X-61660Y-99330D01*
X-61220Y-99580D01*
X-59630D01*
G01X-61220D02*
X-62170Y-102000D01*
G01X-66510Y-99330D02*
X-66760Y-99080D01*
X-66950Y-98670D01*
X-67080Y-98080D01*
X-66950Y-97580D01*
X-66700Y-97250D01*
X-66250Y-97000D01*
X-64540D01*
Y-102000D01*
X-66630D01*
X-67080Y-101670D01*
X-67330Y-101170D01*
X-67460Y-100580D01*
X-67330Y-100000D01*
X-66950Y-99500D01*
X-66510Y-99330D01*
X-64540D01*
G01X-70970Y-102000D02*
X-71100Y-100920D01*
X-71290Y-100000D01*
X-71540Y-99170D01*
X-71860Y-98250D01*
X-72370Y-97000D01*
X-69830D01*
G01X-69420Y-74710D02*
X-69170Y-75090D01*
X-69000Y-75530D01*
Y-76040D01*
X-69250Y-76610D01*
X-69670Y-77050D01*
X-70170Y-77370D01*
X-71000Y-77620D01*
X-71750Y-77680D01*
X-72500Y-77560D01*
X-73000Y-77370D01*
X-73500Y-76990D01*
X-73830Y-76540D01*
X-74000Y-76100D01*
Y-75660D01*
X-73830Y-75210D01*
X-73580Y-74830D01*
X-73250Y-74520D01*
G01X-71330Y-70490D02*
X-71080Y-70240D01*
X-70670Y-70050D01*
X-70080Y-69920D01*
X-69580Y-70050D01*
X-69250Y-70300D01*
X-69000Y-70750D01*
Y-72460D01*
X-74000D01*
Y-70370D01*
X-73670Y-69920D01*
X-73170Y-69670D01*
X-72580Y-69540D01*
X-72000Y-69670D01*
X-71500Y-70050D01*
X-71330Y-70490D01*
Y-72460D01*
G01X-74000Y-65900D02*
X-73920Y-65460D01*
X-73670Y-64950D01*
X-73250Y-64630D01*
X-72670Y-64510D01*
X-72080Y-64630D01*
X-71580Y-65010D01*
X-71330Y-65580D01*
Y-66220D01*
X-71170Y-66600D01*
X-70750Y-66910D01*
X-70170Y-67040D01*
X-69580Y-66850D01*
X-69170Y-66410D01*
X-69000Y-65900D01*
X-69170Y-65390D01*
X-69580Y-64950D01*
X-70170Y-64760D01*
X-70750Y-64890D01*
X-71170Y-65200D01*
X-71330Y-65580D01*
Y-66220D01*
X-71580Y-66790D01*
X-72080Y-67170D01*
X-72670Y-67290D01*
X-73250Y-67170D01*
X-73670Y-66850D01*
X-73920Y-66340D01*
X-74000Y-65900D01*
G01X-38630Y95000D02*
Y100000D01*
X-40220D01*
X-40720Y99750D01*
X-41040Y99420D01*
X-41170Y98750D01*
X-41040Y98080D01*
X-40660Y97670D01*
X-40220Y97420D01*
X-38630D01*
G01X-40220D02*
X-41170Y95000D01*
G01X-45510Y97670D02*
X-45760Y97920D01*
X-45950Y98330D01*
X-46080Y98920D01*
X-45950Y99420D01*
X-45700Y99750D01*
X-45250Y100000D01*
X-43540D01*
Y95000D01*
X-45630D01*
X-46080Y95330D01*
X-46330Y95830D01*
X-46460Y96420D01*
X-46330Y97000D01*
X-45950Y97500D01*
X-45510Y97670D01*
X-43540D01*
G01X-50100Y95000D02*
Y100000D01*
X-49340Y99000D01*
G01Y95000D02*
X-50860D01*
G01X-40000Y-81370D02*
X-35000D01*
Y-79780D01*
X-35250Y-79280D01*
X-35580Y-78960D01*
X-36250Y-78830D01*
X-36920Y-78960D01*
X-37330Y-79340D01*
X-37580Y-79780D01*
Y-81370D01*
G01Y-79780D02*
X-40000Y-78830D01*
G01X-37330Y-74490D02*
X-37080Y-74240D01*
X-36670Y-74050D01*
X-36080Y-73920D01*
X-35580Y-74050D01*
X-35250Y-74300D01*
X-35000Y-74750D01*
Y-76460D01*
X-40000D01*
Y-74370D01*
X-39670Y-73920D01*
X-39170Y-73670D01*
X-38580Y-73540D01*
X-38000Y-73670D01*
X-37500Y-74050D01*
X-37330Y-74490D01*
Y-76460D01*
G01X-40000Y-69140D02*
X-35000D01*
X-38580Y-71480D01*
Y-68320D01*
G01X-40000Y-95370D02*
X-35000D01*
Y-93780D01*
X-35250Y-93280D01*
X-35580Y-92960D01*
X-36250Y-92830D01*
X-36920Y-92960D01*
X-37330Y-93340D01*
X-37580Y-93780D01*
Y-95370D01*
G01Y-93780D02*
X-40000Y-92830D01*
G01X-37330Y-88490D02*
X-37080Y-88240D01*
X-36670Y-88050D01*
X-36080Y-87920D01*
X-35580Y-88050D01*
X-35250Y-88300D01*
X-35000Y-88750D01*
Y-90460D01*
X-40000D01*
Y-88370D01*
X-39670Y-87920D01*
X-39170Y-87670D01*
X-38580Y-87540D01*
X-38000Y-87670D01*
X-37500Y-88050D01*
X-37330Y-88490D01*
Y-90460D01*
G01X-37920Y-85100D02*
X-37330Y-84660D01*
X-37000Y-84280D01*
X-36830Y-83770D01*
X-37000Y-83330D01*
X-37330Y-83010D01*
X-37830Y-82760D01*
X-38420Y-82700D01*
X-38920Y-82760D01*
X-39420Y-83010D01*
X-39830Y-83390D01*
X-40000Y-83840D01*
X-39830Y-84340D01*
X-39330Y-84790D01*
X-38580Y-85040D01*
X-37750Y-85100D01*
X-36670Y-84980D01*
X-36080Y-84790D01*
X-35500Y-84470D01*
X-35080Y-84030D01*
X-35000Y-83580D01*
X-35170Y-83140D01*
X-35580Y-82820D01*
G01X-27000Y-48370D02*
X-22000D01*
Y-46780D01*
X-22250Y-46280D01*
X-22580Y-45960D01*
X-23250Y-45830D01*
X-23920Y-45960D01*
X-24330Y-46340D01*
X-24580Y-46780D01*
Y-48370D01*
G01Y-46780D02*
X-27000Y-45830D01*
G01X-24330Y-41490D02*
X-24080Y-41240D01*
X-23670Y-41050D01*
X-23080Y-40920D01*
X-22580Y-41050D01*
X-22250Y-41300D01*
X-22000Y-41750D01*
Y-43460D01*
X-27000D01*
Y-41370D01*
X-26670Y-40920D01*
X-26170Y-40670D01*
X-25580Y-40540D01*
X-25000Y-40670D01*
X-24500Y-41050D01*
X-24330Y-41490D01*
Y-43460D01*
G01X-22830Y-38100D02*
X-22330Y-37720D01*
X-22080Y-37280D01*
X-22000Y-36770D01*
X-22170Y-36140D01*
X-22580Y-35700D01*
X-23080Y-35570D01*
X-23580Y-35630D01*
X-24000Y-35890D01*
X-24830Y-37150D01*
X-25420Y-37720D01*
X-26250Y-38100D01*
X-27000Y-38230D01*
Y-35570D01*
G01X-3000Y-93370D02*
X2000D01*
Y-91780D01*
X1750Y-91280D01*
X1420Y-90960D01*
X750Y-90830D01*
X80Y-90960D01*
X-330Y-91340D01*
X-580Y-91780D01*
Y-93370D01*
G01Y-91780D02*
X-3000Y-90830D01*
G01X-330Y-86490D02*
X-80Y-86240D01*
X330Y-86050D01*
X920Y-85920D01*
X1420Y-86050D01*
X1750Y-86300D01*
X2000Y-86750D01*
Y-88460D01*
X-3000D01*
Y-86370D01*
X-2670Y-85920D01*
X-2170Y-85670D01*
X-1580Y-85540D01*
X-1000Y-85670D01*
X-500Y-86050D01*
X-330Y-86490D01*
Y-88460D01*
G01X-2250Y-83290D02*
X-2670Y-82910D01*
X-2920Y-82470D01*
X-3000Y-81900D01*
X-2830Y-81330D01*
X-2500Y-80890D01*
X-1920Y-80570D01*
X-1250Y-80510D01*
X-580Y-80630D01*
X-170Y-80950D01*
X170Y-81390D01*
X250Y-81840D01*
X170Y-82280D01*
X-170Y-82850D01*
X2000Y-82660D01*
Y-80950D01*
G01X12580Y-9710D02*
X12830Y-10090D01*
X13000Y-10530D01*
Y-11040D01*
X12750Y-11610D01*
X12330Y-12050D01*
X11830Y-12370D01*
X11000Y-12620D01*
X10250Y-12680D01*
X9500Y-12560D01*
X9000Y-12370D01*
X8500Y-11990D01*
X8170Y-11540D01*
X8000Y-11100D01*
Y-10660D01*
X8170Y-10210D01*
X8420Y-9830D01*
X8750Y-9520D01*
G01X10670Y-5490D02*
X10920Y-5240D01*
X11330Y-5050D01*
X11920Y-4920D01*
X12420Y-5050D01*
X12750Y-5300D01*
X13000Y-5750D01*
Y-7460D01*
X8000D01*
Y-5370D01*
X8330Y-4920D01*
X8830Y-4670D01*
X9420Y-4540D01*
X10000Y-4670D01*
X10500Y-5050D01*
X10670Y-5490D01*
Y-7460D01*
G01X8000Y-1030D02*
X9080Y-900D01*
X10000Y-710D01*
X10830Y-460D01*
X11750Y-140D01*
X13000Y370D01*
Y-2170D01*
G01X45490Y-18000D02*
Y-21580D01*
X45240Y-22330D01*
X44730Y-22830D01*
X44100Y-23000D01*
X43470Y-22830D01*
X42960Y-22330D01*
X42710Y-21580D01*
Y-18000D01*
G01X38490Y-20330D02*
X38240Y-20080D01*
X38050Y-19670D01*
X37920Y-19080D01*
X38050Y-18580D01*
X38300Y-18250D01*
X38750Y-18000D01*
X40460D01*
Y-23000D01*
X38370D01*
X37920Y-22670D01*
X37670Y-22170D01*
X37540Y-21580D01*
X37670Y-21000D01*
X38050Y-20500D01*
X38490Y-20330D01*
X40460D01*
G01X35290Y-22000D02*
X34910Y-22580D01*
X34410Y-22920D01*
X33840Y-23000D01*
X33330Y-22920D01*
X32820Y-22500D01*
X32510Y-22000D01*
X32440Y-21500D01*
X32570Y-20920D01*
X33010Y-20500D01*
X33460Y-20330D01*
X34030D01*
G01X33460D02*
X33080Y-20080D01*
X32760Y-19670D01*
X32630Y-19170D01*
X32760Y-18670D01*
X33080Y-18250D01*
X33650Y-18000D01*
X34220Y-18080D01*
X34790Y-18420D01*
G01X68000Y-41490D02*
X73000D01*
Y-40230D01*
X72750Y-39720D01*
X72420Y-39340D01*
X71920Y-39020D01*
X71330Y-38770D01*
X70500Y-38710D01*
X69670Y-38770D01*
X69080Y-39020D01*
X68580Y-39340D01*
X68250Y-39720D01*
X68000Y-40230D01*
Y-41490D01*
G01X70670Y-34490D02*
X70920Y-34240D01*
X71330Y-34050D01*
X71920Y-33920D01*
X72420Y-34050D01*
X72750Y-34300D01*
X73000Y-34750D01*
Y-36460D01*
X68000D01*
Y-34370D01*
X68330Y-33920D01*
X68830Y-33670D01*
X69420Y-33540D01*
X70000Y-33670D01*
X70500Y-34050D01*
X70670Y-34490D01*
Y-36460D01*
G01X69000Y-31290D02*
X68420Y-30910D01*
X68080Y-30410D01*
X68000Y-29840D01*
X68080Y-29330D01*
X68500Y-28820D01*
X69000Y-28510D01*
X69500Y-28440D01*
X70080Y-28570D01*
X70500Y-29010D01*
X70670Y-29460D01*
Y-30030D01*
G01Y-29460D02*
X70920Y-29080D01*
X71330Y-28760D01*
X71830Y-28630D01*
X72330Y-28760D01*
X72750Y-29080D01*
X73000Y-29650D01*
X72920Y-30220D01*
X72580Y-30790D01*
G01X75710Y4580D02*
X76090Y4830D01*
X76530Y5000D01*
X77040D01*
X77610Y4750D01*
X78050Y4330D01*
X78370Y3830D01*
X78620Y3000D01*
X78680Y2250D01*
X78560Y1500D01*
X78370Y1000D01*
X77990Y500D01*
X77540Y170D01*
X77100Y0D01*
X76660D01*
X76210Y170D01*
X75830Y420D01*
X75520Y750D01*
G01X71490Y2670D02*
X71240Y2920D01*
X71050Y3330D01*
X70920Y3920D01*
X71050Y4420D01*
X71300Y4750D01*
X71750Y5000D01*
X73460D01*
Y0D01*
X71370D01*
X70920Y330D01*
X70670Y830D01*
X70540Y1420D01*
X70670Y2000D01*
X71050Y2500D01*
X71490Y2670D01*
X73460D01*
G01X68290Y1000D02*
X67910Y420D01*
X67410Y80D01*
X66840Y0D01*
X66330Y80D01*
X65820Y500D01*
X65510Y1000D01*
X65440Y1500D01*
X65570Y2080D01*
X66010Y2500D01*
X66460Y2670D01*
X67030D01*
G01X66460D02*
X66080Y2920D01*
X65760Y3330D01*
X65630Y3830D01*
X65760Y4330D01*
X66080Y4750D01*
X66650Y5000D01*
X67220Y4920D01*
X67790Y4580D01*
G01X61580Y6290D02*
X61830Y5910D01*
X62000Y5470D01*
Y4960D01*
X61750Y4390D01*
X61330Y3950D01*
X60830Y3630D01*
X60000Y3380D01*
X59250Y3320D01*
X58500Y3440D01*
X58000Y3630D01*
X57500Y4010D01*
X57170Y4460D01*
X57000Y4900D01*
Y5340D01*
X57170Y5790D01*
X57420Y6170D01*
X57750Y6480D01*
G01X59670Y10510D02*
X59920Y10760D01*
X60330Y10950D01*
X60920Y11080D01*
X61420Y10950D01*
X61750Y10700D01*
X62000Y10250D01*
Y8540D01*
X57000D01*
Y10630D01*
X57330Y11080D01*
X57830Y11330D01*
X58420Y11460D01*
X59000Y11330D01*
X59500Y10950D01*
X59670Y10510D01*
Y8540D01*
G01X59080Y13900D02*
X59670Y14340D01*
X60000Y14720D01*
X60170Y15230D01*
X60000Y15670D01*
X59670Y15990D01*
X59170Y16240D01*
X58580Y16300D01*
X58080Y16240D01*
X57580Y15990D01*
X57170Y15610D01*
X57000Y15160D01*
X57170Y14660D01*
X57670Y14210D01*
X58420Y13960D01*
X59250Y13900D01*
X60330Y14020D01*
X60920Y14210D01*
X61500Y14530D01*
X61920Y14970D01*
X62000Y15420D01*
X61830Y15860D01*
X61420Y16180D01*
G01X54580Y54290D02*
X54830Y53910D01*
X55000Y53470D01*
Y52960D01*
X54750Y52390D01*
X54330Y51950D01*
X53830Y51630D01*
X53000Y51380D01*
X52250Y51320D01*
X51500Y51440D01*
X51000Y51630D01*
X50500Y52010D01*
X50170Y52460D01*
X50000Y52900D01*
Y53340D01*
X50170Y53790D01*
X50420Y54170D01*
X50750Y54480D01*
G01X52670Y58510D02*
X52920Y58760D01*
X53330Y58950D01*
X53920Y59080D01*
X54420Y58950D01*
X54750Y58700D01*
X55000Y58250D01*
Y56540D01*
X50000D01*
Y58630D01*
X50330Y59080D01*
X50830Y59330D01*
X51420Y59460D01*
X52000Y59330D01*
X52500Y58950D01*
X52670Y58510D01*
Y56540D01*
G01X54170Y61900D02*
X54670Y62280D01*
X54920Y62720D01*
X55000Y63230D01*
X54830Y63860D01*
X54420Y64300D01*
X53920Y64430D01*
X53420Y64370D01*
X53000Y64110D01*
X52170Y62850D01*
X51580Y62280D01*
X50750Y61900D01*
X50000Y61770D01*
Y64430D01*
G01X78490Y57000D02*
Y53420D01*
X78240Y52670D01*
X77730Y52170D01*
X77100Y52000D01*
X76470Y52170D01*
X75960Y52670D01*
X75710Y53420D01*
Y57000D01*
G01X71490Y54670D02*
X71240Y54920D01*
X71050Y55330D01*
X70920Y55920D01*
X71050Y56420D01*
X71300Y56750D01*
X71750Y57000D01*
X73460D01*
Y52000D01*
X71370D01*
X70920Y52330D01*
X70670Y52830D01*
X70540Y53420D01*
X70670Y54000D01*
X71050Y54500D01*
X71490Y54670D01*
X73460D01*
G01X66900Y52000D02*
Y57000D01*
X67660Y56000D01*
G01Y52000D02*
X66140D01*
G01X88580Y6290D02*
X88830Y5910D01*
X89000Y5470D01*
Y4960D01*
X88750Y4390D01*
X88330Y3950D01*
X87830Y3630D01*
X87000Y3380D01*
X86250Y3320D01*
X85500Y3440D01*
X85000Y3630D01*
X84500Y4010D01*
X84170Y4460D01*
X84000Y4900D01*
Y5340D01*
X84170Y5790D01*
X84420Y6170D01*
X84750Y6480D01*
G01X86670Y10510D02*
X86920Y10760D01*
X87330Y10950D01*
X87920Y11080D01*
X88420Y10950D01*
X88750Y10700D01*
X89000Y10250D01*
Y8540D01*
X84000D01*
Y10630D01*
X84330Y11080D01*
X84830Y11330D01*
X85420Y11460D01*
X86000Y11330D01*
X86500Y10950D01*
X86670Y10510D01*
Y8540D01*
G01X84750Y13710D02*
X84330Y14090D01*
X84080Y14530D01*
X84000Y15100D01*
X84170Y15670D01*
X84500Y16110D01*
X85080Y16430D01*
X85750Y16490D01*
X86420Y16370D01*
X86830Y16050D01*
X87170Y15610D01*
X87250Y15160D01*
X87170Y14720D01*
X86830Y14150D01*
X89000Y14340D01*
Y16050D01*
G01X109490Y-17000D02*
Y-20580D01*
X109240Y-21330D01*
X108730Y-21830D01*
X108100Y-22000D01*
X107470Y-21830D01*
X106960Y-21330D01*
X106710Y-20580D01*
Y-17000D01*
G01X102490Y-19330D02*
X102240Y-19080D01*
X102050Y-18670D01*
X101920Y-18080D01*
X102050Y-17580D01*
X102300Y-17250D01*
X102750Y-17000D01*
X104460D01*
Y-22000D01*
X102370D01*
X101920Y-21670D01*
X101670Y-21170D01*
X101540Y-20580D01*
X101670Y-20000D01*
X102050Y-19500D01*
X102490Y-19330D01*
X104460D01*
G01X99100Y-17830D02*
X98720Y-17330D01*
X98280Y-17080D01*
X97770Y-17000D01*
X97140Y-17170D01*
X96700Y-17580D01*
X96570Y-18080D01*
X96630Y-18580D01*
X96890Y-19000D01*
X98150Y-19830D01*
X98720Y-20420D01*
X99100Y-21250D01*
X99230Y-22000D01*
X96570D01*
G01X94580Y53290D02*
X94830Y52910D01*
X95000Y52470D01*
Y51960D01*
X94750Y51390D01*
X94330Y50950D01*
X93830Y50630D01*
X93000Y50380D01*
X92250Y50320D01*
X91500Y50440D01*
X91000Y50630D01*
X90500Y51010D01*
X90170Y51460D01*
X90000Y51900D01*
Y52340D01*
X90170Y52790D01*
X90420Y53170D01*
X90750Y53480D01*
G01X92670Y57510D02*
X92920Y57760D01*
X93330Y57950D01*
X93920Y58080D01*
X94420Y57950D01*
X94750Y57700D01*
X95000Y57250D01*
Y55540D01*
X90000D01*
Y57630D01*
X90330Y58080D01*
X90830Y58330D01*
X91420Y58460D01*
X92000Y58330D01*
X92500Y57950D01*
X92670Y57510D01*
Y55540D01*
G01X90000Y62100D02*
X95000D01*
X94000Y61340D01*
G01X90000D02*
Y62860D01*
G01X105000Y50510D02*
X110000D01*
Y51770D01*
X109750Y52280D01*
X109420Y52660D01*
X108920Y52980D01*
X108330Y53230D01*
X107500Y53290D01*
X106670Y53230D01*
X106080Y52980D01*
X105580Y52660D01*
X105250Y52280D01*
X105000Y51770D01*
Y50510D01*
G01X107670Y57510D02*
X107920Y57760D01*
X108330Y57950D01*
X108920Y58080D01*
X109420Y57950D01*
X109750Y57700D01*
X110000Y57250D01*
Y55540D01*
X105000D01*
Y57630D01*
X105330Y58080D01*
X105830Y58330D01*
X106420Y58460D01*
X107000Y58330D01*
X107500Y57950D01*
X107670Y57510D01*
Y55540D01*
G01X105000Y62100D02*
X110000D01*
X109000Y61340D01*
G01X105000D02*
Y62860D01*
G01X125580Y-30710D02*
X125830Y-31090D01*
X126000Y-31530D01*
Y-32040D01*
X125750Y-32610D01*
X125330Y-33050D01*
X124830Y-33370D01*
X124000Y-33620D01*
X123250Y-33680D01*
X122500Y-33560D01*
X122000Y-33370D01*
X121500Y-32990D01*
X121170Y-32540D01*
X121000Y-32100D01*
Y-31660D01*
X121170Y-31210D01*
X121420Y-30830D01*
X121750Y-30520D01*
G01X123670Y-26490D02*
X123920Y-26240D01*
X124330Y-26050D01*
X124920Y-25920D01*
X125420Y-26050D01*
X125750Y-26300D01*
X126000Y-26750D01*
Y-28460D01*
X121000D01*
Y-26370D01*
X121330Y-25920D01*
X121830Y-25670D01*
X122420Y-25540D01*
X123000Y-25670D01*
X123500Y-26050D01*
X123670Y-26490D01*
Y-28460D01*
G01X121000Y-21140D02*
X126000D01*
X122420Y-23480D01*
Y-20320D01*
G01X131000Y-33490D02*
X136000D01*
Y-32230D01*
X135750Y-31720D01*
X135420Y-31340D01*
X134920Y-31020D01*
X134330Y-30770D01*
X133500Y-30710D01*
X132670Y-30770D01*
X132080Y-31020D01*
X131580Y-31340D01*
X131250Y-31720D01*
X131000Y-32230D01*
Y-33490D01*
G01X133670Y-26490D02*
X133920Y-26240D01*
X134330Y-26050D01*
X134920Y-25920D01*
X135420Y-26050D01*
X135750Y-26300D01*
X136000Y-26750D01*
Y-28460D01*
X131000D01*
Y-26370D01*
X131330Y-25920D01*
X131830Y-25670D01*
X132420Y-25540D01*
X133000Y-25670D01*
X133500Y-26050D01*
X133670Y-26490D01*
Y-28460D01*
G01X135170Y-23100D02*
X135670Y-22720D01*
X135920Y-22280D01*
X136000Y-21770D01*
X135830Y-21140D01*
X135420Y-20700D01*
X134920Y-20570D01*
X134420Y-20630D01*
X134000Y-20890D01*
X133170Y-22150D01*
X132580Y-22720D01*
X131750Y-23100D01*
X131000Y-23230D01*
Y-20570D01*
M02*
