G04 ================== begin FILE IDENTIFICATION RECORD ==================*
G04 Layout Name:  D:/temp_desktop/Graduate/Design/Hardware/scheme/core/PCB/core.brd*
G04 Film Name:    SILKSCREENTOP*
G04 File Format:  Gerber RS274X*
G04 File Origin:  Cadence Allegro 17.4-S016*
G04 Origin Date:  Mon Apr 12 16:17:46 2021*
G04 *
G04 Layer:  REF DES/SILKSCREEN_TOP*
G04 Layer:  BOARD GEOMETRY/DESIGN_OUTLINE*
G04 Layer:  PACKAGE GEOMETRY/SILKSCREEN_TOP*
G04 Layer:  BOARD GEOMETRY/SILKSCREEN_TOP*
G04 *
G04 Offset:    (0.0 0.0)*
G04 Mirror:    No*
G04 Mode:      Positive*
G04 Rotation:  0*
G04 FullContactRelief:  No*
G04 UndefLineWidth:     6.0*
G04 ================== end FILE IDENTIFICATION RECORD ====================*
%FSLAX55Y55*MOIN*%
%IR0*IPPOS*OFA0.00000B0.00000*MIA0B0*SFA1.00000B1.00000*%
%ADD10C,.0079*%
%ADD11C,.006*%
G75*
%LPD*%
G75*
G36*
G01X-146850Y-120000D02*
G02I-1181J0D01*
G37*
G36*
G01X-121320Y-144470D02*
G02I-1180J1D01*
G37*
G36*
G01X-96450Y-40510D02*
G02I-597J-2D01*
G37*
G36*
G01X-102350Y-36990D02*
G02I-603J2D01*
G37*
G36*
G01X-96190Y-33720D02*
G02I-790J0D01*
G37*
G36*
G01X-76320Y-75960D02*
G02I-1180J-5D01*
G37*
G36*
G01X-85960Y-18460D02*
Y-13680D01*
X-81180Y-18460D01*
X-85960D01*
G37*
G36*
G01X-57370Y-51990D02*
G02I-583J2D01*
G37*
G36*
G01X-49860Y-46990D02*
G02I-593J2D01*
G37*
G36*
G01X45220Y-85000D02*
G02I-1185J0D01*
G37*
G36*
G01X72450Y-74900D02*
G02I-1572J-2D01*
G37*
G36*
G01X100330Y-100420D02*
G02I-783J-3D01*
G37*
G36*
G01X121180Y141970D02*
G02I-1180J-1D01*
G37*
G36*
G01X183150Y-120000D02*
G02I-1181J0D01*
G37*
G36*
G01X103070Y-151640D02*
Y-119160D01*
X136930D01*
Y-151640D01*
X103070D01*
G37*
G54D10*
G01X-150000Y-135000D02*
X-180000D01*
Y135000D01*
X-150000D01*
Y-135000D01*
G01X-137500Y-142500D02*
Y-112500D01*
X82500D01*
Y-142500D01*
X-137500D01*
G01X-57440Y-77930D02*
Y-107070D01*
X-137560D01*
Y-77930D01*
X-57440D01*
G01X135000Y140000D02*
Y110000D01*
X-135000D01*
Y140000D01*
X135000D01*
G01X-118520Y-39350D02*
X-121480D01*
G01X-118520Y-45650D02*
X-121480D01*
G01X-118520Y-29350D02*
X-121480D01*
G01X-118520Y-35650D02*
X-121480D01*
G01X-102460Y-47500D02*
X-97540D01*
G01Y-30000D02*
X-102460D01*
G01X-86550Y-52800D02*
Y-32200D01*
X-67450D01*
Y-52800D01*
X-86550D01*
G01X-19040Y-18460D02*
X-85960D01*
Y48460D01*
X-19040D01*
Y-18460D01*
G01X-60650Y-63520D02*
Y-66480D01*
G01X-54350Y-63520D02*
Y-66480D01*
G01X-50650Y-63520D02*
Y-66480D01*
G01X-52540Y-45000D02*
X-57460D01*
G01X-45040Y-40000D02*
X-49960D01*
G01X-47460Y-102160D02*
Y-102840D01*
G01X-42540Y-102160D02*
Y-102840D01*
G01X-44350Y-63520D02*
Y-66480D01*
G01X42070Y-105060D02*
X12930D01*
Y-24940D01*
X42070D01*
Y-105060D01*
G01X27460Y74660D02*
Y75340D01*
G01X22540Y74660D02*
Y75340D01*
G01Y90000D02*
X27460D01*
G01X65000Y-27460D02*
Y-22540D01*
G01X67730Y-103250D02*
Y-71750D01*
X82270D01*
Y-103250D01*
X67730D01*
G01X71020Y-68150D02*
X73980D01*
G01X71020Y-61850D02*
X73980D01*
G01X71020Y-58150D02*
X73980D01*
G01X71020Y-51850D02*
X73980D01*
G01X71020Y-48150D02*
X73980D01*
G01X71020Y-41850D02*
X73980D01*
G01X80340Y-22540D02*
X79660D01*
G01X80340Y-27460D02*
X79660D01*
G01X139490Y-91960D02*
X100510D01*
Y-83040D01*
X139490D01*
Y-91960D01*
G01X108520Y-45650D02*
X111480D01*
G01X108520Y-39350D02*
X111480D01*
G01X117460Y74660D02*
Y75340D01*
G01X112540Y74660D02*
Y75340D01*
G01Y90000D02*
X117460D01*
G01X128520Y-45650D02*
X131480D01*
G01X128520Y-39350D02*
X131480D01*
G01X134960Y74660D02*
Y75340D01*
G01X130040Y74660D02*
Y75340D01*
G01Y90000D02*
X134960D01*
G01X180000Y-135000D02*
X150000D01*
Y135000D01*
X180000D01*
Y-135000D01*
G54D11*
G01X-184800Y-157400D02*
X184800D01*
G03X196800Y-145400I0J12000D01*
G01Y145400D01*
G03X184800Y157400I-12000J0D01*
G01X-184800D01*
G03X-196800Y145400I0J-12000D01*
G01Y-145400D01*
G03X-184800Y-157400I12000J0D01*
G01X-171490Y-138000D02*
Y-141580D01*
X-171240Y-142330D01*
X-170730Y-142830D01*
X-170100Y-143000D01*
X-169470Y-142830D01*
X-168960Y-142330D01*
X-168710Y-141580D01*
Y-138000D01*
G01X-165000D02*
Y-143000D01*
G01X-166460Y-138000D02*
X-163540D01*
G01X-161290Y-142000D02*
X-160910Y-142580D01*
X-160410Y-142920D01*
X-159840Y-143000D01*
X-159330Y-142920D01*
X-158820Y-142500D01*
X-158510Y-142000D01*
X-158440Y-141500D01*
X-158570Y-140920D01*
X-159010Y-140500D01*
X-159460Y-140330D01*
X-160030D01*
G01X-159460D02*
X-159080Y-140080D01*
X-158760Y-139670D01*
X-158630Y-139170D01*
X-158760Y-138670D01*
X-159080Y-138250D01*
X-159650Y-138000D01*
X-160220Y-138080D01*
X-160790Y-138420D01*
G01X-128490Y-145000D02*
Y-148580D01*
X-128240Y-149330D01*
X-127730Y-149830D01*
X-127100Y-150000D01*
X-126470Y-149830D01*
X-125960Y-149330D01*
X-125710Y-148580D01*
Y-145000D01*
G01X-122000D02*
Y-150000D01*
G01X-123460Y-145000D02*
X-120540D01*
G01X-117980Y-149420D02*
X-117530Y-149830D01*
X-117030Y-150000D01*
X-116520Y-149830D01*
X-116080Y-149330D01*
X-115760Y-148580D01*
X-115630Y-147830D01*
Y-146920D01*
X-115760Y-146170D01*
X-116080Y-145500D01*
X-116460Y-145170D01*
X-116900Y-145000D01*
X-117410Y-145170D01*
X-117790Y-145500D01*
X-118040Y-146000D01*
X-118170Y-146670D01*
X-118040Y-147250D01*
X-117720Y-147830D01*
X-117340Y-148170D01*
X-116900Y-148250D01*
X-116390Y-148080D01*
X-116010Y-147670D01*
X-115630Y-146920D01*
G01X-137490Y-70000D02*
Y-73580D01*
X-137240Y-74330D01*
X-136730Y-74830D01*
X-136100Y-75000D01*
X-135470Y-74830D01*
X-134960Y-74330D01*
X-134710Y-73580D01*
Y-70000D01*
G01X-131000D02*
Y-75000D01*
G01X-132460Y-70000D02*
X-129540D01*
G01X-125900Y-75000D02*
X-125460Y-74920D01*
X-124950Y-74670D01*
X-124630Y-74250D01*
X-124510Y-73670D01*
X-124630Y-73080D01*
X-125010Y-72580D01*
X-125580Y-72330D01*
X-126220D01*
X-126600Y-72170D01*
X-126910Y-71750D01*
X-127040Y-71170D01*
X-126850Y-70580D01*
X-126410Y-70170D01*
X-125900Y-70000D01*
X-125390Y-70170D01*
X-124950Y-70580D01*
X-124760Y-71170D01*
X-124890Y-71750D01*
X-125200Y-72170D01*
X-125580Y-72330D01*
X-126220D01*
X-126790Y-72580D01*
X-127170Y-73080D01*
X-127290Y-73670D01*
X-127170Y-74250D01*
X-126850Y-74670D01*
X-126340Y-74920D01*
X-125900Y-75000D01*
G01X-140710Y-40420D02*
X-141090Y-40170D01*
X-141530Y-40000D01*
X-142040D01*
X-142610Y-40250D01*
X-143050Y-40670D01*
X-143370Y-41170D01*
X-143620Y-42000D01*
X-143680Y-42750D01*
X-143560Y-43500D01*
X-143370Y-44000D01*
X-142990Y-44500D01*
X-142540Y-44830D01*
X-142100Y-45000D01*
X-141660D01*
X-141210Y-44830D01*
X-140830Y-44580D01*
X-140520Y-44250D01*
G01X-137000Y-40000D02*
Y-45000D01*
G01X-138460Y-40000D02*
X-135540D01*
G01X-133100Y-40830D02*
X-132720Y-40330D01*
X-132280Y-40080D01*
X-131770Y-40000D01*
X-131140Y-40170D01*
X-130700Y-40580D01*
X-130570Y-41080D01*
X-130630Y-41580D01*
X-130890Y-42000D01*
X-132150Y-42830D01*
X-132720Y-43420D01*
X-133100Y-44250D01*
X-133230Y-45000D01*
X-130570D01*
G01X-140710Y-29420D02*
X-141090Y-29170D01*
X-141530Y-29000D01*
X-142040D01*
X-142610Y-29250D01*
X-143050Y-29670D01*
X-143370Y-30170D01*
X-143620Y-31000D01*
X-143680Y-31750D01*
X-143560Y-32500D01*
X-143370Y-33000D01*
X-142990Y-33500D01*
X-142540Y-33830D01*
X-142100Y-34000D01*
X-141660D01*
X-141210Y-33830D01*
X-140830Y-33580D01*
X-140520Y-33250D01*
G01X-137000Y-29000D02*
Y-34000D01*
G01X-138460Y-29000D02*
X-135540D01*
G01X-131900Y-34000D02*
Y-29000D01*
X-132660Y-30000D01*
G01Y-34000D02*
X-131140D01*
G01X-119500Y-26010D02*
X-114500D01*
Y-27270D01*
X-114750Y-27780D01*
X-115080Y-28160D01*
X-115580Y-28480D01*
X-116170Y-28730D01*
X-117000Y-28790D01*
X-117830Y-28730D01*
X-118420Y-28480D01*
X-118920Y-28160D01*
X-119250Y-27780D01*
X-119500Y-27270D01*
Y-26010D01*
G01X-114500Y-32500D02*
X-119500D01*
G01X-114500Y-31040D02*
Y-33960D01*
G01X-119500Y-37470D02*
X-118420Y-37600D01*
X-117500Y-37790D01*
X-116670Y-38040D01*
X-115750Y-38360D01*
X-114500Y-38870D01*
Y-36330D01*
G01X-104000Y6510D02*
X-100420D01*
X-99670Y6760D01*
X-99170Y7270D01*
X-99000Y7900D01*
X-99170Y8530D01*
X-99670Y9040D01*
X-100420Y9290D01*
X-104000D01*
G01Y13000D02*
X-99000D01*
G01X-104000Y11540D02*
Y14460D01*
G01X-103170Y16900D02*
X-103670Y17280D01*
X-103920Y17720D01*
X-104000Y18230D01*
X-103830Y18860D01*
X-103420Y19300D01*
X-102920Y19430D01*
X-102420Y19370D01*
X-102000Y19110D01*
X-101170Y17850D01*
X-100580Y17280D01*
X-99750Y16900D01*
X-99000Y16770D01*
Y19430D01*
G01X-69580Y-68210D02*
X-69830Y-68590D01*
X-70000Y-69030D01*
Y-69540D01*
X-69750Y-70110D01*
X-69330Y-70550D01*
X-68830Y-70870D01*
X-68000Y-71120D01*
X-67250Y-71180D01*
X-66500Y-71060D01*
X-66000Y-70870D01*
X-65500Y-70490D01*
X-65170Y-70040D01*
X-65000Y-69600D01*
Y-69160D01*
X-65170Y-68710D01*
X-65420Y-68330D01*
X-65750Y-68020D01*
G01X-70000Y-64500D02*
X-65000D01*
G01X-70000Y-65960D02*
Y-63040D01*
G01X-65000Y-59530D02*
X-66080Y-59400D01*
X-67000Y-59210D01*
X-67830Y-58960D01*
X-68750Y-58640D01*
X-70000Y-58130D01*
Y-60670D01*
G01X-77500Y-51490D02*
X-82500D01*
Y-50230D01*
X-82250Y-49720D01*
X-81920Y-49340D01*
X-81420Y-49020D01*
X-80830Y-48770D01*
X-80000Y-48710D01*
X-79170Y-48770D01*
X-78580Y-49020D01*
X-78080Y-49340D01*
X-77750Y-49720D01*
X-77500Y-50230D01*
Y-51490D01*
G01X-82500Y-45000D02*
X-77500D01*
G01X-82500Y-46460D02*
Y-43540D01*
G01X-78250Y-41290D02*
X-77830Y-40910D01*
X-77580Y-40470D01*
X-77500Y-39900D01*
X-77670Y-39330D01*
X-78000Y-38890D01*
X-78580Y-38570D01*
X-79250Y-38510D01*
X-79920Y-38630D01*
X-80330Y-38950D01*
X-80670Y-39390D01*
X-80750Y-39840D01*
X-80670Y-40280D01*
X-80330Y-40850D01*
X-82500Y-40660D01*
Y-38950D01*
G01X-83490Y-25140D02*
Y-28720D01*
X-83240Y-29470D01*
X-82730Y-29970D01*
X-82100Y-30140D01*
X-81470Y-29970D01*
X-80960Y-29470D01*
X-80710Y-28720D01*
Y-25140D01*
G01X-77000D02*
Y-30140D01*
G01X-78460Y-25140D02*
X-75540D01*
G01X-73290Y-29390D02*
X-72910Y-29810D01*
X-72470Y-30060D01*
X-71900Y-30140D01*
X-71330Y-29970D01*
X-70890Y-29640D01*
X-70570Y-29060D01*
X-70510Y-28390D01*
X-70630Y-27720D01*
X-70950Y-27310D01*
X-71390Y-26970D01*
X-71840Y-26890D01*
X-72280Y-26970D01*
X-72850Y-27310D01*
X-72660Y-25140D01*
X-70950D01*
G01X-33000Y-108370D02*
X-38000D01*
Y-106780D01*
X-37750Y-106280D01*
X-37420Y-105960D01*
X-36750Y-105830D01*
X-36080Y-105960D01*
X-35670Y-106340D01*
X-35420Y-106780D01*
Y-108370D01*
G01Y-106780D02*
X-33000Y-105830D01*
G01X-38000Y-102000D02*
X-33000D01*
G01X-38000Y-103460D02*
Y-100540D01*
G01X-33750Y-98290D02*
X-33330Y-97910D01*
X-33080Y-97470D01*
X-33000Y-96900D01*
X-33170Y-96330D01*
X-33500Y-95890D01*
X-34080Y-95570D01*
X-34750Y-95510D01*
X-35420Y-95630D01*
X-35830Y-95950D01*
X-36170Y-96390D01*
X-36250Y-96840D01*
X-36170Y-97280D01*
X-35830Y-97850D01*
X-38000Y-97660D01*
Y-95950D01*
G01X-41580Y-68210D02*
X-41830Y-68590D01*
X-42000Y-69030D01*
Y-69540D01*
X-41750Y-70110D01*
X-41330Y-70550D01*
X-40830Y-70870D01*
X-40000Y-71120D01*
X-39250Y-71180D01*
X-38500Y-71060D01*
X-38000Y-70870D01*
X-37500Y-70490D01*
X-37170Y-70040D01*
X-37000Y-69600D01*
Y-69160D01*
X-37170Y-68710D01*
X-37420Y-68330D01*
X-37750Y-68020D01*
G01X-42000Y-64500D02*
X-37000D01*
G01X-42000Y-65960D02*
Y-63040D01*
G01X-37000Y-59400D02*
X-37080Y-58960D01*
X-37330Y-58450D01*
X-37750Y-58130D01*
X-38330Y-58010D01*
X-38920Y-58130D01*
X-39420Y-58510D01*
X-39670Y-59080D01*
Y-59720D01*
X-39830Y-60100D01*
X-40250Y-60410D01*
X-40830Y-60540D01*
X-41420Y-60350D01*
X-41830Y-59910D01*
X-42000Y-59400D01*
X-41830Y-58890D01*
X-41420Y-58450D01*
X-40830Y-58260D01*
X-40250Y-58390D01*
X-39830Y-58700D01*
X-39670Y-59080D01*
Y-59720D01*
X-39420Y-60290D01*
X-38920Y-60670D01*
X-38330Y-60790D01*
X-37750Y-60670D01*
X-37330Y-60350D01*
X-37080Y-59840D01*
X-37000Y-59400D01*
G01X-35500Y-47490D02*
X-40500D01*
Y-46230D01*
X-40250Y-45720D01*
X-39920Y-45340D01*
X-39420Y-45020D01*
X-38830Y-44770D01*
X-38000Y-44710D01*
X-37170Y-44770D01*
X-36580Y-45020D01*
X-36080Y-45340D01*
X-35750Y-45720D01*
X-35500Y-46230D01*
Y-47490D01*
G01X-40500Y-41000D02*
X-35500D01*
G01X-40500Y-42460D02*
Y-39540D01*
G01X-35500Y-35900D02*
X-35580Y-35460D01*
X-35830Y-34950D01*
X-36250Y-34630D01*
X-36830Y-34510D01*
X-37420Y-34630D01*
X-37920Y-35010D01*
X-38170Y-35580D01*
Y-36220D01*
X-38330Y-36600D01*
X-38750Y-36910D01*
X-39330Y-37040D01*
X-39920Y-36850D01*
X-40330Y-36410D01*
X-40500Y-35900D01*
X-40330Y-35390D01*
X-39920Y-34950D01*
X-39330Y-34760D01*
X-38750Y-34890D01*
X-38330Y-35200D01*
X-38170Y-35580D01*
Y-36220D01*
X-37920Y-36790D01*
X-37420Y-37170D01*
X-36830Y-37290D01*
X-36250Y-37170D01*
X-35830Y-36850D01*
X-35580Y-36340D01*
X-35500Y-35900D01*
G01X-31000Y-47490D02*
X-36000D01*
Y-46230D01*
X-35750Y-45720D01*
X-35420Y-45340D01*
X-34920Y-45020D01*
X-34330Y-44770D01*
X-33500Y-44710D01*
X-32670Y-44770D01*
X-32080Y-45020D01*
X-31580Y-45340D01*
X-31250Y-45720D01*
X-31000Y-46230D01*
Y-47490D01*
G01X-36000Y-41000D02*
X-31000D01*
G01X-36000Y-42460D02*
Y-39540D01*
G01X-33080Y-37100D02*
X-33670Y-36660D01*
X-34000Y-36280D01*
X-34170Y-35770D01*
X-34000Y-35330D01*
X-33670Y-35010D01*
X-33170Y-34760D01*
X-32580Y-34700D01*
X-32080Y-34760D01*
X-31580Y-35010D01*
X-31170Y-35390D01*
X-31000Y-35840D01*
X-31170Y-36340D01*
X-31670Y-36790D01*
X-32420Y-37040D01*
X-33250Y-37100D01*
X-34330Y-36980D01*
X-34920Y-36790D01*
X-35500Y-36470D01*
X-35920Y-36030D01*
X-36000Y-35580D01*
X-35830Y-35140D01*
X-35420Y-34820D01*
G01X6850Y-71490D02*
X10430D01*
X11180Y-71240D01*
X11680Y-70730D01*
X11850Y-70100D01*
X11680Y-69470D01*
X11180Y-68960D01*
X10430Y-68710D01*
X6850D01*
G01Y-65000D02*
X11850D01*
G01X6850Y-66460D02*
Y-63540D01*
G01X9770Y-61100D02*
X9180Y-60660D01*
X8850Y-60280D01*
X8680Y-59770D01*
X8850Y-59330D01*
X9180Y-59010D01*
X9680Y-58760D01*
X10270Y-58700D01*
X10770Y-58760D01*
X11270Y-59010D01*
X11680Y-59390D01*
X11850Y-59840D01*
X11680Y-60340D01*
X11180Y-60790D01*
X10430Y-61040D01*
X9600Y-61100D01*
X8520Y-60980D01*
X7930Y-60790D01*
X7350Y-60470D01*
X6930Y-60030D01*
X6850Y-59580D01*
X7020Y-59140D01*
X7430Y-58820D01*
G01X18000Y68630D02*
X13000D01*
Y70220D01*
X13250Y70720D01*
X13580Y71040D01*
X14250Y71170D01*
X14920Y71040D01*
X15330Y70660D01*
X15580Y70220D01*
Y68630D01*
G01Y70220D02*
X18000Y71170D01*
G01X13000Y75000D02*
X18000D01*
G01X13000Y73540D02*
Y76460D01*
G01X17000Y78710D02*
X17580Y79090D01*
X17920Y79590D01*
X18000Y80160D01*
X17920Y80670D01*
X17500Y81180D01*
X17000Y81490D01*
X16500Y81560D01*
X15920Y81430D01*
X15500Y80990D01*
X15330Y80540D01*
Y79970D01*
G01Y80540D02*
X15080Y80920D01*
X14670Y81240D01*
X14170Y81370D01*
X13670Y81240D01*
X13250Y80920D01*
X13000Y80350D01*
X13080Y79780D01*
X13420Y79210D01*
G01X18000Y83510D02*
X13000D01*
Y84770D01*
X13250Y85280D01*
X13580Y85660D01*
X14080Y85980D01*
X14670Y86230D01*
X15500Y86290D01*
X16330Y86230D01*
X16920Y85980D01*
X17420Y85660D01*
X17750Y85280D01*
X18000Y84770D01*
Y83510D01*
G01X13000Y90000D02*
X18000D01*
G01X13000Y88540D02*
Y91460D01*
G01X17000Y93710D02*
X17580Y94090D01*
X17920Y94590D01*
X18000Y95160D01*
X17920Y95670D01*
X17500Y96180D01*
X17000Y96490D01*
X16500Y96560D01*
X15920Y96430D01*
X15500Y95990D01*
X15330Y95540D01*
Y94970D01*
G01Y95540D02*
X15080Y95920D01*
X14670Y96240D01*
X14170Y96370D01*
X13670Y96240D01*
X13250Y95920D01*
X13000Y95350D01*
X13080Y94780D01*
X13420Y94210D01*
G01X62330Y-96480D02*
X62750Y-95970D01*
X63000Y-95400D01*
Y-94900D01*
X62750Y-94390D01*
X62330Y-94010D01*
X61750Y-93820D01*
X61170Y-93950D01*
X60670Y-94260D01*
X60330Y-94830D01*
X60170Y-95590D01*
X59830Y-96040D01*
X59250Y-96230D01*
X58670Y-96100D01*
X58250Y-95780D01*
X58000Y-95340D01*
Y-94900D01*
X58170Y-94450D01*
X58580Y-94070D01*
G01X58000Y-91950D02*
X63000Y-91060D01*
X58000Y-90050D01*
X63000Y-89040D01*
X58000Y-88150D01*
G01Y-84950D02*
X63000D01*
G01X58000Y-86410D02*
Y-83490D01*
G01X63000Y-79850D02*
X58000D01*
X59000Y-80610D01*
G01X63000D02*
Y-79090D01*
G01X52290Y-54420D02*
X51910Y-54170D01*
X51470Y-54000D01*
X50960D01*
X50390Y-54250D01*
X49950Y-54670D01*
X49630Y-55170D01*
X49380Y-56000D01*
X49320Y-56750D01*
X49440Y-57500D01*
X49630Y-58000D01*
X50010Y-58500D01*
X50460Y-58830D01*
X50900Y-59000D01*
X51340D01*
X51790Y-58830D01*
X52170Y-58580D01*
X52480Y-58250D01*
G01X56000Y-54000D02*
Y-59000D01*
G01X54540Y-54000D02*
X57460D01*
G01X59900Y-56920D02*
X60340Y-56330D01*
X60720Y-56000D01*
X61230Y-55830D01*
X61670Y-56000D01*
X61990Y-56330D01*
X62240Y-56830D01*
X62300Y-57420D01*
X62240Y-57920D01*
X61990Y-58420D01*
X61610Y-58830D01*
X61160Y-59000D01*
X60660Y-58830D01*
X60210Y-58330D01*
X59960Y-57580D01*
X59900Y-56750D01*
X60020Y-55670D01*
X60210Y-55080D01*
X60530Y-54500D01*
X60970Y-54080D01*
X61420Y-54000D01*
X61860Y-54170D01*
X62180Y-54580D01*
G01X52290Y-63420D02*
X51910Y-63170D01*
X51470Y-63000D01*
X50960D01*
X50390Y-63250D01*
X49950Y-63670D01*
X49630Y-64170D01*
X49380Y-65000D01*
X49320Y-65750D01*
X49440Y-66500D01*
X49630Y-67000D01*
X50010Y-67500D01*
X50460Y-67830D01*
X50900Y-68000D01*
X51340D01*
X51790Y-67830D01*
X52170Y-67580D01*
X52480Y-67250D01*
G01X56000Y-63000D02*
Y-68000D01*
G01X54540Y-63000D02*
X57460D01*
G01X60020Y-67420D02*
X60470Y-67830D01*
X60970Y-68000D01*
X61480Y-67830D01*
X61920Y-67330D01*
X62240Y-66580D01*
X62370Y-65830D01*
Y-64920D01*
X62240Y-64170D01*
X61920Y-63500D01*
X61540Y-63170D01*
X61100Y-63000D01*
X60590Y-63170D01*
X60210Y-63500D01*
X59960Y-64000D01*
X59830Y-64670D01*
X59960Y-65250D01*
X60280Y-65830D01*
X60660Y-66170D01*
X61100Y-66250D01*
X61610Y-66080D01*
X61990Y-65670D01*
X62370Y-64920D01*
G01X52290Y-43420D02*
X51910Y-43170D01*
X51470Y-43000D01*
X50960D01*
X50390Y-43250D01*
X49950Y-43670D01*
X49630Y-44170D01*
X49380Y-45000D01*
X49320Y-45750D01*
X49440Y-46500D01*
X49630Y-47000D01*
X50010Y-47500D01*
X50460Y-47830D01*
X50900Y-48000D01*
X51340D01*
X51790Y-47830D01*
X52170Y-47580D01*
X52480Y-47250D01*
G01X56000Y-43000D02*
Y-48000D01*
G01X54540Y-43000D02*
X57460D01*
G01X59710Y-47250D02*
X60090Y-47670D01*
X60530Y-47920D01*
X61100Y-48000D01*
X61670Y-47830D01*
X62110Y-47500D01*
X62430Y-46920D01*
X62490Y-46250D01*
X62370Y-45580D01*
X62050Y-45170D01*
X61610Y-44830D01*
X61160Y-44750D01*
X60720Y-44830D01*
X60150Y-45170D01*
X60340Y-43000D01*
X62050D01*
G01X58510Y-36000D02*
Y-31000D01*
X59770D01*
X60280Y-31250D01*
X60660Y-31580D01*
X60980Y-32080D01*
X61230Y-32670D01*
X61290Y-33500D01*
X61230Y-34330D01*
X60980Y-34920D01*
X60660Y-35420D01*
X60280Y-35750D01*
X59770Y-36000D01*
X58510D01*
G01X65000Y-31000D02*
Y-36000D01*
G01X63540Y-31000D02*
X66460D01*
G01X68900Y-31830D02*
X69280Y-31330D01*
X69720Y-31080D01*
X70230Y-31000D01*
X70860Y-31170D01*
X71300Y-31580D01*
X71430Y-32080D01*
X71370Y-32580D01*
X71110Y-33000D01*
X69850Y-33830D01*
X69280Y-34420D01*
X68900Y-35250D01*
X68770Y-36000D01*
X71430D01*
G01X73630D02*
Y-31000D01*
X75220D01*
X75720Y-31250D01*
X76040Y-31580D01*
X76170Y-32250D01*
X76040Y-32920D01*
X75660Y-33330D01*
X75220Y-33580D01*
X73630D01*
G01X75220D02*
X76170Y-36000D01*
G01X80000Y-31000D02*
Y-36000D01*
G01X78540Y-31000D02*
X81460D01*
G01X83900Y-31830D02*
X84280Y-31330D01*
X84720Y-31080D01*
X85230Y-31000D01*
X85860Y-31170D01*
X86300Y-31580D01*
X86430Y-32080D01*
X86370Y-32580D01*
X86110Y-33000D01*
X84850Y-33830D01*
X84280Y-34420D01*
X83900Y-35250D01*
X83770Y-36000D01*
X86430D01*
G01X92210Y-146500D02*
Y-148290D01*
X92320Y-148670D01*
X92530Y-148920D01*
X92800Y-149000D01*
X93070Y-148920D01*
X93280Y-148670D01*
X93390Y-148290D01*
Y-146500D01*
G01X95000D02*
Y-149000D01*
G01X94390Y-146500D02*
X95610D01*
G01X97200Y-149000D02*
Y-146500D01*
X96880Y-147000D01*
G01Y-149000D02*
X97520D01*
G01X99400Y-146500D02*
X99190Y-146580D01*
X99030Y-146790D01*
X98920Y-147040D01*
X98840Y-147380D01*
X98810Y-147750D01*
X98840Y-148130D01*
X98920Y-148460D01*
X99030Y-148710D01*
X99190Y-148920D01*
X99400Y-149000D01*
X99610Y-148920D01*
X99770Y-148710D01*
X99880Y-148460D01*
X99960Y-148130D01*
X99990Y-147750D01*
X99960Y-147380D01*
X99880Y-147040D01*
X99770Y-146790D01*
X99610Y-146580D01*
X99400Y-146500D01*
G01X100510Y-103000D02*
Y-106580D01*
X100760Y-107330D01*
X101270Y-107830D01*
X101900Y-108000D01*
X102530Y-107830D01*
X103040Y-107330D01*
X103290Y-106580D01*
Y-103000D01*
G01X107000D02*
Y-108000D01*
G01X105540Y-103000D02*
X108460D01*
G01X111970Y-108000D02*
X112100Y-106920D01*
X112290Y-106000D01*
X112540Y-105170D01*
X112860Y-104250D01*
X113370Y-103000D01*
X110830D01*
G01X90900Y-56000D02*
Y-53750D01*
X89630Y-51000D01*
G01X92170D02*
X90900Y-53750D01*
G01X96000Y-51000D02*
Y-56000D01*
G01X94540Y-51000D02*
X97460D01*
G01X101100Y-56000D02*
Y-51000D01*
X100340Y-52000D01*
G01Y-56000D02*
X101860D01*
G01X106290Y-31420D02*
X105910Y-31170D01*
X105470Y-31000D01*
X104960D01*
X104390Y-31250D01*
X103950Y-31670D01*
X103630Y-32170D01*
X103380Y-33000D01*
X103320Y-33750D01*
X103440Y-34500D01*
X103630Y-35000D01*
X104010Y-35500D01*
X104460Y-35830D01*
X104900Y-36000D01*
X105340D01*
X105790Y-35830D01*
X106170Y-35580D01*
X106480Y-35250D01*
G01X110000Y-31000D02*
Y-36000D01*
G01X108540Y-31000D02*
X111460D01*
G01X113710Y-35000D02*
X114090Y-35580D01*
X114590Y-35920D01*
X115160Y-36000D01*
X115670Y-35920D01*
X116180Y-35500D01*
X116490Y-35000D01*
X116560Y-34500D01*
X116430Y-33920D01*
X115990Y-33500D01*
X115540Y-33330D01*
X114970D01*
G01X115540D02*
X115920Y-33080D01*
X116240Y-32670D01*
X116370Y-32170D01*
X116240Y-31670D01*
X115920Y-31250D01*
X115350Y-31000D01*
X114780Y-31080D01*
X114210Y-31420D01*
G01X110000Y68630D02*
X105000D01*
Y70220D01*
X105250Y70720D01*
X105580Y71040D01*
X106250Y71170D01*
X106920Y71040D01*
X107330Y70660D01*
X107580Y70220D01*
Y68630D01*
G01Y70220D02*
X110000Y71170D01*
G01X105000Y75000D02*
X110000D01*
G01X105000Y73540D02*
Y76460D01*
G01X110000Y80100D02*
X105000D01*
X106000Y79340D01*
G01X110000D02*
Y80860D01*
G01Y83510D02*
X105000D01*
Y84770D01*
X105250Y85280D01*
X105580Y85660D01*
X106080Y85980D01*
X106670Y86230D01*
X107500Y86290D01*
X108330Y86230D01*
X108920Y85980D01*
X109420Y85660D01*
X109750Y85280D01*
X110000Y84770D01*
Y83510D01*
G01X105000Y90000D02*
X110000D01*
G01X105000Y88540D02*
Y91460D01*
G01X110000Y95100D02*
X105000D01*
X106000Y94340D01*
G01X110000D02*
Y95860D01*
G01X125290Y-31420D02*
X124910Y-31170D01*
X124470Y-31000D01*
X123960D01*
X123390Y-31250D01*
X122950Y-31670D01*
X122630Y-32170D01*
X122380Y-33000D01*
X122320Y-33750D01*
X122440Y-34500D01*
X122630Y-35000D01*
X123010Y-35500D01*
X123460Y-35830D01*
X123900Y-36000D01*
X124340D01*
X124790Y-35830D01*
X125170Y-35580D01*
X125480Y-35250D01*
G01X129000Y-31000D02*
Y-36000D01*
G01X127540Y-31000D02*
X130460D01*
G01X134860Y-36000D02*
Y-31000D01*
X132520Y-34580D01*
X135680D01*
G01X126000Y68630D02*
X121000D01*
Y70220D01*
X121250Y70720D01*
X121580Y71040D01*
X122250Y71170D01*
X122920Y71040D01*
X123330Y70660D01*
X123580Y70220D01*
Y68630D01*
G01Y70220D02*
X126000Y71170D01*
G01X121000Y75000D02*
X126000D01*
G01X121000Y73540D02*
Y76460D01*
G01X126000Y80860D02*
X121000D01*
X124580Y78520D01*
Y81680D01*
G01X126000Y83510D02*
X121000D01*
Y84770D01*
X121250Y85280D01*
X121580Y85660D01*
X122080Y85980D01*
X122670Y86230D01*
X123500Y86290D01*
X124330Y86230D01*
X124920Y85980D01*
X125420Y85660D01*
X125750Y85280D01*
X126000Y84770D01*
Y83510D01*
G01X121000Y90000D02*
X126000D01*
G01X121000Y88540D02*
Y91460D01*
G01X126000Y95860D02*
X121000D01*
X124580Y93520D01*
Y96680D01*
G01X114510Y150000D02*
Y146420D01*
X114760Y145670D01*
X115270Y145170D01*
X115900Y145000D01*
X116530Y145170D01*
X117040Y145670D01*
X117290Y146420D01*
Y150000D01*
G01X121000D02*
Y145000D01*
G01X119540Y150000D02*
X122460D01*
G01X126100Y145000D02*
Y150000D01*
X125340Y149000D01*
G01Y145000D02*
X126860D01*
G01X159510Y-138000D02*
Y-141580D01*
X159760Y-142330D01*
X160270Y-142830D01*
X160900Y-143000D01*
X161530Y-142830D01*
X162040Y-142330D01*
X162290Y-141580D01*
Y-138000D01*
G01X166000D02*
Y-143000D01*
G01X164540Y-138000D02*
X167460D01*
G01X171860Y-143000D02*
Y-138000D01*
X169520Y-141580D01*
X172680D01*
M02*
