G04 ================== begin FILE IDENTIFICATION RECORD ==================*
G04 Layout Name:  D:/temp_desktop/Graduate/Design/Hardware/scheme/core/PCB/core.brd*
G04 Film Name:    TOP*
G04 File Format:  Gerber RS274X*
G04 File Origin:  Cadence Allegro 17.4-S016*
G04 Origin Date:  Mon Apr 12 16:17:46 2021*
G04 *
G04 Layer:  BOARD GEOMETRY/DESIGN_OUTLINE*
G04 Layer:  ETCH/TOP*
G04 Layer:  PIN/TOP*
G04 Layer:  VIA CLASS/TOP*
G04 *
G04 Offset:    (0.0 0.0)*
G04 Mirror:    No*
G04 Mode:      Positive*
G04 Rotation:  0*
G04 FullContactRelief:  Yes*
G04 UndefLineWidth:     6.0*
G04 ================== end FILE IDENTIFICATION RECORD ====================*
%FSLAX55Y55*MOIN*%
%IR0*IPPOS*OFA0.00000B0.00000*MIA0B0*SFA1.00000B1.00000*%
%ADD10C,.1575*%
%ADD13C,.02*%
%ADD20R,.0551X.0404*%
%ADD25R,.0404X.0551*%
%ADD22C,.0632*%
%ADD11C,.0551*%
%ADD29C,.0354*%
%ADD21R,.0551X.0335*%
%ADD17O,.065X.0256*%
%ADD24R,.0335X.0551*%
%ADD30C,.0276*%
%ADD14C,.0394*%
%ADD18C,.0197*%
%ADD23R,.0632X.0632*%
%ADD12R,.0551X.0551*%
%ADD27O,.0236X.0787*%
%ADD19R,.0748X.0551*%
%ADD16R,.0197X.0364*%
%ADD15R,.0551X.0748*%
%ADD28R,.0157X.0866*%
%ADD26R,.0787X.0866*%
%ADD31C,.006*%
%ADD32C,.01*%
%ADD33C,.012*%
G75*
%LPD*%
G75*
G54D10*
X-179000Y-145000D03*
X-178000Y145000D03*
X179000Y-145000D03*
Y145000D03*
G54D11*
X-170000Y-120000D03*
Y-100000D03*
Y-110000D03*
Y-80000D03*
Y-90000D03*
Y-60000D03*
Y-70000D03*
Y-40000D03*
Y-50000D03*
Y-20000D03*
Y-30000D03*
Y0D03*
Y-10000D03*
Y20000D03*
Y10000D03*
Y40000D03*
Y30000D03*
Y50000D03*
Y70000D03*
Y60000D03*
Y90000D03*
Y80000D03*
Y110000D03*
Y100000D03*
Y120000D03*
X-160000Y-100000D03*
Y-110000D03*
Y-80000D03*
Y-90000D03*
Y-60000D03*
Y-70000D03*
Y-40000D03*
Y-50000D03*
Y-20000D03*
Y-30000D03*
Y0D03*
Y-10000D03*
Y20000D03*
Y10000D03*
Y40000D03*
Y30000D03*
Y50000D03*
Y70000D03*
Y60000D03*
Y90000D03*
Y80000D03*
Y110000D03*
Y100000D03*
Y120000D03*
X-112500Y-122500D03*
Y-132500D03*
X-122500Y-122500D03*
X-117500Y-97500D03*
X-107500D03*
X-117500Y-87500D03*
X-107500D03*
X-120000Y120000D03*
Y130000D03*
X-110000Y120000D03*
Y130000D03*
X-92500Y-122500D03*
Y-132500D03*
X-102500Y-122500D03*
Y-132500D03*
X-97500Y-97500D03*
X-87500D03*
X-97500Y-87500D03*
X-87500D03*
X-100000Y120000D03*
Y130000D03*
X-90000Y120000D03*
Y130000D03*
X-72500Y-122500D03*
Y-132500D03*
X-82500Y-122500D03*
Y-132500D03*
X-77500Y-97500D03*
X-80000Y120000D03*
Y130000D03*
X-70000Y120000D03*
Y130000D03*
X-52500Y-122500D03*
Y-132500D03*
X-62500Y-122500D03*
Y-132500D03*
X-60000Y120000D03*
Y130000D03*
X-50000Y120000D03*
Y130000D03*
X-32500Y-122500D03*
Y-132500D03*
X-42500Y-122500D03*
Y-132500D03*
X-40000Y120000D03*
Y130000D03*
X-30000Y120000D03*
Y130000D03*
X-12500Y-122500D03*
Y-132500D03*
X-22500Y-122500D03*
Y-132500D03*
X-20000Y120000D03*
Y130000D03*
X-10000Y120000D03*
Y130000D03*
X7500Y-122500D03*
Y-132500D03*
X-2500Y-122500D03*
Y-132500D03*
X0Y120000D03*
Y130000D03*
X10000Y120000D03*
Y130000D03*
X27500Y-122500D03*
Y-132500D03*
X17500Y-122500D03*
Y-132500D03*
X22500Y-85000D03*
Y-65000D03*
Y-75000D03*
Y-45000D03*
Y-55000D03*
X20000Y120000D03*
Y130000D03*
X30000Y120000D03*
Y130000D03*
X47500Y-122500D03*
Y-132500D03*
X37500Y-122500D03*
Y-132500D03*
X32500Y-65000D03*
Y-75000D03*
Y-45000D03*
Y-55000D03*
X40000Y120000D03*
Y130000D03*
X50000Y120000D03*
Y130000D03*
X67500Y-122500D03*
Y-132500D03*
X57500Y-122500D03*
Y-132500D03*
X60000Y120000D03*
Y130000D03*
X70000Y120000D03*
Y130000D03*
X80000Y120000D03*
Y130000D03*
X90000Y120000D03*
Y130000D03*
X100000Y120000D03*
Y130000D03*
X110000Y120000D03*
Y130000D03*
X120000Y120000D03*
X160000Y-120000D03*
Y-100000D03*
Y-110000D03*
Y-80000D03*
Y-90000D03*
Y-60000D03*
Y-70000D03*
Y-40000D03*
Y-50000D03*
Y-20000D03*
Y-30000D03*
Y0D03*
Y-10000D03*
Y20000D03*
Y10000D03*
Y40000D03*
Y30000D03*
Y50000D03*
Y70000D03*
Y60000D03*
Y90000D03*
Y80000D03*
Y110000D03*
Y100000D03*
Y120000D03*
X170000Y-100000D03*
Y-110000D03*
Y-80000D03*
Y-90000D03*
Y-60000D03*
Y-70000D03*
Y-40000D03*
Y-50000D03*
Y-20000D03*
Y-30000D03*
Y0D03*
Y-10000D03*
Y20000D03*
Y10000D03*
Y40000D03*
Y30000D03*
Y50000D03*
Y70000D03*
Y60000D03*
Y90000D03*
Y80000D03*
Y110000D03*
Y100000D03*
Y120000D03*
G54D20*
X-45000Y-106240D03*
Y-98760D03*
X25000Y71260D03*
Y78740D03*
X115000Y71260D03*
Y78740D03*
X132500Y71260D03*
Y78740D03*
G54D12*
X-160000Y-120000D03*
X-122500Y-132500D03*
X-77500Y-87500D03*
X32500Y-85000D03*
X120000Y130000D03*
X170000Y-120000D03*
G54D30*
X110390Y-60000D03*
X129610D03*
G54D21*
X25000Y86110D03*
Y93890D03*
X115000Y86110D03*
Y93890D03*
X132500Y86110D03*
Y93890D03*
G54D31*
G01X-70220Y-14530D02*
Y-16920D01*
X-75840Y-22540D01*
X-76120D01*
X-80000Y-26420D01*
Y-28000D01*
G01X-96000Y-8540D02*
X-79980D01*
X-78090Y-6650D01*
G01Y-2720D02*
X-80130Y-4760D01*
X-96000D01*
G01Y1220D02*
X-82030D01*
G01X-96000Y3270D02*
X-79980D01*
X-78090Y5160D01*
G01Y9090D02*
X-79980Y7200D01*
X-96000D01*
G01Y11140D02*
X-79980D01*
X-78090Y13030D01*
G01Y16970D02*
X-80060Y15000D01*
X-95230D01*
X-95330Y14900D01*
X-96000D01*
G01X-78090Y20910D02*
X-79980Y19020D01*
X-96000D01*
G01Y22800D02*
X-80130D01*
X-78090Y24840D01*
G01X-96000Y32720D02*
X-82030D01*
G01X-78090Y28780D02*
X-78780D01*
X-80670Y30670D01*
X-96000D01*
G01Y36650D02*
X-82030D01*
G01X-96000Y40590D02*
X-82030D01*
G01X-74150Y44530D02*
Y49400D01*
X-76350Y51600D01*
X-96000D01*
G01Y-17520D02*
X-95330Y-18190D01*
X-81750D01*
X-78090Y-14530D01*
G01X-82030Y-6650D02*
X-96000D01*
G01Y-10590D02*
X-82030D01*
G01Y-2720D02*
X-82560D01*
X-82680Y-2600D01*
X-96000D01*
G01X-78090Y1220D02*
X-79980Y-670D01*
X-96000D01*
G01Y5160D02*
X-82030D01*
G01X-96000Y9090D02*
X-82030D01*
G01X-96000Y13030D02*
X-82030D01*
G01X-96000Y16970D02*
X-82030D01*
G01X-96000Y20910D02*
X-82030D01*
G01X-96000Y24840D02*
X-82030D01*
G01Y28780D02*
X-96000D01*
G01Y26730D02*
X-76040D01*
X-75910Y26600D01*
G01X-78090Y32720D02*
X-80130Y34760D01*
X-96000D01*
G01X-78090Y36650D02*
X-79980Y38540D01*
X-96000D01*
G01X-78090Y44530D02*
X-81240Y47680D01*
X-96000D01*
G01X-74150Y40590D02*
Y41860D01*
X-76040Y43750D01*
Y46900D01*
X-79140Y50000D01*
X-96000D01*
G01Y53200D02*
X-73200D01*
X-71500Y51500D01*
Y45810D01*
X-70220Y44530D01*
G01X-74150Y-10590D02*
X-76040Y-12480D01*
Y-15780D01*
X-79960Y-19700D01*
X-95240D01*
X-95330Y-19790D01*
X-96000D01*
G01X-64390Y58000D02*
Y42480D01*
X-66280Y40590D01*
G01Y44530D02*
Y58000D01*
G01X-89510Y-28000D02*
X-83920Y-22410D01*
X-80600D01*
G01X-96000Y-24830D02*
X-92670D01*
G01X-83280Y-28000D02*
X-76620Y-21340D01*
X-76340D01*
X-72110Y-17110D01*
Y-12480D01*
X-70220Y-10590D01*
G01X-73920Y-28000D02*
X-62340Y-16420D01*
Y-14530D01*
G01X-76190Y-28000D02*
X-64390Y-16200D01*
Y-12640D01*
X-62340Y-10590D01*
G01X-58410Y-14530D02*
Y-16710D01*
X-63710Y-22010D01*
Y-22330D01*
X-69380Y-28000D01*
G01X-58410Y-10590D02*
X-60300Y-12480D01*
Y-16650D01*
X-71650Y-28000D01*
G01X-54470Y-10590D02*
X-56360Y-12480D01*
Y-17070D01*
X-57070D01*
X-62500Y-22500D01*
Y-27500D01*
X-63000Y-28000D01*
G01X-80600Y-22410D02*
X-80190D01*
X-74150Y-16370D01*
Y-14530D01*
G01X-75330Y-24440D02*
X-67560Y-16670D01*
Y-15810D01*
X-66280Y-14530D01*
G01Y-6650D02*
X-68100Y-8470D01*
Y-8750D01*
G01X-74150Y-2720D02*
X-75910Y-4480D01*
G01X-78090Y-10590D02*
X-80000Y-12500D01*
G01X-66280Y-2720D02*
X-68040Y-4480D01*
G01X-66280Y-10590D02*
X-68040Y-12350D01*
G01X-74150Y-6650D02*
X-75520Y-8020D01*
Y-8340D01*
X-75660Y-8480D01*
G01X-70220Y-6650D02*
X-71980Y-8410D01*
G01X-70220Y-2720D02*
X-71980Y-4480D01*
G01X-74150Y1220D02*
X-75910Y-540D01*
G01X-70220Y1220D02*
X-71980Y-540D01*
G01X-66280Y1220D02*
X-68040Y-540D01*
G01X-66280Y5160D02*
X-68040Y3400D01*
G01X-66280Y9090D02*
X-68040Y7330D01*
G01X-66280Y13030D02*
X-68040Y11270D01*
G01X-74150Y32720D02*
X-75640Y34210D01*
Y34530D01*
G01X-74150Y36650D02*
X-75000Y37500D01*
Y37810D01*
X-75600Y38410D01*
X-75910D01*
G01X-66280Y16970D02*
X-68040Y18730D01*
G01X-66280Y20910D02*
X-68040Y22670D01*
G01X-66280Y24840D02*
X-68040Y26600D01*
G01X-78090Y40590D02*
X-79850Y42350D01*
G01X-70220Y40590D02*
X-71980Y42350D01*
G01X-62340Y40590D02*
X-60300Y42630D01*
Y58000D01*
G01X-62340D02*
Y44530D01*
G01X-47000Y-28000D02*
X-54470Y-20530D01*
Y-14530D01*
G01X-42000Y-28000D02*
X-52500Y-17500D01*
Y-750D01*
X-50530Y1220D01*
G01X-54470Y-2720D02*
X-56230Y-4480D01*
G01X-62340Y-2720D02*
X-64100Y-4480D01*
G01X-58410Y-6650D02*
X-60170Y-8410D01*
G01X-58410Y-2720D02*
X-60170Y-4480D01*
G01X-54470Y-6650D02*
X-56230Y-8410D01*
G01X-50530Y-2720D02*
X-48770Y-4480D01*
G01X-50530Y-6650D02*
X-48770Y-8410D01*
G01X-50530Y-14530D02*
Y-16970D01*
X-39730Y-27770D01*
Y-27780D01*
X-39510Y-28000D01*
G01X-50530Y-10590D02*
X-48640Y-12480D01*
Y-16360D01*
X-37250Y-27750D01*
Y-28000D01*
G01X-62340Y-6650D02*
X-64100Y-8410D01*
G01X-54470Y1220D02*
X-56230Y-540D01*
G01X-58410Y9090D02*
Y5160D01*
G01D02*
X-54470D01*
G01D02*
X-52430Y7200D01*
X-48480D01*
X-46590Y9090D01*
G01X-58410Y20910D02*
Y16970D01*
G01Y13030D02*
X-56650Y14790D01*
G01X-58410Y16970D02*
Y13030D01*
G01Y9090D02*
Y10890D01*
X-58370Y10930D01*
Y12980D01*
X-58410Y13030D01*
G01X-50530Y16970D02*
Y20910D01*
G01Y16970D02*
X-54470D01*
G01X-50530D02*
Y13030D01*
G01D02*
Y9090D01*
G01D02*
X-54470D01*
G01Y20910D02*
Y16970D01*
G01Y13030D02*
X-52710Y14790D01*
G01X-54470Y16970D02*
Y13030D01*
G01D02*
X-53190Y11750D01*
Y10370D01*
X-54470Y9090D01*
G01X-50530Y5160D02*
X-48770Y3400D01*
G01X-62340Y9090D02*
X-64100Y7330D01*
G01X-62340Y13030D02*
X-64100Y11270D01*
G01X-62340Y16970D02*
X-64100Y18730D01*
G01X-62340Y1220D02*
X-64100Y-540D01*
G01X-58410Y1220D02*
X-60170Y-540D01*
G01X-62340Y5160D02*
X-64100Y3400D01*
G01X-54470Y36650D02*
X-52500Y38620D01*
Y58000D01*
G01X-58410Y36650D02*
X-60170Y38410D01*
G01X-54470Y24840D02*
X-55750Y23560D01*
X-55760D01*
X-58410Y20910D01*
G01X-62340Y28780D02*
X-60580Y30540D01*
X-60450D01*
G01X-54470Y28780D02*
X-56230Y30540D01*
G01X-54470Y20910D02*
X-50530D01*
G01X-54470Y32720D02*
X-58410D01*
G01D02*
Y28780D01*
G01Y32720D02*
X-60450Y34760D01*
G01X-66280Y32720D02*
Y28780D01*
G01X-54470Y32720D02*
X-56360Y34610D01*
Y38700D01*
X-54470Y40590D01*
G01X-50530Y24840D02*
X-48770Y26600D01*
G01X-50530Y28780D02*
X-48770Y30540D01*
G01X-50530Y32720D02*
X-48770Y34480D01*
G01X-50530Y36650D02*
X-48770Y38410D01*
G01X-62340Y20910D02*
X-64100Y22670D01*
G01X-62340Y24840D02*
X-64100Y26600D01*
G01X-62340Y36650D02*
X-64100Y38410D01*
G01X-62340Y32720D02*
X-64100Y34480D01*
X-64250D01*
G01X-58410Y24840D02*
X-56650Y26600D01*
X-56540D01*
G01X-54470Y44530D02*
Y40590D01*
G01X-50530D02*
X-48480Y42640D01*
Y58000D01*
G01X-50530Y44530D02*
Y58000D01*
G01X-58410Y40590D02*
X-56520Y42480D01*
Y58000D01*
G01X-58410Y44530D02*
Y58000D01*
G01X-46590Y-14530D02*
Y-16330D01*
X-35650Y-27270D01*
Y-28000D01*
G01X-46590Y-10590D02*
X-44700Y-12480D01*
Y-15300D01*
X-34050Y-25950D01*
Y-28000D01*
G01X-42660Y-14530D02*
Y-15640D01*
X-32450Y-25850D01*
Y-28000D01*
G01X-30850D02*
Y-25070D01*
X-40610Y-15310D01*
Y-15190D01*
X-40770Y-15030D01*
Y-12480D01*
X-42660Y-10590D01*
G01X-38720Y-14530D02*
Y-15380D01*
X-29250Y-24850D01*
Y-28000D01*
G01X-10000Y-15000D02*
X-12500D01*
X-17970Y-20470D01*
X-30230D01*
X-34780Y-15920D01*
Y-14530D01*
G01X-27650Y-28000D02*
Y-24750D01*
X-36830Y-15570D01*
Y-13170D01*
X-38720Y-11280D01*
Y-10590D01*
G01X-10000Y-13400D02*
X-13400D01*
X-19270Y-19270D01*
X-29730D01*
X-32890Y-16110D01*
Y-12480D01*
X-34780Y-10590D01*
G01X-30850Y-2720D02*
X-29090Y-4480D01*
G01X-38720Y-6650D02*
X-36960Y-8410D01*
G01X-46590Y-6650D02*
X-44830Y-8410D01*
G01X-34780Y-2720D02*
X-33020Y-4480D01*
G01X-46590Y-2720D02*
X-44830Y-4480D01*
G01X-38720Y1220D02*
X-38760Y1180D01*
Y-880D01*
X-38720Y-920D01*
Y-2720D01*
G01X-42660Y-6650D02*
X-40900Y-8410D01*
G01X-42660Y-2720D02*
X-40900Y-4480D01*
G01X-34780Y-6650D02*
X-33020Y-8410D01*
G01X-30850Y-14530D02*
X-29090Y-16290D01*
G01X-30850Y-10590D02*
X-29090Y-12350D01*
G01X-30850Y-6650D02*
X-29090Y-8410D01*
G01X-30850Y9090D02*
X-29330Y7570D01*
Y7280D01*
X-29250Y7200D01*
G01X-42660Y1220D02*
X-40900Y-540D01*
G01X-30850Y1220D02*
X-29090Y-540D01*
G01X-34780Y9090D02*
X-33020Y7330D01*
G01X-38720Y1220D02*
X-36960Y-540D01*
G01X-46590Y1220D02*
X-44830Y-540D01*
G01X-46590Y5160D02*
X-44830Y3400D01*
G01X-46590Y13030D02*
X-44830Y11270D01*
G01X-46590Y16970D02*
X-44830Y18730D01*
G01X-42660Y5160D02*
X-40900Y3400D01*
G01X-42660Y9090D02*
X-40900Y7330D01*
G01X-42660Y13030D02*
X-40900Y11270D01*
G01X-42660Y16970D02*
X-40900Y18730D01*
G01X-38720Y5160D02*
X-36960Y3400D01*
G01X-38720Y9090D02*
X-36960Y7330D01*
G01X-38720Y13030D02*
X-36960Y11270D01*
G01X-38720Y16970D02*
X-36960Y18730D01*
G01X-34780Y1220D02*
X-33020Y-540D01*
G01X-34780Y5160D02*
X-33020Y3400D01*
G01X-34780Y13030D02*
X-33020Y11270D01*
G01X-34780Y16970D02*
X-33020Y18730D01*
G01X-30850Y5160D02*
X-29090Y3400D01*
G01X-30850Y13030D02*
X-29090Y11270D01*
G01X-30850Y16970D02*
X-29530Y18290D01*
X-29210D01*
X-29010Y18490D01*
G01X-38720Y36650D02*
X-36960Y38410D01*
G01X-46590Y36650D02*
X-44830Y38410D01*
G01X-30850Y32720D02*
X-29090Y34480D01*
Y34500D01*
G01X-30850Y20910D02*
Y20920D01*
X-29010Y22760D01*
G01X-46590Y32720D02*
X-44830Y34480D01*
G01X-38720Y32720D02*
X-38620D01*
X-36860Y34480D01*
G01X-33340Y22790D02*
X-33310Y22760D01*
X-33110D01*
G01D02*
X-33340Y22530D01*
Y22350D01*
X-34780Y20910D01*
G01X-28970Y30600D02*
X-29030D01*
X-30850Y28780D01*
G01X-46590Y20910D02*
X-44830Y22670D01*
G01X-46590Y24840D02*
X-44830Y26600D01*
G01X-46590Y28780D02*
X-44830Y30540D01*
G01X-42660Y20910D02*
X-40900Y22670D01*
G01X-42660Y24840D02*
X-40900Y26600D01*
G01X-42660Y28780D02*
X-40900Y30540D01*
G01X-42660Y32720D02*
X-40900Y34480D01*
G01X-42660Y36650D02*
X-40900Y38410D01*
G01X-38720Y24840D02*
X-36960Y26600D01*
G01X-36720Y30540D02*
X-37260Y30000D01*
X-37500D01*
X-38720Y28780D01*
G01X-34780Y24840D02*
X-33020Y26600D01*
G01X-32920Y30910D02*
X-33020Y30810D01*
Y30540D01*
X-34780Y28780D01*
G01Y32720D02*
X-33020Y34480D01*
Y34500D01*
G01X-34780Y36650D02*
X-33020Y38410D01*
G01X-30850Y24840D02*
X-30710D01*
X-28950Y26600D01*
G01X-30850Y36650D02*
X-28960Y38540D01*
X-10000D01*
G01X-38720Y20910D02*
X-37050Y22580D01*
Y22760D01*
G01X-38720Y58000D02*
Y44530D01*
G01X-44810Y58000D02*
Y45420D01*
X-44700Y45310D01*
Y43750D01*
X-44810Y43640D01*
Y42370D01*
X-46590Y40590D01*
G01Y44530D02*
Y58000D01*
G01X-40770D02*
Y43750D01*
X-40790Y43730D01*
Y42460D01*
X-42660Y40590D01*
G01Y44530D02*
Y58000D01*
G01X-32890D02*
Y42480D01*
X-34780Y40590D01*
G01Y58000D02*
Y44530D01*
G01X-30850Y40590D02*
X-28960Y42480D01*
Y46730D01*
X-27500Y48190D01*
X-10000D01*
G01X-30850Y44530D02*
Y49150D01*
X-30000Y50000D01*
X-10000D01*
G01X-38720Y40590D02*
X-36830Y42480D01*
Y58000D01*
G01X-21100Y-16170D02*
X-21330D01*
X-22970Y-14530D01*
G01X-26910Y-10590D02*
X-25150Y-12350D01*
G01X-26910Y-14530D02*
Y-17290D01*
X-26130Y-18070D01*
X-20310D01*
X-14040Y-11800D01*
X-10000D01*
G01Y-8540D02*
X-25020D01*
X-26910Y-6650D01*
G01Y-2720D02*
X-24870Y-4760D01*
X-10000D01*
G01X-26910Y1220D02*
X-25020Y-670D01*
X-10000D01*
G01X-22970Y-10590D02*
X-21170D01*
X-20780Y-10200D01*
X-10000D01*
G01Y-6650D02*
X-22970D01*
G01X-10000Y-2700D02*
X-10670D01*
X-10690Y-2720D01*
X-22970D01*
G01X-10000Y3270D02*
X-25020D01*
X-26910Y5160D01*
G01X-10000Y7200D02*
X-25020D01*
X-26910Y9090D01*
G01Y13030D02*
X-24860Y10980D01*
X-10000D01*
G01X-26910Y16970D02*
X-24940Y15000D01*
X-10000D01*
G01Y1220D02*
X-22970D01*
G01Y5160D02*
X-10000D01*
G01Y9090D02*
X-22970D01*
G01X-10000Y13030D02*
X-22970D01*
G01X-10000Y16970D02*
X-22970D01*
G01X-10000Y19100D02*
X-10140D01*
X-10380Y18860D01*
X-24860D01*
X-26910Y20910D01*
G01Y24840D02*
X-25020Y22950D01*
X-10460D01*
X-10410Y23000D01*
X-10000D01*
G01X-26910Y28780D02*
X-25020Y26890D01*
X-10000D01*
G01X-26910Y32720D02*
X-25020Y30830D01*
X-10000D01*
G01X-26910Y36650D02*
X-25020Y34760D01*
X-10000D01*
G01X-22970Y20910D02*
Y21750D01*
G01Y20910D02*
X-10000D01*
G01X-22970Y24840D02*
X-10000D01*
G01Y28780D02*
X-22970D01*
G01Y32720D02*
X-10000D01*
G01X-22970Y36650D02*
X-10000D01*
G01X-22970Y44530D02*
X-21210Y46290D01*
G01X-26910Y40590D02*
X-25150Y42350D01*
G01X-26910Y44530D02*
X-25150Y46290D01*
G01X-10000Y40600D02*
X-12770D01*
X-12780Y40590D01*
X-22970D01*
G01X-184800Y-157400D02*
X184800D01*
G03X196800Y-145400I0J12000D01*
G01Y145400D01*
G03X184800Y157400I-12000J0D01*
G01X-184800D01*
G03X-196800Y145400I0J-12000D01*
G01Y-145400D01*
G03X-184800Y-157400I12000J0D01*
G54D22*
X63190Y-97340D03*
Y-87500D03*
X86810Y-97340D03*
Y-77660D03*
Y-87500D03*
G54D13*
X-146800Y100000D03*
X-130000Y-110000D03*
X-125610Y-51890D03*
X-109200Y-59700D03*
X-114000Y-52480D03*
Y-55080D03*
X-95400Y-42500D03*
X-92500Y-52500D03*
X-92670Y-24830D03*
X-97500Y72500D03*
X-100100Y77500D03*
X-67500Y-90000D03*
X-84850Y-62640D03*
X-82500Y-72500D03*
X-69900Y-42500D03*
X-85000Y-43080D03*
X-80600Y-22410D03*
X-75330Y-24440D03*
X-69900Y-37500D03*
X-68100Y-8750D03*
X-83790Y-16290D03*
X-75910Y-4480D03*
X-80000Y-12500D03*
X-68040Y-4480D03*
X-75910Y-540D03*
X-68040Y-12350D03*
X-75660Y-8480D03*
X-71980Y-8410D03*
Y-4480D03*
Y-540D03*
X-68040D03*
X-75750Y7200D03*
X-71980Y7330D03*
X-75910Y3400D03*
X-71980D03*
Y11270D03*
Y18730D03*
X-75910Y11270D03*
Y18730D03*
X-68040Y3400D03*
Y7330D03*
Y11270D03*
Y18730D03*
Y34890D03*
X-75640Y34530D03*
X-75910Y22670D03*
X-71980Y34480D03*
Y22670D03*
X-75910Y30540D03*
Y26600D03*
Y38410D03*
X-71980Y26600D03*
Y30540D03*
X-71950Y38450D03*
X-68040Y22670D03*
Y26600D03*
X-84400Y45780D03*
X-79850Y42350D03*
X-71980D03*
X-65000Y-115000D03*
Y-60000D03*
Y-67500D03*
Y-55000D03*
X-57370Y-43250D03*
X-65590Y-26920D03*
X-57570Y-22500D03*
X-57100Y-34960D03*
X-56230Y-4480D03*
Y-540D03*
X-64100Y-4480D03*
X-60170Y-8410D03*
Y-4480D03*
X-56230Y-8410D03*
X-48770Y-4480D03*
Y-8410D03*
X-64100D03*
Y-540D03*
X-60170D03*
X-56650Y14790D03*
X-52710D03*
X-48770Y3400D03*
X-64100Y7330D03*
Y11270D03*
Y18730D03*
Y3400D03*
X-60170Y38410D03*
X-60450Y30540D03*
X-56230D03*
X-60450Y34760D03*
X-64520Y30680D03*
X-48770Y26600D03*
Y30540D03*
Y34480D03*
Y38410D03*
X-64100Y22670D03*
Y26600D03*
Y38410D03*
X-64250Y34480D03*
X-56540Y26600D03*
X-52500Y100000D03*
X-40000Y-107500D03*
X-40450Y-97500D03*
X-37500Y-95000D03*
X-47500Y-40000D03*
X-29090Y-4480D03*
X-36960Y-8410D03*
X-44830D03*
X-33020Y-4480D03*
X-40900Y-540D03*
X-44830Y-4480D03*
X-29090Y-540D03*
X-36960D03*
X-44830D03*
X-40900Y-8410D03*
Y-4480D03*
X-33020Y-8410D03*
Y-540D03*
X-29090Y-16290D03*
Y-12350D03*
Y-8410D03*
X-29250Y7200D03*
X-33020Y7330D03*
X-44830Y3400D03*
Y11270D03*
Y18730D03*
X-40900Y3400D03*
Y7330D03*
Y11270D03*
Y18730D03*
X-36960Y3400D03*
Y7330D03*
Y11270D03*
Y18730D03*
X-33020Y3400D03*
Y11270D03*
Y18730D03*
X-29090Y3400D03*
Y11270D03*
X-29010Y18490D03*
X-36960Y38410D03*
X-44830D03*
X-29090Y34500D03*
X-29010Y22760D03*
X-44830Y34480D03*
X-33110Y22760D03*
X-28970Y30600D03*
X-36860Y34480D03*
X-44830Y22670D03*
Y26600D03*
Y30540D03*
X-40900Y22670D03*
Y26600D03*
Y30540D03*
Y34480D03*
Y38410D03*
X-36960Y26600D03*
X-36720Y30540D03*
X-33020Y26600D03*
X-32920Y30910D03*
X-33020Y34500D03*
Y38410D03*
X-28950Y26600D03*
X-37050Y22760D03*
X-32500Y87500D03*
X-35240Y85000D03*
X-30140Y82630D03*
X-44490Y97500D03*
X-15000Y-92500D03*
X-22500Y-80000D03*
X-17500Y-85010D03*
Y-71260D03*
Y-52500D03*
X-25300Y-32500D03*
X-25320Y-25650D03*
X-22750Y-25250D03*
X-13190Y-22260D03*
X-11800Y-24720D03*
X-21100Y-16170D03*
X-25150Y-12350D03*
X-21210Y46290D03*
X-25150Y42350D03*
Y46290D03*
X-10000Y82500D03*
X-12490Y87110D03*
X-22500Y85000D03*
Y110100D03*
X-25000Y107500D03*
X3880Y-25600D03*
X-5000Y107500D03*
X10240Y-20800D03*
X22500Y-19090D03*
X16880Y-17500D03*
X25000Y55500D03*
X27500Y61300D03*
X17500Y77500D03*
X18610Y93890D03*
X30000Y-19090D03*
X32500Y48700D03*
X30000Y90000D03*
X32500Y95100D03*
X60000Y-65000D03*
X65000Y-17500D03*
X62400D03*
X67500Y47500D03*
X82500Y-17500D03*
X92500Y-112500D03*
X99770Y-72000D03*
X87500Y-45000D03*
X90000Y-17500D03*
X125000Y-110000D03*
X117500Y-90000D03*
X120000Y-42500D03*
X117350Y47500D03*
X120000Y72500D03*
X127500Y-17500D03*
X155000Y85000D03*
G54D32*
G01X-80000Y-28000D02*
Y-82930D01*
X-81360Y-84290D01*
Y-90710D01*
X-80000Y-92070D01*
Y-94540D01*
X-81360Y-95900D01*
Y-99100D01*
X-80000Y-100460D01*
Y-114540D01*
X-86360Y-120900D01*
Y-131820D01*
X-92040Y-137500D01*
X-156260D01*
X-170000Y-123760D01*
Y-120000D01*
G01Y-100000D02*
X-165000Y-105000D01*
X-139990D01*
X-135600Y-100610D01*
Y-9540D01*
X-134600Y-8540D01*
X-96000D01*
G01Y-4760D02*
X-137800D01*
X-138800Y-5760D01*
Y-84000D01*
X-139800Y-85000D01*
X-165000D01*
X-170000Y-80000D01*
G01Y-70000D02*
X-165000Y-65000D01*
Y-58280D01*
X-162180Y-55460D01*
X-150450D01*
X-143600Y-48610D01*
Y-1100D01*
X-141280Y1220D01*
X-96000D01*
G01X-170000Y-50000D02*
X-166140Y-53860D01*
X-151360D01*
X-145200Y-47700D01*
Y-200D01*
X-141730Y3270D01*
X-96000D01*
G01Y7200D02*
X-142800D01*
X-148400Y1600D01*
Y-23860D01*
X-158400Y-33860D01*
X-166140D01*
X-170000Y-30000D01*
G01Y-20000D02*
X-166140Y-23860D01*
X-158400D01*
X-152500Y-17960D01*
Y2500D01*
X-143860Y11140D01*
X-96000D01*
G01Y14900D02*
X-145100D01*
X-156140Y3860D01*
Y-1600D01*
X-158400Y-3860D01*
X-166140D01*
X-170000Y0D01*
G01X-96000Y19020D02*
X-153470D01*
X-158010Y14480D01*
X-164480D01*
X-170000Y20000D01*
G01Y30000D02*
X-163860Y23860D01*
X-158400D01*
X-157340Y22800D01*
X-96000D01*
G01X-170000Y60000D02*
X-166140Y56140D01*
X-158410D01*
X-134990Y32720D01*
X-96000D01*
G01Y30670D02*
X-135210D01*
X-158400Y53860D01*
X-166140D01*
X-170000Y50000D01*
G01Y70000D02*
X-166140Y73860D01*
X-158400D01*
X-154540Y70000D01*
Y56810D01*
X-134380Y36650D01*
X-96000D01*
G01X-170000Y90000D02*
X-165000Y85000D01*
X-157500D01*
X-150000Y77500D01*
Y57490D01*
X-133100Y40590D01*
X-96000D01*
G01Y51600D02*
X-136600D01*
X-144700Y59700D01*
Y102430D01*
X-157270Y115000D01*
X-165000D01*
X-170000Y110000D01*
G01X-160000Y-120000D02*
X-140410D01*
X-132400Y-111990D01*
Y-24000D01*
X-124300Y-15900D01*
X-97620D01*
X-96000Y-17520D01*
G01Y-6650D02*
X-136200D01*
X-137200Y-7650D01*
Y-96960D01*
X-140240Y-100000D01*
X-160000D01*
G01Y-110000D02*
X-137040D01*
X-134000Y-106960D01*
Y-11590D01*
X-133000Y-10590D01*
X-96000D01*
G01Y-2600D02*
X-139280D01*
X-140400Y-3720D01*
Y-75400D01*
X-145000Y-80000D01*
X-160000D01*
G01X-96000Y-670D02*
X-140670D01*
X-142000Y-2000D01*
Y-54500D01*
X-147500Y-60000D01*
X-160000D01*
G01Y-50000D02*
X-152500D01*
X-146800Y-44300D01*
Y700D01*
X-142340Y5160D01*
X-96000D01*
G01X-160000Y-30000D02*
X-150000Y-20000D01*
Y2500D01*
X-143410Y9090D01*
X-96000D01*
G01X-160000Y-20000D02*
X-154540Y-14540D01*
Y2970D01*
X-144480Y13030D01*
X-96000D01*
G01X-160000Y0D02*
Y3760D01*
X-146790Y16970D01*
X-96000D01*
G01X-160000Y20000D02*
X-156240D01*
X-155330Y20910D01*
X-96000D01*
G01X-160000Y30000D02*
X-154840Y24840D01*
X-96000D01*
G01Y28780D02*
X-146280D01*
X-156140Y38640D01*
Y46140D01*
X-160000Y50000D01*
G01Y40000D02*
X-146730Y26730D01*
X-96000D01*
G01Y34760D02*
X-134760D01*
X-156140Y56140D01*
Y62380D01*
X-160000Y66240D01*
Y70000D01*
G01X-96000Y38540D02*
X-133540D01*
X-152940Y57940D01*
Y72940D01*
X-160000Y80000D01*
G01X-96000Y47680D02*
X-137680D01*
X-148400Y58400D01*
Y98400D01*
X-160000Y110000D01*
G01X-96000Y50000D02*
X-137490D01*
X-146800Y59310D01*
Y100000D01*
G01X-160000Y120000D02*
X-142500Y102500D01*
Y59990D01*
X-135710Y53200D01*
X-96000D01*
G01Y-19790D02*
X-98290Y-17500D01*
X-122490D01*
X-130800Y-25810D01*
Y-107200D01*
X-130000Y-108000D01*
Y-110000D01*
G01X-125610Y-32500D02*
Y-42500D01*
G01D02*
Y-51890D01*
G01X-114390Y-42500D02*
X-119000D01*
X-120000Y-43500D01*
Y-78500D01*
X-112500Y-86000D01*
Y-92500D01*
X-107500Y-97500D01*
G01X-95920Y-41050D02*
X-97340Y-42470D01*
Y-44840D01*
X-100000Y-47500D01*
X-115000D01*
X-117500Y-50000D01*
Y-77500D01*
X-107500Y-87500D01*
G01X-117500D02*
X-121750Y-83250D01*
Y-36100D01*
X-118150Y-32500D01*
X-114390D01*
G01X-109200Y-59700D02*
X-107200D01*
X-103640Y-63260D01*
Y-117600D01*
X-102500Y-118740D01*
Y-122500D01*
G01X-100000Y-42330D02*
X-105000D01*
X-105170Y-42500D01*
X-114390D01*
G01X-114000Y-52480D02*
X-110870D01*
X-110850Y-52500D01*
X-104540D01*
X-92500Y-64540D01*
Y-117040D01*
X-88640Y-120900D01*
Y-124100D01*
X-92500Y-127960D01*
Y-132500D01*
G01X-114000Y-55080D02*
X-104230D01*
X-101360Y-57950D01*
Y-113640D01*
X-92500Y-122500D01*
G01X-100000Y-35170D02*
X-107330D01*
X-110000Y-32500D01*
X-114390D01*
G01X-100000Y120000D02*
X-110000Y110000D01*
Y77270D01*
X-102730Y70000D01*
X-70000D01*
X-64390Y64390D01*
Y58000D01*
G01X-66280D02*
Y63790D01*
X-69990Y67500D01*
X-102500D01*
X-112500Y77500D01*
Y117040D01*
X-113860Y118400D01*
Y121600D01*
X-110000Y125460D01*
Y130000D01*
G01X-95400Y-42500D02*
Y-41570D01*
X-95920Y-41050D01*
G01X-91170Y-40000D02*
X-94920D01*
X-95920Y-41000D01*
Y-41050D01*
G01X-91170Y-45000D02*
X-86920D01*
X-85000Y-43080D01*
G01X-100000Y-52670D02*
X-98010D01*
X-95520Y-50180D01*
Y-47380D01*
X-93140Y-45000D01*
X-91170D01*
G01Y-50000D02*
Y-51170D01*
X-92500Y-52500D01*
G01X-100000Y-42330D02*
Y-39510D01*
X-98390Y-37900D01*
X-96790D01*
X-95510Y-36620D01*
X-94760D01*
X-93140Y-35000D01*
X-91170D01*
G01X-100000Y-35170D02*
X-96680D01*
X-89510Y-28000D01*
G01X-100000Y-24830D02*
X-96000D01*
G01X-91170Y-35000D02*
X-89200D01*
X-87580Y-33380D01*
Y-32300D01*
X-83280Y-28000D01*
G01X-97500Y72500D02*
X-90000Y80000D01*
Y120000D01*
G01X-100100Y77500D02*
X-95000Y82600D01*
Y125000D01*
X-90000Y130000D01*
G01X-82500Y-132500D02*
X-76360Y-126360D01*
Y-120900D01*
X-70000Y-114540D01*
Y-85000D01*
X-76800Y-78200D01*
Y-30880D01*
X-73920Y-28000D01*
G01X-82500Y-122500D02*
X-72500Y-112500D01*
Y-85000D01*
X-78400Y-79100D01*
Y-30210D01*
X-76190Y-28000D01*
G01X-69380D02*
X-73600Y-32220D01*
Y-76410D01*
X-57500Y-92510D01*
Y-100080D01*
X-38640Y-118940D01*
Y-128640D01*
X-42500Y-132500D01*
G01X-71650Y-28000D02*
X-75200Y-31550D01*
Y-77290D01*
X-60000Y-92490D01*
Y-105000D01*
X-42500Y-122500D01*
G01X-63000Y-28000D02*
X-67720Y-32720D01*
X-69590D01*
X-72000Y-35130D01*
Y-58010D01*
X-70010Y-60000D01*
X-65000D01*
G01X-62830Y-45000D02*
X-67400D01*
X-69900Y-42500D01*
G01X-62830Y-35000D02*
X-67400D01*
X-69900Y-37500D01*
G01X-83790Y-16290D02*
X-82030Y-14530D01*
G01X-74150Y9090D02*
X-75670Y7570D01*
Y7280D01*
X-75750Y7200D01*
G01X-70220Y9090D02*
X-71980Y7330D01*
G01X-74150Y5160D02*
X-75910Y3400D01*
G01X-70220Y5160D02*
X-71980Y3400D01*
G01X-70220Y13030D02*
X-71980Y11270D01*
G01X-70220Y16970D02*
X-71980Y18730D01*
G01X-74150Y13030D02*
X-75910Y11270D01*
G01X-74150Y16970D02*
X-75910Y18730D01*
G01X-66280Y36650D02*
X-68040Y34890D01*
G01X-74150Y20910D02*
X-75910Y22670D01*
G01X-70220Y32720D02*
X-71980Y34480D01*
G01X-70220Y20910D02*
X-71980Y22670D01*
G01X-74150Y28780D02*
X-75910Y30540D01*
G01X-74150Y24840D02*
X-75910Y26600D01*
G01X-70220Y24840D02*
X-71980Y26600D01*
G01X-70220Y28780D02*
X-71980Y30540D01*
G01X-70220Y36650D02*
X-71950Y38380D01*
Y38450D01*
G01X-84400Y45780D02*
X-83280D01*
X-82030Y44530D01*
G01X-60300Y58000D02*
Y104840D01*
X-76140Y120680D01*
Y126140D01*
X-80000Y130000D01*
G01Y120000D02*
X-62340Y102340D01*
Y58000D01*
G01X-67500Y-90000D02*
Y-108210D01*
X-64390Y-111320D01*
X-63680D01*
X-52500Y-122500D01*
G01X-65000Y-60000D02*
X-62850D01*
X-62240Y-59390D01*
X-57500D01*
G01D02*
Y-53500D01*
X-55000Y-51000D01*
Y-50170D01*
G01X-57500Y-70610D02*
X-47500D01*
G01X-57500D02*
X-61890D01*
X-65000Y-67500D01*
G01X-47500Y-45170D02*
X-56320D01*
X-56500Y-45350D01*
X-58240D01*
X-58590Y-45000D01*
X-62830D01*
G01Y-50000D02*
Y-52830D01*
X-65000Y-55000D01*
G01X-47500Y-35660D02*
X-49200Y-37360D01*
X-50030D01*
X-52500Y-39830D01*
X-55000D01*
G01D02*
X-59490D01*
X-59660Y-40000D01*
X-62830D01*
G01X-47500Y-45170D02*
X-45510D01*
X-42500Y-42160D01*
Y-32500D01*
X-47000Y-28000D01*
G01X-40450Y-97500D02*
Y-29550D01*
X-42000Y-28000D01*
G01X-39510D02*
X-38850Y-28660D01*
Y-89840D01*
X-27500Y-101190D01*
Y-127500D01*
X-22500Y-132500D01*
G01X-37250Y-28000D02*
Y-89170D01*
X-17040Y-109380D01*
Y-117040D01*
X-22500Y-122500D01*
G01X-52500Y58000D02*
X-55000Y60500D01*
Y106500D01*
X-49000Y112500D01*
X-32500D01*
X-30000Y115000D01*
Y120000D01*
G01X-64520Y30680D02*
Y30540D01*
X-66280Y28780D01*
G01X-48480Y58000D02*
Y99260D01*
X-42740Y105000D01*
X-35000D01*
X-20000Y120000D01*
G01X-50530Y58000D02*
Y99000D01*
X-50400Y99130D01*
Y99610D01*
X-42510Y107500D01*
X-35000D01*
X-26140Y116360D01*
Y126140D01*
X-30000Y130000D01*
G01X-56520Y58000D02*
Y59750D01*
X-56600Y59830D01*
Y107170D01*
X-49670Y114100D01*
X-49660D01*
X-43760Y120000D01*
X-40000D01*
G01X-58410Y58000D02*
Y114080D01*
X-55000Y117490D01*
Y125000D01*
X-50000Y130000D01*
G01X-45000Y-106240D02*
X-41260D01*
X-40000Y-107500D01*
G01X-45000Y-98760D02*
X-41450D01*
X-40450Y-97760D01*
Y-97500D01*
G01X-35650Y-28000D02*
Y-88500D01*
X-12500Y-111650D01*
Y-122500D01*
G01X-34050Y-28000D02*
Y-87830D01*
X-7500Y-114380D01*
Y-127500D01*
X-2500Y-132500D01*
G01X-32450Y-28000D02*
Y-87160D01*
X-9810Y-109800D01*
X2300D01*
X12500Y-120000D01*
Y-127500D01*
X17500Y-132500D01*
G01Y-122500D02*
Y-117270D01*
X8430Y-108200D01*
X-9140D01*
X-30850Y-86490D01*
Y-28000D01*
G01X-29250D02*
Y-85820D01*
X-8470Y-106600D01*
X31600D01*
X47500Y-122500D01*
G01X-47500Y-59390D02*
Y-45170D01*
G01Y-35660D02*
Y-40000D01*
G01X107500Y-97270D02*
Y-92330D01*
X96600Y-81430D01*
Y-17600D01*
X94000Y-15000D01*
X-10000D01*
G01X-47500Y-34830D02*
Y-35660D01*
G01X57500Y-132500D02*
X52500Y-127500D01*
Y-117500D01*
X40000Y-105000D01*
X-7800D01*
X-27650Y-85150D01*
Y-28000D01*
G01X112500Y-97270D02*
Y-94510D01*
X104780Y-86790D01*
Y-74030D01*
X100530Y-69780D01*
Y-14400D01*
X99530Y-13400D01*
X-10000D01*
G01Y38540D02*
X136040D01*
X145700Y48200D01*
Y75700D01*
X155000Y85000D01*
G01X70000Y130000D02*
X65000Y125000D01*
Y117500D01*
X62500Y115000D01*
X55000D01*
X39300Y99300D01*
X32840D01*
X31440Y100700D01*
X-10220D01*
X-17320Y93600D01*
X-31400D01*
X-38720Y86280D01*
Y58000D01*
G01X10000Y120000D02*
X5000Y115000D01*
X-2730D01*
X-19330Y98400D01*
X-39090D01*
X-44810Y92680D01*
Y58000D01*
G01X-46590D02*
Y98880D01*
X-42970Y102500D01*
X-20890D01*
X-5000Y118390D01*
Y125000D01*
X0Y130000D01*
G01X40000Y120000D02*
X22500Y102500D01*
X-10690D01*
X-17990Y95200D01*
X-34800D01*
X-40770Y89230D01*
Y58000D01*
G01X-42660D02*
Y92340D01*
X-38200Y96800D01*
X-18660D01*
X-10460Y105000D01*
X12500D01*
X25000Y117500D01*
Y125000D01*
X30000Y130000D01*
G01Y90000D02*
X-6630D01*
X-32890Y63740D01*
Y58000D01*
G01X32500Y95100D02*
X30100Y97500D01*
X-7030D01*
X-34780Y69750D01*
Y58000D01*
G01X-10000Y48190D02*
X-6600D01*
X-1810Y43400D01*
X135900D01*
X142500Y50000D01*
Y90000D01*
X156360Y103860D01*
X166140D01*
X170000Y100000D01*
G01X-10000Y50000D02*
X-6140D01*
X-1140Y45000D01*
X32500D01*
X37500Y50000D01*
Y57720D01*
X44100Y64320D01*
Y89790D01*
X56810Y102500D01*
X100000D01*
X105000Y107500D01*
Y125000D01*
X100000Y130000D01*
G01X-36830Y58000D02*
Y80200D01*
X-25030Y92000D01*
X-16650D01*
X-9550Y99100D01*
X30770D01*
X32370Y97500D01*
X40000D01*
X55000Y112500D01*
X72500D01*
X80000Y120000D01*
G01X0D02*
X-20000Y100000D01*
X-41990D01*
X-44490Y97500D01*
G01X-17500Y-85010D02*
X-12510Y-90000D01*
X27500D01*
X32500Y-85000D01*
G01X-25300Y-32500D02*
Y-70840D01*
X-16140Y-80000D01*
X27500D01*
X32500Y-75000D01*
G01X-17500Y-71260D02*
X3760Y-50000D01*
X27500D01*
X32500Y-45000D01*
G01X-10000Y-11800D02*
X129610D01*
X132400Y-14590D01*
Y-27160D01*
X140000Y-34760D01*
Y-103760D01*
X156240Y-120000D01*
X160000D01*
G01X170000Y-90000D02*
X165000Y-95000D01*
X157730D01*
X143200Y-80470D01*
Y-33200D01*
X135600Y-25600D01*
Y-10600D01*
X133540Y-8540D01*
X-10000D01*
G01Y-4760D02*
X136160D01*
X138800Y-7400D01*
Y-24260D01*
X146400Y-31860D01*
Y-76400D01*
X155000Y-85000D01*
X165000D01*
X170000Y-80000D01*
G01X-10000Y-670D02*
X139730D01*
X142000Y-2940D01*
Y-22000D01*
X149600Y-29600D01*
Y-59600D01*
X160000Y-70000D01*
G01X-10000Y-10200D02*
X118490D01*
X118550Y-10140D01*
X131410D01*
X134000Y-12730D01*
Y-26490D01*
X141600Y-34090D01*
Y-91600D01*
X160000Y-110000D01*
G01Y-90000D02*
X155000D01*
X144800Y-79800D01*
Y-32530D01*
X137200Y-24930D01*
Y-9710D01*
X134140Y-6650D01*
X-10000D01*
G01X160000Y-80000D02*
X148000Y-68000D01*
Y-30490D01*
X140500Y-22990D01*
Y-22770D01*
X140400Y-22670D01*
Y-5410D01*
X137690Y-2700D01*
X-10000D01*
G01X160000Y-50000D02*
X152800Y-42800D01*
Y-28260D01*
X145200Y-20660D01*
Y-200D01*
X141730Y3270D01*
X-10000D01*
G01X160000Y-40000D02*
X156000Y-36000D01*
Y-26920D01*
X148400Y-19320D01*
Y1380D01*
X142580Y7200D01*
X-10000D01*
G01Y10980D02*
X144020D01*
X152500Y2500D01*
Y-12500D01*
X160000Y-20000D01*
G01X-10000Y15000D02*
X145000D01*
X160000Y0D01*
G01X170000Y-60000D02*
X165000Y-55000D01*
X157490D01*
X151200Y-48710D01*
Y-28930D01*
X143600Y-21330D01*
Y-1110D01*
X141290Y1200D01*
X18560D01*
X18540Y1220D01*
X-10000D01*
G01Y5160D02*
X142350D01*
X146800Y710D01*
Y-19990D01*
X154400Y-27590D01*
Y-39860D01*
X158400Y-43860D01*
X161600D01*
X163860Y-41600D01*
Y-41140D01*
X165000Y-40000D01*
X170000D01*
G01Y-30000D02*
X165000Y-25000D01*
X156350D01*
X150000Y-18650D01*
Y2490D01*
X143400Y9090D01*
X-10000D01*
G01X170000Y-10000D02*
X165000Y-5000D01*
X157140D01*
X155000Y-2860D01*
Y2270D01*
X144240Y13030D01*
X-10000D01*
G01X170000Y10000D02*
X166140Y6140D01*
X158400D01*
X147570Y16970D01*
X-10000D01*
G01X160000Y10000D02*
X150900Y19100D01*
X144300D01*
X142910Y20490D01*
X141840D01*
X140450Y19100D01*
X-10000D01*
G01Y23000D02*
X139810D01*
X141210Y24400D01*
X143540D01*
X144940Y23000D01*
X153000D01*
X160000Y30000D01*
G01X-10000Y26890D02*
X139160D01*
X139870Y27600D01*
X142140D01*
X158400Y43860D01*
X163860D01*
X170000Y50000D01*
G01X-10000Y30830D02*
X138560D01*
X152500Y44770D01*
Y52510D01*
X157330Y57340D01*
X157340D01*
X160000Y60000D01*
G01X-10000Y34760D02*
X137250D01*
X148900Y46410D01*
Y68900D01*
X160000Y80000D01*
G01X-10000Y20910D02*
X139990D01*
X141460Y22380D01*
X143290D01*
X144760Y20910D01*
X153410D01*
X156360Y23860D01*
X166140D01*
X170000Y20000D01*
G01X-10000Y24840D02*
X139380D01*
X140540Y26000D01*
X144210D01*
X145370Y24840D01*
X147110D01*
X157270Y35000D01*
X165000D01*
X170000Y40000D01*
G01X160000Y50000D02*
X138780Y28780D01*
X-10000D01*
G01Y32720D02*
X137740D01*
X150500Y45480D01*
Y58000D01*
X157500Y65000D01*
X165000D01*
X170000Y70000D01*
G01X-10000Y36650D02*
X136650D01*
X147300Y47300D01*
Y73800D01*
X158500Y85000D01*
X165000D01*
X170000Y90000D01*
G01X160000Y100000D02*
X144100Y84100D01*
Y49330D01*
X135370Y40600D01*
X-10000D01*
G01X-22500Y110100D02*
X-17830D01*
X-15500Y112430D01*
Y124500D01*
X-10000Y130000D01*
G01Y120000D02*
X-13900Y116100D01*
Y111760D01*
X-18160Y107500D01*
X-25000D01*
G01X3880Y-25600D02*
X46500D01*
X47500Y-26600D01*
Y-107500D01*
X57500Y-117500D01*
Y-122500D01*
G01X-5000Y107500D02*
X0Y112500D01*
X12500D01*
X20000Y120000D01*
G01X10240Y-20800D02*
X11940Y-22500D01*
X49000D01*
X50000Y-23500D01*
Y-104920D01*
X62500Y-117420D01*
Y-127500D01*
X67500Y-132500D01*
G01X16880Y-17500D02*
X18880D01*
X19390Y-16990D01*
X50990D01*
X52500Y-18500D01*
Y-102510D01*
X67500Y-117510D01*
Y-122500D01*
G01X90000Y130000D02*
X86140Y126140D01*
Y116140D01*
X79100Y109100D01*
X56600D01*
X35000Y87500D01*
Y72200D01*
X30940Y68140D01*
X26000D01*
X25000Y67140D01*
Y55500D01*
G01Y71260D02*
X21240D01*
X17500Y75000D01*
Y77500D01*
G01X90000Y120000D02*
Y112500D01*
X85000Y107500D01*
X57270D01*
X40000Y90230D01*
Y67500D01*
X33800Y61300D01*
X27500D01*
G01X25000Y93890D02*
X18610D01*
G01X25000Y86110D02*
Y78740D01*
G01X100000Y120000D02*
Y107270D01*
X97730Y105000D01*
X57040D01*
X42500Y90460D01*
Y64990D01*
X32500Y54990D01*
Y48700D01*
G01X63190Y-97340D02*
X70850Y-105000D01*
X98740D01*
X111520Y-117780D01*
X113700D01*
G01X86810Y-77660D02*
X83860Y-80610D01*
X79920D01*
X63190Y-97340D01*
G01X66890Y-55000D02*
Y-65000D01*
G01D02*
X60000D01*
G01X66890Y-45000D02*
Y-55000D01*
G01X62400Y-17500D02*
Y-19500D01*
X61110Y-20790D01*
Y-25000D01*
G01X78110Y-65000D02*
Y-55000D01*
G01Y-65000D02*
X87500D01*
X95000Y-72500D01*
Y-91950D01*
X100320Y-97270D01*
X102500D01*
G01X78110Y-45000D02*
Y-55000D01*
G01Y-45000D02*
X87500D01*
G01X83740Y-25000D02*
Y-18740D01*
X82500Y-17500D01*
G01X68890Y-25000D02*
X76260D01*
G01X102480Y-118570D02*
Y-140220D01*
G01X137520D02*
X102480D01*
G01Y-118570D02*
X97540D01*
X92500Y-113530D01*
Y-112500D01*
G01X99770Y-72000D02*
Y-74000D01*
X99820Y-74050D01*
Y-75050D01*
X102500Y-77730D01*
G01X104390Y-41600D02*
Y-42500D01*
G01X110390Y-60000D02*
X104390Y-54000D01*
Y-42500D01*
G01X117500Y-97270D02*
Y-90000D01*
G01X126300Y-117780D02*
Y-111300D01*
X125000Y-110000D01*
G01X110390Y-60000D02*
Y-73860D01*
X110220Y-74030D01*
Y-81430D01*
X113790Y-85000D01*
X128790D01*
X132500Y-88710D01*
Y-97270D01*
G01X129610Y-60000D02*
X124390Y-54780D01*
Y-42500D01*
G01X120000D02*
X115610D01*
G01X120000D02*
Y-35900D01*
X121000Y-34900D01*
X134900D01*
X135610Y-35610D01*
Y-42500D01*
G01X132500Y71260D02*
Y62650D01*
X117350Y47500D01*
G01X115000Y71260D02*
X118760D01*
X120000Y72500D01*
G01X132500Y93890D02*
X115000D01*
G01D02*
Y125000D01*
X110000Y130000D01*
G01X115000Y78740D02*
Y86110D01*
G01X137520Y-118570D02*
Y-140220D01*
G01X129610Y-60000D02*
X135000Y-65390D01*
Y-86210D01*
X137500Y-88710D01*
Y-97270D01*
G01X132500Y78740D02*
Y86110D01*
G01X157740Y10000D02*
X160000D01*
G54D23*
X63190Y-77660D03*
G54D14*
X-144000Y143000D03*
X146000D03*
X154000Y-145000D03*
G54D33*
G01X127500Y-97270D02*
X127690D01*
X128890Y-98470D01*
Y-122860D01*
X127840Y-123910D01*
X118460D01*
X116850Y-122300D01*
Y-117780D01*
G01X120000D02*
Y-107500D01*
X122500Y-105000D01*
Y-97270D01*
G54D15*
X-125610Y-42500D03*
Y-32500D03*
X-114390Y-42500D03*
Y-32500D03*
X66890Y-65000D03*
Y-55000D03*
Y-45000D03*
X78110Y-65000D03*
Y-55000D03*
Y-45000D03*
X104390Y-42500D03*
X115610D03*
X124390D03*
X135610D03*
G54D24*
X61110Y-25000D03*
X68890D03*
G54D16*
X-100000Y-52670D03*
Y-42330D03*
Y-24830D03*
Y-35170D03*
X-55000Y-39830D03*
Y-50170D03*
X-47500Y-45170D03*
Y-34830D03*
G54D25*
X76260Y-25000D03*
X83740D03*
G54D26*
X102480Y-140220D03*
Y-118570D03*
X137520Y-140220D03*
Y-118570D03*
G54D17*
X-91170Y-50000D03*
Y-45000D03*
Y-40000D03*
Y-35000D03*
X-62830Y-40000D03*
Y-45000D03*
Y-50000D03*
Y-35000D03*
G54D27*
X102500Y-97270D03*
Y-77730D03*
X122500Y-97270D03*
X117500D03*
X112500D03*
X107500D03*
Y-77730D03*
X112500D03*
X117500D03*
X122500D03*
X137500Y-97270D03*
X132500D03*
X127500D03*
Y-77730D03*
X132500D03*
X137500D03*
G54D18*
X-70220Y-2720D03*
Y-6650D03*
Y-10590D03*
Y-14530D03*
X-74150Y-2720D03*
Y-6650D03*
Y-10590D03*
Y-14530D03*
X-78090Y-2720D03*
Y-6650D03*
Y-10590D03*
Y-14530D03*
X-82030Y-2720D03*
Y-6650D03*
Y-10590D03*
Y-14530D03*
X-70220Y16970D03*
Y13030D03*
Y9090D03*
Y5160D03*
Y1220D03*
X-74150Y16970D03*
Y13030D03*
Y9090D03*
Y5160D03*
Y1220D03*
X-78090Y16970D03*
Y13030D03*
Y9090D03*
Y5160D03*
Y1220D03*
X-82030Y16970D03*
Y13030D03*
Y9090D03*
Y5160D03*
Y1220D03*
X-70220Y36650D03*
Y32720D03*
Y28780D03*
Y24840D03*
Y20910D03*
X-74150Y36650D03*
Y32720D03*
Y28780D03*
Y24840D03*
Y20910D03*
X-78090Y36650D03*
Y32720D03*
Y28780D03*
Y24840D03*
Y20910D03*
X-82030Y36650D03*
Y32720D03*
Y28780D03*
Y24840D03*
Y20910D03*
X-70220Y44530D03*
Y40590D03*
X-74150Y44530D03*
Y40590D03*
X-78090Y44530D03*
Y40590D03*
X-82030Y44530D03*
Y40590D03*
X-50530Y-2720D03*
Y-6650D03*
Y-10590D03*
Y-14530D03*
X-54470Y-2720D03*
Y-6650D03*
Y-10590D03*
Y-14530D03*
X-58410Y-2720D03*
Y-6650D03*
Y-10590D03*
Y-14530D03*
X-62340Y-2720D03*
Y-6650D03*
Y-10590D03*
Y-14530D03*
X-66280Y-2720D03*
Y-6650D03*
Y-10590D03*
Y-14530D03*
X-50530Y16970D03*
Y13030D03*
Y9090D03*
Y5160D03*
Y1220D03*
X-54470Y16970D03*
Y13030D03*
Y9090D03*
Y5160D03*
Y1220D03*
X-58410Y16970D03*
Y13030D03*
Y9090D03*
Y5160D03*
Y1220D03*
X-62340Y16970D03*
Y13030D03*
Y9090D03*
Y5160D03*
Y1220D03*
X-66280Y16970D03*
Y13030D03*
Y9090D03*
Y5160D03*
Y1220D03*
X-50530Y36650D03*
Y32720D03*
Y28780D03*
Y24840D03*
Y20910D03*
X-54470Y36650D03*
Y32720D03*
Y28780D03*
Y24840D03*
Y20910D03*
X-58410Y36650D03*
Y32720D03*
Y28780D03*
Y24840D03*
Y20910D03*
X-62340Y36650D03*
Y32720D03*
Y28780D03*
Y24840D03*
Y20910D03*
X-66280Y36650D03*
Y32720D03*
Y28780D03*
Y24840D03*
Y20910D03*
X-50530Y44530D03*
Y40590D03*
X-54470Y44530D03*
Y40590D03*
X-58410Y44530D03*
Y40590D03*
X-62340Y44530D03*
Y40590D03*
X-66280Y44530D03*
Y40590D03*
X-30850Y-2720D03*
Y-6650D03*
Y-10590D03*
Y-14530D03*
X-34780Y-2720D03*
Y-6650D03*
Y-10590D03*
Y-14530D03*
X-38720Y-2720D03*
Y-6650D03*
Y-10590D03*
Y-14530D03*
X-42660Y-2720D03*
Y-6650D03*
Y-10590D03*
Y-14530D03*
X-46590Y-2720D03*
Y-6650D03*
Y-10590D03*
Y-14530D03*
X-30850Y16970D03*
Y13030D03*
Y9090D03*
Y5160D03*
Y1220D03*
X-34780Y16970D03*
Y13030D03*
Y9090D03*
Y5160D03*
Y1220D03*
X-38720Y16970D03*
Y13030D03*
Y9090D03*
Y5160D03*
Y1220D03*
X-42660Y16970D03*
Y13030D03*
Y9090D03*
Y5160D03*
Y1220D03*
X-46590Y16970D03*
Y13030D03*
Y9090D03*
Y5160D03*
Y1220D03*
X-30850Y36650D03*
Y32720D03*
Y28780D03*
Y24840D03*
Y20910D03*
X-34780Y36650D03*
Y32720D03*
Y28780D03*
Y24840D03*
Y20910D03*
X-38720Y36650D03*
Y32720D03*
Y28780D03*
Y24840D03*
Y20910D03*
X-42660Y36650D03*
Y32720D03*
Y28780D03*
Y24840D03*
Y20910D03*
X-46590Y36650D03*
Y32720D03*
Y28780D03*
Y24840D03*
Y20910D03*
X-30850Y44530D03*
Y40590D03*
X-34780Y44530D03*
Y40590D03*
X-38720Y44530D03*
Y40590D03*
X-42660Y44530D03*
Y40590D03*
X-46590Y44530D03*
Y40590D03*
X-22970Y-2720D03*
Y-6650D03*
Y-10590D03*
Y-14530D03*
X-26910Y-2720D03*
Y-6650D03*
Y-10590D03*
Y-14530D03*
X-22970Y16970D03*
Y13030D03*
Y9090D03*
Y5160D03*
Y1220D03*
X-26910Y16970D03*
Y13030D03*
Y9090D03*
Y5160D03*
Y1220D03*
X-22970Y36650D03*
Y32720D03*
Y28780D03*
Y24840D03*
Y20910D03*
X-26910Y36650D03*
Y32720D03*
Y28780D03*
Y24840D03*
Y20910D03*
X-22970Y44530D03*
Y40590D03*
X-26910Y44530D03*
Y40590D03*
G54D28*
X116850Y-117780D03*
X113700D03*
X123150D03*
X120000D03*
X126300D03*
G54D19*
X-57500Y-70610D03*
Y-59390D03*
X-47500Y-70610D03*
Y-59390D03*
G54D29*
X111340Y-129000D03*
X128660D03*
M02*
